<mxfile host="app.diagrams.net" agent="Mozilla/5.0 (Macintosh; Intel Mac OS X 10_15_7) AppleWebKit/537.36 (KHTML, like Gecko) Chrome/130.0.0.0 Safari/537.36" version="24.8.4" pages="6">
  <diagram id="JiaqepqO2LT1Yc02psO5" name="Browser Requests">
    <mxGraphModel dx="1242" dy="844" grid="0" gridSize="10" guides="1" tooltips="1" connect="1" arrows="1" fold="1" page="1" pageScale="1" pageWidth="1169" pageHeight="827" math="0" shadow="0">
      <root>
        <mxCell id="hb3Ut7-4osbbi6e86kE7-0" />
        <mxCell id="hb3Ut7-4osbbi6e86kE7-1" parent="hb3Ut7-4osbbi6e86kE7-0" />
        <mxCell id="8NVmBcEOkDyOGd30KRBW-2" value="" style="strokeWidth=2;shadow=0;dashed=0;align=center;html=1;shape=mxgraph.mockup.containers.browserWindow;rSize=0;strokeColor2=#008cff;strokeColor3=#c4c4c4;mainText=,;recursiveResize=0;" vertex="1" parent="hb3Ut7-4osbbi6e86kE7-1">
          <mxGeometry x="152" y="41" width="573" height="680" as="geometry" />
        </mxCell>
        <mxCell id="8NVmBcEOkDyOGd30KRBW-3" value="Frontend1" style="strokeWidth=1;shadow=0;dashed=0;align=center;html=1;shape=mxgraph.mockup.containers.anchor;fontSize=17;fontColor=#666666;align=left;whiteSpace=wrap;" vertex="1" parent="8NVmBcEOkDyOGd30KRBW-2">
          <mxGeometry x="60" y="12" width="110" height="26" as="geometry" />
        </mxCell>
        <mxCell id="8NVmBcEOkDyOGd30KRBW-4" value="https://www.frontend1.com/index.html" style="strokeWidth=1;shadow=0;dashed=0;align=center;html=1;shape=mxgraph.mockup.containers.anchor;rSize=0;fontSize=17;fontColor=#666666;align=left;" vertex="1" parent="8NVmBcEOkDyOGd30KRBW-2">
          <mxGeometry x="130" y="60" width="421" height="26" as="geometry" />
        </mxCell>
        <mxCell id="dPGcwXN5bRVfMJaVWmJu-0" value="&lt;font color=&quot;#000000&quot;&gt;index.html&lt;/font&gt;" style="rounded=1;whiteSpace=wrap;html=1;fontSize=36;fillColor=#f8cecc;opacity=50;verticalAlign=top;strokeColor=#b85450;" parent="hb3Ut7-4osbbi6e86kE7-1" vertex="1">
          <mxGeometry x="197" y="174" width="483" height="517" as="geometry" />
        </mxCell>
        <mxCell id="4xQWGwsX8P273ysTX3pn-4" style="edgeStyle=orthogonalEdgeStyle;rounded=0;orthogonalLoop=1;jettySize=auto;html=1;exitX=1;exitY=0.25;exitDx=0;exitDy=0;fontSize=36;fontColor=#000000;endArrow=classic;endFill=1;strokeWidth=4;fillColor=#fff2cc;strokeColor=#d6b656;" parent="hb3Ut7-4osbbi6e86kE7-1" source="dPGcwXN5bRVfMJaVWmJu-1" edge="1">
          <mxGeometry relative="1" as="geometry">
            <mxPoint x="916.3793103448274" y="357.8965517241379" as="targetPoint" />
          </mxGeometry>
        </mxCell>
        <mxCell id="4xQWGwsX8P273ysTX3pn-9" style="edgeStyle=orthogonalEdgeStyle;rounded=0;orthogonalLoop=1;jettySize=auto;html=1;exitX=1;exitY=0.75;exitDx=0;exitDy=0;fontSize=36;fontColor=#000000;startArrow=classic;startFill=1;endArrow=none;endFill=0;strokeWidth=4;fillColor=#fff2cc;strokeColor=#d6b656;" parent="hb3Ut7-4osbbi6e86kE7-1" source="dPGcwXN5bRVfMJaVWmJu-1" edge="1">
          <mxGeometry relative="1" as="geometry">
            <mxPoint x="914.3103448275865" y="388.2413793103449" as="targetPoint" />
          </mxGeometry>
        </mxCell>
        <mxCell id="dPGcwXN5bRVfMJaVWmJu-1" value="frontend2/component1.js" style="rounded=0;whiteSpace=wrap;html=1;fontSize=36;fillColor=#fff2cc;opacity=50;strokeColor=#d6b656;" parent="hb3Ut7-4osbbi6e86kE7-1" vertex="1">
          <mxGeometry x="222.5" y="343" width="432" height="60" as="geometry" />
        </mxCell>
        <mxCell id="4xQWGwsX8P273ysTX3pn-5" style="edgeStyle=orthogonalEdgeStyle;rounded=0;orthogonalLoop=1;jettySize=auto;html=1;exitX=1;exitY=0.25;exitDx=0;exitDy=0;fontSize=36;fontColor=#000000;endArrow=classic;endFill=1;strokeWidth=4;fillColor=#fff2cc;strokeColor=#d6b656;" parent="hb3Ut7-4osbbi6e86kE7-1" source="dPGcwXN5bRVfMJaVWmJu-3" edge="1">
          <mxGeometry relative="1" as="geometry">
            <mxPoint x="917.0689655172414" y="424.7931034482758" as="targetPoint" />
          </mxGeometry>
        </mxCell>
        <mxCell id="4xQWGwsX8P273ysTX3pn-10" style="edgeStyle=orthogonalEdgeStyle;rounded=0;orthogonalLoop=1;jettySize=auto;html=1;exitX=1;exitY=0.75;exitDx=0;exitDy=0;fontSize=36;fontColor=#000000;startArrow=classic;startFill=1;endArrow=none;endFill=0;strokeWidth=4;fillColor=#fff2cc;strokeColor=#d6b656;" parent="hb3Ut7-4osbbi6e86kE7-1" source="dPGcwXN5bRVfMJaVWmJu-3" edge="1">
          <mxGeometry relative="1" as="geometry">
            <mxPoint x="915" y="455.1379310344828" as="targetPoint" />
          </mxGeometry>
        </mxCell>
        <mxCell id="dPGcwXN5bRVfMJaVWmJu-3" value="frontend2/component2.js" style="rounded=0;whiteSpace=wrap;html=1;fontSize=36;fillColor=#fff2cc;opacity=50;strokeColor=#d6b656;" parent="hb3Ut7-4osbbi6e86kE7-1" vertex="1">
          <mxGeometry x="222.5" y="410" width="432" height="60" as="geometry" />
        </mxCell>
        <mxCell id="4xQWGwsX8P273ysTX3pn-3" style="edgeStyle=orthogonalEdgeStyle;rounded=0;orthogonalLoop=1;jettySize=auto;html=1;exitX=1;exitY=0.25;exitDx=0;exitDy=0;fontSize=36;fontColor=#000000;endArrow=classic;endFill=1;strokeWidth=4;fillColor=#f8cecc;strokeColor=#b85450;" parent="hb3Ut7-4osbbi6e86kE7-1" source="dPGcwXN5bRVfMJaVWmJu-4" edge="1">
          <mxGeometry relative="1" as="geometry">
            <mxPoint x="917.0689655172414" y="291" as="targetPoint" />
          </mxGeometry>
        </mxCell>
        <mxCell id="4xQWGwsX8P273ysTX3pn-8" style="edgeStyle=orthogonalEdgeStyle;rounded=0;orthogonalLoop=1;jettySize=auto;html=1;exitX=1;exitY=0.75;exitDx=0;exitDy=0;fontSize=36;fontColor=#000000;endArrow=none;endFill=0;strokeWidth=4;startArrow=classic;startFill=1;fillColor=#f8cecc;strokeColor=#b85450;" parent="hb3Ut7-4osbbi6e86kE7-1" source="dPGcwXN5bRVfMJaVWmJu-4" edge="1">
          <mxGeometry relative="1" as="geometry">
            <mxPoint x="916.3793103448274" y="321.344827586207" as="targetPoint" />
          </mxGeometry>
        </mxCell>
        <mxCell id="dPGcwXN5bRVfMJaVWmJu-4" value="frontend1/component1.js" style="rounded=0;whiteSpace=wrap;html=1;fontSize=36;fillColor=#f8cecc;opacity=50;strokeColor=#b85450;" parent="hb3Ut7-4osbbi6e86kE7-1" vertex="1">
          <mxGeometry x="222.5" y="276" width="432" height="60" as="geometry" />
        </mxCell>
        <mxCell id="4xQWGwsX8P273ysTX3pn-6" style="edgeStyle=orthogonalEdgeStyle;rounded=0;orthogonalLoop=1;jettySize=auto;html=1;exitX=1;exitY=0.25;exitDx=0;exitDy=0;fontSize=36;fontColor=#000000;endArrow=classic;endFill=1;strokeWidth=4;fillColor=#f8cecc;strokeColor=#b85450;" parent="hb3Ut7-4osbbi6e86kE7-1" source="4xQWGwsX8P273ysTX3pn-0" edge="1">
          <mxGeometry relative="1" as="geometry">
            <mxPoint x="918.4482758620688" y="491.6896551724137" as="targetPoint" />
          </mxGeometry>
        </mxCell>
        <mxCell id="4xQWGwsX8P273ysTX3pn-11" style="edgeStyle=orthogonalEdgeStyle;rounded=0;orthogonalLoop=1;jettySize=auto;html=1;exitX=1;exitY=0.75;exitDx=0;exitDy=0;fontSize=36;fontColor=#000000;startArrow=classic;startFill=1;endArrow=none;endFill=0;strokeWidth=4;fillColor=#f8cecc;strokeColor=#b85450;" parent="hb3Ut7-4osbbi6e86kE7-1" source="4xQWGwsX8P273ysTX3pn-0" edge="1">
          <mxGeometry relative="1" as="geometry">
            <mxPoint x="916.3793103448274" y="522.0344827586207" as="targetPoint" />
          </mxGeometry>
        </mxCell>
        <mxCell id="4xQWGwsX8P273ysTX3pn-0" value="frontend1/component2.js" style="rounded=0;whiteSpace=wrap;html=1;fontSize=36;fillColor=#f8cecc;opacity=50;strokeColor=#b85450;" parent="hb3Ut7-4osbbi6e86kE7-1" vertex="1">
          <mxGeometry x="222.5" y="477" width="432" height="60" as="geometry" />
        </mxCell>
        <mxCell id="4xQWGwsX8P273ysTX3pn-7" style="edgeStyle=orthogonalEdgeStyle;rounded=0;orthogonalLoop=1;jettySize=auto;html=1;exitX=1;exitY=0.25;exitDx=0;exitDy=0;fontSize=36;fontColor=#000000;endArrow=classic;endFill=1;strokeWidth=4;fillColor=#f8cecc;strokeColor=#b85450;" parent="hb3Ut7-4osbbi6e86kE7-1" source="4xQWGwsX8P273ysTX3pn-1" edge="1">
          <mxGeometry relative="1" as="geometry">
            <mxPoint x="917.7586206896553" y="559.2758620689656" as="targetPoint" />
          </mxGeometry>
        </mxCell>
        <mxCell id="4xQWGwsX8P273ysTX3pn-12" style="edgeStyle=orthogonalEdgeStyle;rounded=0;orthogonalLoop=1;jettySize=auto;html=1;exitX=1;exitY=0.75;exitDx=0;exitDy=0;fontSize=36;fontColor=#000000;startArrow=classic;startFill=1;endArrow=none;endFill=0;strokeWidth=4;fillColor=#f8cecc;strokeColor=#b85450;" parent="hb3Ut7-4osbbi6e86kE7-1" source="4xQWGwsX8P273ysTX3pn-1" edge="1">
          <mxGeometry relative="1" as="geometry">
            <mxPoint x="917.7586206896553" y="588.9310344827586" as="targetPoint" />
          </mxGeometry>
        </mxCell>
        <mxCell id="4xQWGwsX8P273ysTX3pn-1" value="frontend1/component3.js" style="rounded=0;whiteSpace=wrap;html=1;fontSize=36;fillColor=#f8cecc;opacity=50;strokeColor=#b85450;" parent="hb3Ut7-4osbbi6e86kE7-1" vertex="1">
          <mxGeometry x="222.5" y="544" width="432" height="60" as="geometry" />
        </mxCell>
      </root>
    </mxGraphModel>
  </diagram>
  <diagram id="cgEJN2_9l9x3sp_kASu4" name="OIDC">
    <mxGraphModel dx="1242" dy="844" grid="0" gridSize="10" guides="1" tooltips="1" connect="1" arrows="1" fold="1" page="1" pageScale="1" pageWidth="1169" pageHeight="827" math="0" shadow="0">
      <root>
        <mxCell id="uQrIupll_dQ1h0g__u3G-0" />
        <mxCell id="uQrIupll_dQ1h0g__u3G-1" parent="uQrIupll_dQ1h0g__u3G-0" />
        <UserObject label="" link="https://bit.ly/oidc-code-flow" id="znnCXn-MN28yMdGwwwps-0">
          <mxCell style="shape=image;verticalLabelPosition=bottom;labelBackgroundColor=#ffffff;verticalAlign=top;aspect=fixed;imageAspect=0;image=data:image/png,iVBORw0KGgoAAAANSUhEUgAAA8kAAAMhCAIAAABUuWQhAAAABmJLR0QA/wD/AP+gvaeTAAAgAElEQVR4nOzdd1xTV/8H8HOZIQQIEPYQwVEVrUoRa90iagtaBy7E1aq12morrXb4Ux9rrXVU60RxFKuoIFpHVVCxDopWK6hYFRRQ9kZ2gNzfH7e9T54sAs2SfN4v/0jOPffc7z0nuflyPTmhaJomAAAAAADwrxloOwAAAAAAgDYCuTUAAAAAgGogtwYAAAAAUA3k1gAAAAAAqoHcGgAAAABANZBbAwAAAACoBnJrAAAAAADVQG4NAAAAAKAayK0BAAAAAFQDuTUAAAAAgGogtwYAAAAAUA3k1gAAAAAAqoHcGgAAAABANZBbAwAAAACoBnJrAD1y6tSp4OBgd3d3DofD5/N79er15ZdfFhQUSFSbOXMmRVEURV28eJEpCQsLo/4Xl8t1d3efOHHizZs3ZR7r0qVLEydOdHFxMTU1tbW1HTZs2MGDB0UikWrP6P3332fi8fb2/jftnDp1KikpiX26cOFCptkHDx786xhlWLx4MdN+cnKyCpuVOAs1HUUx9Y37G2+8QVEUj8drdQvLli2j5Dtz5gzRUqcBQFuC3BpAL9TX10+aNGnMmDExMTEvXryor6+vqKhITk5eu3Zthw4dTp482dIGa2trX7x4ER0d/dZbb+3Zs0d8U2Nj4/vvv+/v7x8dHZ2bmysUCktLSy9fvjx9+vRRo0bV1dWp6qRqa2ujo6OZx6mpqbdu3WpFI8+fPw8MDBwzZkx+fr6qAtM8XTgLjY07AIAuM9J2AACgCXPnzj127Bjz2NfXt3fv3tXV1ZcuXcrLy6uqqpowYcKlS5cGDRrUbDtjx47t2rVrY2NjRUXF1atXHz582NTU9OGHH/bo0cPPz4+p8+mnn+7du5cQYmhoOHz48Hbt2j169Oi3334jhMTFxS1ZsmT79u0qOakTJ068fPmSfbp///4+ffq0tJHY2NizZ8+qJB7l9enTZ8aMGYQQGxsblTQo8yxUfhTFNDbu/96YMWOk/6OjY8eOWgkGANoaGgDauvj4eOb9bmpqevz4cba8trZ21qxZzCYvL6/GxkamnEnICCHx8fFMyZIlS5iSqKgodncmq2bKR4wYwRTevXuXKbGyskpKSmIrx8bGGhoaEkKMjY0LCgpUcl4BAQGEECMjIzs7O+aINTU1LW3khx9+YAI+ceIEW7hgwQKm8P79+yoJVd1knoUmaWDcfXx8CCHm5uatbmHp0qVMkAcPHpRXZ9GiRUydu3fvtvpAAKDPMCcEoO2LiIhgHixfvnzcuHFsOYfDCQ8Pf+211wghT58+vXDhQouaNTAwWL9+vZWVFSEkLi6utLSUEBIeHs5sXblyJXsnmxAyduzYadOmDRs27Ouvv25oaPh3J0QIITk5Ocx0cH9//2nTphFCKioqTpw4IV6HnTiemZnJFvL5fIqievbsSQgJDAz85JNP2AilZ9k2NDR88803Hh4eHA6nV69e7BQU1vHjx/39/QUCgZmZWffu3b/55pvq6mp267vvvktRlIeHx+XLl728vExNTd966y0iNan3/Pnz8iYBnz9/nmnq2rVrgYGBrq6uJiYmtra2AwcOjIqKYjbJOwt5U4cVx8zMNedwOGVlZYsWLXJzc+NwON27d4+MjFQwHC0dd8UxEEJycnJmzJhhZ2fH5XL9/f1lzn4uKCiYP38+M7fbw8Pjo48+kv7ygKooCHjgwIEURbVr146tPG3aNKbnr169ypScOXOGKWHfjADQZmk7uQcAtbO1tWXe7/n5+dJbv/32W2ZrWFgYU6LkfWvGqFGjmE3nzp2jabpLly7M0+fPn6vznOi1a9cyB4qMjLx9+zbzeNiwYeJ12BPJyMhgC5k/Bl5//XWapt955x2JSyJzt5K9b82k4OLYPqFpes6cOdIX1e7duxcVFTEVxowZQwixtLS0sLBgts6cOZOWujl67tw5eZdoplevXLliYmIivfWnn35ScBYyb8E2GzNz7kZGRswfXeLHPXv2rLzhaNG4NxtDXl6eq6ur+FZzc3OBQEDE7lvn5OSIp7MMNze37Oxsecdt9X1rxQGvW7eOKXn06BFTnw1+9erVTMlHH31ECKEoKjc3t9n+AYBXGu5bA7RxtbW1JSUlhBAHBwcHBwfpCt27d2ceZGRktKJ9Nzc35kFubi4h5OnTp4QQDofDlqsJcxvVzMzs3Xff9fHx6dy5MyHk8uXLWVlZyjeyZs2a+fPnM49XrVoVHx/foUMH8QpPnjzZvn3777//PnPmTKZk586dzIOIiAjmS5y2trbffvvtzp07fX19CSH379+fPXu2eCMvX740MTHZuXPn2rVr2Uk44pg74qx+/fox5V26dGHuc3/11VdCodDS0vLQoUNJSUkbN24U74Rmz4KlfMyNjY21tbUpKSn19fXsnzE7duyQ15PKj7syMXz11VfZ2dmEkD59+pw7dy4mJsbe3r64uFi8nYULF2ZlZVEUtXLlyuvXr2/YsMHIyOjFixeLFy9WHAAhJDQ0VOL/B44cOdLqgIOCgpiacXFxhJBnz54xwRNCrl27xjxg/lPojTfecHJyajY8AHi1aTu5BwD1Yj/mO3ToILNCQkICU8Hf358padF9azaV2bx5M7sWBJ/PV98Z0TTNLvwXHBzMlPznP/9hSlauXMlWa/a+Nd3cfOtvvvmGKWloaDAzMyOEdO3alSnp1KkTIcTQ0PDevXtMSX19PXOvlxDy4MED+p/71oSQrVu3isevYFLvTz/9xPbhkydPmMK//vrr8OHDp0+fZqsxt2y7dOmi4Cykj6JMzOy579+/n6nT1NTEnPtrr70mczhaNO7NxiASiZgxMjc3Z+9k379/n6nA3LcuLCw0MDAghEycOJFtmfkDw8jIqKKiQuah2fvW0tgXdus6zcvLixASFBRE0zTzhU4Gj8drbGxkpySxt7EBoA3DfWuANs7c3Jx5UFFRIbMCu9SGpaVlK9qvra1lHnC5XFNTUyMjI0JITU1NK5oaNmzYa2K2bNkiryabgE6dOpV5EBISwjw4cOAATdOtOLpMAwYMYB4YGRkxq20w55ubm/vkyROmAnvj38TE5P3332ceszcsJdpR7ObNm3PnziWEGBgYHD58mF254rXXXpsyZUrv3r2PHTsWFhb2xhtvMLfnGxsblT+XlsbcrVs35oGBgQFz7vLW0VN+3JWJITs7m3mt9uvXj5kHQgjx9vYWnwHy559/Mmtm37p1y/8fly5dIoQ0Njayibg8Y8eOXfG/5K2PrmSnMdNyrly50tDQwCyNMmLECAMDg6qqqj///JP9JgN7hxsA2jCswQfQxllZWfH5/PLy8qKiopycHBcXF4kK7AoP7du3b0X7OTk5zANHR0dCiJubW0ZGhlAozMzM9PDwEK959uzZly9fBgYGspOPJTx9+lR8RkdRUZHMakKhkP0f/LFjx0pszczMTEhIGDp0qHiheLbdonyUz+ezj5n0kUnpmGk2hBCJ/mSfMt/sZLE5ogJ5eXnjxo2rr68nhHzzzTfsRHZCSGpq6gcffHD9+nXmqbGxsbGxcUNDA3PvVkktjVn8V1qYc1fwR4uS465MDOx3BJnlX1gCgYB9eZSVlTEPMjMzxb+oKnGm8owbN475/muzlOy0oKCgH3/8sbKyMikpicmtx44dW1BQkJycfO3atcTEREKIu7v766+/rsxBAeCVhvvWAG0cRVEDBw5kHrNzhVn19fXs+g+DBw9uaeONjY3M9AyKopjVIdhjHT9+XKLyypUrp06dam9vzy6e0DqnTp2SyAIl7Nu3j3lAURTzgF2hoqmpib3Rrgx5yau9vT3zgP3TgsHOwJHIC5k5FQrU19ePGzeOmbMeHBz8xRdfsJuEQuGoUaOuX79uYmKyaNGi8+fPl5aWMn8ItSi3bmnMbO8pQ8lxVyYGZkIIIaS8vFy8jvjfWuyfZ1988YX0f8iOHj1a+cgVU7LTBg0axPy3z549e5g/AAYPHjxkyBBCSEJCAnNDHTetAfQEcmuAto9dhXrdunWHDh1iy2tqambMmPHs2TNCSPv27cVvlCpp48aNTMYzYsQIJguZN28es2n16tV//PEHW3PdunXMah4cDqd3794yW8vMzBTPkL755huZ1dgJIR9++KHE/+ybmpoSQmJjY5lJBex8GCZnJYTcvXtX4ve32fS0Rb/L7eDg4OnpSQi5du1aamoqU9jQ0MCm9RI/xNNsEjx//nzm58p9fX0PHDggvun27dsvXrwghHz88cebN28eMWIEj8djbtyy6a8yZ9HSmFtEyXFXJgYnJyfmS7dJSUlCoZApT09PZ9NZQgh7A5hdu50QsmrVqkWLFu3Zs0eFvwGpZKcZGxsPHz6cEMK8v5ycnDp37sz8sfrrr78yfySoMOMHAF2GOSEAbd+IESMmT5585MiRxsbGadOmbdq0ydfXt6amJi4ujlkP2MDAICIigvmND8ViYmKYhcZqamquXr3K/My4kZHRypUrmQpvvvnm7Nmz9+3bV1FR0a9fvxEjRri6ut65c4ddJu+rr74Sn2zQUoWFhcySz05OTlu3bpXIWe/fvx8bG1tbW3vkyJF58+ax85U/++yzzZs3FxcXh4WFSTTI5t/79+/PysoaM2YMk0s1a8GCBUuWLGlqaho8ePCSJUusra3379//119/EUImTJjAfAFOSTt27Ni/fz/zeNCgQeLLcfTs2ZOZbEMIefTokUgkMjAw2LJlC/MnDZt6KnkWKoxZgvLjrkwMoaGhGzZsKC0tnTdv3oYNG8rKymbMmCH+Z4Orq6u/v//Fixdv3779wQcfzJ079+7du6tXr25qavLx8ZG5ZF6rKdlpQUFBx48fZ4JkEu6BAwcaGBgwJRYWFq34fyEAeCVp4guTAKBttbW1kydPlnkR4HK50dHR4pUVrBMizdDQMDw8XHz3uro6eceaOXNmU1PTvzmRTZs2MU19/PHH0ltjY2OZrX369KFpOjc3V+ILmu3bt2duebLrhNy5c0e8wi+//ELL+V1G5rt07dq1Y56KRKIpU6ZIn2Pv3r1LS0uZOuw6IWVlZeJxSixGMX78eHndO2/evKamJvbXWDw8PJjZIMbGxuSfZSjknYX0khfKxMye+19//SXv3GVSctyVieHly5ddu3YV32poaMhksez61k+ePJGYxEIIsbS0vHPnjrwIW7e+tTIB02JLlxBCdu3axRSy/0UzYcIEBV0HAG0J5oQA6AUOhxMVFRUfHz9p0iQ3NzcTExMLC4sePXp8/vnnaWlpEyZMaGmDpqam7dq1mzZtGru0hfimqKio06dPBwUF2dvbGxkZCQSCUaNGnTx5cv/+/S2aIiyNnRAyceJE6a1vv/22tbU1IeTWrVupqalOTk6XL18eMmQIl8u1t7efO3furVu3JL5W2Lt37zVr1nh6epqamnbu3Fn5xVIoijp8+PCxY8f8/f1tbGw4HI63t/eaNWuuX7/OxKAqBgYGv/zyy4wZM5ycnIqLiy0tLb///vvvv/+eEFJVVcX8OKWSZ6HWmJUcd2VisLCwuHr16ty5cwUCAZfLHTp0aEJCAjN9mdWxY8e7d+/OmzePeT27uLhMmTLl5s2b8mYctZqSnWZnZ8f+CcTeomZjxmRrAP1B0apbrAoAAAAAQJ/hvjUAAAAAgGogtwYAAAAAUA3k1gAAAAAAqoHcGgAAAABANZBbAwAAAACoBnJrAAAAAADVQG4NAAAAAKAayK0BAAAAAFQDuTUAAAAAgGogtwYAAAAAUA3k1gAAAAAAqoHcGgAAAABANZBbAwAAAACoBnJrAAAAAADVQG4NAAAAAKAayK0BAAAAAFQDuTUAAAAAgGogtwYAAAAAUA3k1gAAAAAAqoHcGgAAAABANZBbAwAAAACoBnJrAAAAAADVMNLw8RrKK0vvPBLV11akZvC83OwG9DK1s9ZwDAAAAAAA6kDRNK2xg5XdeZQV9QvHwciuf3tRQ1PNi7KK1FKum5fn+2MNjDWd5QMAAAAAqJbmcuuSm6lZB4++9vlgrrsNW9hYVf9sX5KRuZvn7LGEojQTCQAAAACAOmhovrWoXpi+81DXr/3FE2tCiBHPtMMHb9XlPyu6elczkQAAAAAAqImGcuuyPx87DPPkOFrKiMDEyH5I+/L7f2kmEgAAAAAANdFQbl1y6z7X1ULeVuve7WqyXmgmEgAAAAAANdHYGny0gbGhvG2UIfXyrxdEg9+qBAAAAABQOQ3l1hxHu6qMUnlbhSXVtv2647uMAAAAAPBK01BuLXizR9ntPFFDk8ytL44n87t31UwkAAAAAABqoqHcmuvuaN27V+aBm3SjSGJT8Y30mucNdgN6aSYSAAAAAAA10dz61k219U9+PEREZc5Br1l0djQwMqjOKi3940XBxawe3y42sbXSTBgAAAAAAGqi0d9lJIQUJ97LjrnQVF9DUaSprsllbICjfx8DUxNNxgAAAAAAoA4ayq2FZZXlKWlNtdXF1/+sL62w7OxSdP2BsRXP7q3u9aW1Fp08bft6c+ytNRAJAAAAAICaqD23Lv3jYcnNu1VpT03tOfaDPE1seUYWpqYCC7qpqalG2FTbUJlWWF9UU5VeXp1Z4TbpbYdhvpSBxlYGBAAAAABQGfXm1lmHz1U+uucY4CXo36HZytWZJbln/6rLo7stn4dZIgAAAADwylHjHWJRvbDi3v1OnwxQJrEmhJh72HZc0J9QlWXJaeqLCgAAAABATdSYWxddT+G2Mzex5rZoL/dJr1fc/0tNIQEAAAAAqI8ac+vylL8sXxO0dC+ep13BxaTGqlp1hAQAAAAAoD7qyq1F9cKG8mJBP0/maW1eheL67G/KGHJN7Aa2r87KU1NgAAAAAABqoq7cuuTWQ0LqDUyNCSFVT4uuBe6oeV6qoP4fc47kxz9iHlv7OOedu6amwAAAAAAA1ERduXVdQaH9kL9vWlfczzVzdqorrJRXWdTQVPmksOzPAuapRSeHigePaZHkr6MDAAAAAOgyteTWImFDQfwNmzfaMU9f/lVmP6Q3ZUgp2MXcw77ycXHVsyJCiIk1136g58vUDHXEBgAAAACgJmrJrSvTXphYGxtZcAgh1VmlLx8ViRoahSXV8upTFGXe3sFp5MDaF+VMiYnAJP/i7+qIDQAAAABATdSSW1elZzmN6sw8rskscQ4awrG3MeJx5NWnRaKyu09t+njnnPp79T27t7wq7j9SR2wAAAAAAGqipvvWzwn5++ce8+OeWHl3MDLnGJgYyt2Bokz4PPN2jtWZZU01QkKIiQ3XoqOjOmIDAAAAAFATI3U0amhmyqwQQgihRaSxqrY6M8/YWu59a2ZOCKEouwHdmGnZokZRcSLuWwMAAADAq0Qt963NHAXsNxdtfD1M+BamdtbGFornhDwjhBReuUcoihBCN4pMbCzUERsAAAAAgJqo5b51fclLA5O/V9yrzig0cyozMjc1MGlQsIuJNY/QNKFpA2NDQggtEvFf91RHbAAAAAAAaqKW3NqIa2rIFTKP6SZRQ1VtdWaBsbWp3B0oyry9A90kEgzoyty3FtU3lt5OU0dsAAAAAABqopY5ISa2fAOjv1u26u7Msbc2teMrmBNCRKLyu8+a6oUlSX/PsRY1NJnaWqojNgAAAAAANVFLbt1U11CZVsg8rnleWptT1Ow6IcZ8c8rQ0PCfb0ASmph7OqsjNgAAAAAANVFLbm3ds1PF/eLqrNLKtMLSO3n8Xp2qM/PrxX47prG6vuFl3X9/1ZyizNs7GHJMLDp75p5OaaptyD3zwMCEp47YAAAAAADURC3zrc3bOzu9MzLr0J91+WWesyeZOQlM7fjGFjRb4cHys0XX0gee+9BUwCPk7zkhhBD3Se+k7zpa+keZoZllh/mj1BEbAAAAAICaqCW3JoQ4BvR1DOj738OYcwxMhOxTuokytbOhqL/X6WPmhBBCLDq36/XD52oKCQAAAABArdSVW0uozswXXyfEyNLMqpvbf2dgM78dAwAAAADwKlPLfGtppvZ8Y95/c2vLzk5ld5811Tf+/fyfOSEAAAAAAK8uDeXWRlyOgel/75GX/vHMwMRYek4IAAAAAMCrC3NCAAAAAABUA3NCAAAAAABUA3NCAAAAAABUA3NCAAAAAABUA3NCAAAAAABUQ1NzQszNDEzkzwkhxNgav3AOAAAAAK82Dc4JsTL+71El5oQYGJh72GsmEgAAAAAANdHUnBA7K2MLDvsUc0IAAAAAoO3BnBAAAAAAANXQUG4tLK2qzixhn1LGRrwOzjRNM0/pJtqik7NmIgEAAAAAUBMN5dY2fbxfPi4RNTQRQqqzSo24llxX55yTKczW7JMpdJOxwgYAAAAAAHQdxd48Vi+afhoeXZ31VFRfb8DhOQYM5Xf3erbveMPLQiISGZrbes2dZCrgayISfXWU8tN2CDphEn1T2yEAgOrhEtci//5KiA7XGAWDhVHQmBa9ZTS0TgihKK8PJta8KGiqred5ulBGhoSQTounV6Vn041NFp3cDExNNBSJHptEh2s7BC07Ss3TdggAoC64xClJVVdCdLgGNDtYGAUNaOlbRlO5NSGEEK7b//z4ooGxkWUXD00GAAAAAACgPhqabw0AAAAA0OYhtwYAAAAAUA3k1gAAAAAAqoHcGgAAAABANZBbAwAAAACoBnJrAAAAAADVQG4NAAAAAKAayK0BAAAAAFQDuTUAAAAAgGogt4a2oLKyurCwVNtRAABoDq57ALpJ9bk1j8c7efKkeMnIkSPDwsJUfiBQOR6v38mTCeIlI0cuCAvbpNqjLFr0PUX1unnzvgrb7Nt3+r17aSpsEADaJB6vH0X1Yv4ZGfk4Ow9fvHh9U5NIXv309BcU1auuTihza3Z2AUX1Ki+vbHU8HI4fGw+X23fAgNmXL99Sct9X5bp38+b9oKBF1tYDudy+vXpN3rr1iEgkt8NbZPDg91eu3MU8ZnvS0NDH2npgYODHDx8+k7nXv+lzafJeAyNHLtiwIbLVzapWS1/2uiA3t2jatK/s7Yeamvbp1GnMf/6zu7GxSdtBKQv3rUGjamvrDx48+957727ZcliFzZaUVKiwNQBow6KivqusvFFZeaOw8PLu3cv37ftlx45jrWvK1pYfHb3e3Nzs38Rz4MB/Xrw4/+LF+ZSUY35+3qNHL87LK1Zmx1fiunfq1G+DB7/foYPbxYvhjx6d/OyzGd9/f2DSpKXqOBbTk8+enblwYQeHYzJgwOysrDwFNVvR59JU8hrQABW+7DVj7NhPy8penj695eHD2PXrP9mzJ/bLL7dqOyhlaTS3pml66dKlzs7OdnZ2Q4YMSU5OZsofPHjg7+9vbW3dqVOniIgIQkh6erpAIJg7d66lpeWuXbs0GSTIRNP00qVbnJ2H29kNGTJkTnLyY6b8wYN0f/951tYDO3UaExFxghCSnv5CIBg8d+5qS8v+u3bFSLRz5Mj5Dh3cli+fGxt7OTe3iC2Pi/u9e/dgPn9AUNCiKVOWff31dpmNZ2bm8vkD1q3b7+sb4uISMGPG8oaGxnHjlhQVlU2Zsmzv3pMEAEAhDseEx+PyeFwbG6vAwIEBAX1v305lNklfc1hz566ePHkZ+7R37yk//3y2pKQ8OPiz6upamZcmIufKJsHW1srV1cHV1aFjR/dvvllYXV374EE6ISQm5qKvb4iNzSA+f0BIyJd1dULxqytF9WKvezJjU0fXtZRQ2DBv3ur//OfDH34I8/Hp4u7uOHXqqCtXIs6cuXrixOXMzFxz8ze/+OLHgQPf69Zt/P/93w6aponSV37pwzE92a6dU58+3kePfu/m5vD99wdkBiazzyU+vBITUwYMmG1l1b9jx9E//hhF03RIyJcLF37HtEDTtIfH28ePX2JfA4SQ8+cTvb0nmJu/OXHi51VVNUzNln5KqkmLXvbyPvGl+0TiP3aYu/USJ3jz5v1+/WZYWLzl6Rl44MApeQcVR9P0nTsPP/tshp9fdy8v1zFjBu/Y8QXTyTL3lXhrSA9Ts3updiA0mlvHxcVFR0ffv38/Pz+/d+/en3/+OSHk5cuXw4cPHzx4cGFhYUxMzMqVK8+ePUsIKSkpMTMzS0tLmzhxoiaDBJni4n6Pjo6/fz8mP/9S795dPv98MyHk5cvq4cM/GDz4jcLCyzExG1au3HX27DVCSElJhZmZaVraLxMnDpdoZ9eumHnzJrRr5zR8eF/2j+bs7IKxYz9dsiS0uPjKtGlvHz0ap6Dxioqq4uLyW7d+Tkk5dvHizZiYi7GxG+3srKOivnvvvXc12ikA8Iq7du3PhITbffv2IPKvOYzp0wNPn/6N+XT/66+MJ0+yxo4dKt6U9KVJ5pVNgbo64bZtRzgck+7dO2Zm5oaEfLlu3aLS0t+Sk48mJPxx7FgcEbu6lpRcYa97zcamLUlJ9/PzS2bP/p8rs5eX69tvD4iNvUwIqampq6sTXr26Nykp8pdfruzefVz5K7/iQxsaGowbN+zKlduKq4n3ORHr3r59uw8f/sHkySOKi68cO/b9unX79+49OXPm6GPH4piZCdeu3a2srAkKGsg2lZ1dMG7cp19++V5FxfWgoEE3biSTVn1KakCzL3uZn/jPn+dL94m8Q7An6O/vN2rUwokTA0pLfzt8eO2CBWv//PMvxe81QghFUbNnvzt37upNmw7evv2woaExKGjQ9u1fyAtY/IhHjnwnPUwaHgiN5tZ8Pr+goCAiIuLx48fr16+Pi4sjhJw+fdrExOTrr782Njbu0aPH/Pnzd+/ezdRfsGCBg4ODjY2NJoMEmfh8i4KCkoiI2MePM9evXxwXt5MQcvr0byYmxl9/PcfY2KhHj47z5wfv3n2cqb9gwSQHB1sbGyvxRpKTHz95kjVlykhCyMKFk8LDY5g/dmNiLnp7d5g5c7SRkeGkSSOGDvVttnGKogQCfp8+3mlpzzXZDwDwqgsJ+ZLPH8DnDzAz85s8ednChZPmzh1PFF5zCANEJ0YAACAASURBVCH9+/dydBT88ssVQsjPP58dN26o9DQAiUuTzCubtODgz3i8fjxePzMzvw0bIvftW+XoaOvsbJeaenzo0D4vX1YXF5fb29vk5RWxR5G4uioTm1bk5xebmBjb2lpJlLu5ObCns3z5HEKIhYX5nDnjDh8+p8Irv52ddWmp7GkzMvucPYqDg+3ly7e6dGm/YMEkY2OjXr1eCwubvm/fyWHD+nA4pvHxSYSQQ4d+nTp1lImJMdvmiRMJ3bp5TZ06ysjIMDT0HT+/7qTln5Lq06KXvcxP/JiYeOk+UXBE5gSTku7Z2lotXhxibGzUt2/3GzcOeHq6Kn6vMXbvXr5hw6cpKU+Cgz/j8wcEB3/GDHqzXRocPFx6mDQ8EEYqbIvB4XCEwv/52odQKORwOIQQPz+/yMjIbdu2rVixwtHRcc2aNSEhIVlZWbm5uXw+n6nc1NTUqVMn5rGbm5vKwwMFOBwTobBBvEQobOBwTAkhfn7dIyO/2bbtyIoVuxwdbdesWRgS8nZWVl5ubhGfP4Cp3NQk6tSpHfPYzc2RELJo0ffbtx9lSurr/9i5M7qqqsbdfSRTUlJScfjwr7Nnv5udXeDu7sge1MPDmRCioHGB4O9Xi6Ghgaq+EwMAeuKHH8ICAt4sKChZtGi9h4fzl1++Z2hoQBRecxihoe9ERZ2fMmXk4cPndu9eLt2yxKVJ5pVN2o8/Lh0yxJeiKHNzMzbDMzY2OnjwzN69Jw0MDF5/vVNVVQ1N/12fubpKaDY2rXByEgiFDfn5Jex5MTIzcx0dBYQQDseEzWkEAuv8/BIVXvkLC0vt7WXfm5PZ5wymewsKSsXHq317l+fP8w0MDEJD3zl06Ndhw/pER8fHx//PhNW8vCJXVwexXZr5IJM5jurTope9zE98mX0icRSafZn+c4L5+SXi3dKzZ2d5B5Voqrq6dvToQaNHDyKEZGcXrF69Z/Dg958+PdNsl8ocJg0PhOpza1dX1ydPnrBPRSLRo0ePJk2aRAjJysry8vJKSEioqamJjIycPn368OHDXVxcunTpcu/ePaZ+YWFhU1NTdXU1IYSiKJWHBwq4ujo8eZLFPhWJRI8eZUyaFEAIycrK8/JyTUjYU1NTFxl5Zvr05cOH93Vxse/SxfPevb+ndhQWljY1iZj/l2TGbtmy2XPmjGO21tTUHj587sSJTcxbixCyffvRLVsOz579rpub47Vrd9njvnhR4OgokNl4fb3sb+vjlQIASrK3t/HwcPbwcL5wYYevb0ho6NfHjn1PCFFwQWOEhgauXbvv8uU/6uuFw4b1afZAMq9s0tWcnAQdOkjeSDp06Nfw8OOJiQc8PV0JIf37z2I3sZ+M4te9lsamGW+++bqTk2DnzmOrVs1nC58+zY6L+/3nn9cQQurqhGwGnJ7+3M3NoUVXfgVEItHJkwnDhvnJ3CqzzxlM97q7O168eJMtfPYsm0nBZ84c7eMz9eTJBBcXex+fLuI7urjY//rrdfZpTk6Rj4+iF5WGM5wWvexlfuLL7BMDA4oQ0tDQwOGYEEJKSsrZCswJuro6ZGcXsIU7d0Z7e3vJPKh4tCdPJoSEfJmff9HCwpxp5JtvFuzeffzFi3xlulR6mDQ8EKqfEzJ16tSNGzdGRkY+efIkKSlp1qxZ1dXVY8aMIYQkJiYGBgampaVxuVyBQGBmZsblcoOCgvLy8jZv3tzQ0JCTkxMQELB582aVRwXKmDp11MaNByMjzzx5kpWUdH/WrBXV1bVjxgwhhCQmpgQGfpyW9pzL5QgEfDMzUy6XExQ0MC+vaPPmQw0NjTk5hQEB8zdvPiTeoJOTwNu7A/Pv559/tbe3CQwcyHyDxNXVYf78iQ8ePL1y5fbkySNSU58ePHhWKGw4fvwS8+5ttnFxpqYmaWnP2e+OAAA0y8qKd+TIdydPJoSHxxAlrjleXq5vvNF1yZKNISFvGxg0/+kp88qmpPLySg7HxNaWT9N0VNT5pKR7Ev+pSP73utfS2DTDyMhwz57/+/77A5999sO9e2nPn+cfPXph2LC5AQFvsjPCly7dUltbf+9e2rZtR2fOHN2iK7+EkpKK7OyC58/zExNTgoM/z88vDgub3rrIx4/3T09/vn370YaGxpSUJ5s2/Tx9ehAhpGNH9+7dO3z22Q8zZ46W3iUjI2fXrpjGxqbjxy9dv36XtPCDTDOUednL/MSX2SdOTnY8Hjc8/HhdnfDnn8+mpDyRONzIkf3Kyyu3bz/a2Nh08+b9Zcu2mJubNdstI0e+5eJiHxS06OTJhIcPn12+fOv991d16+bl6emqTJdKD5OGB0L178CwsLAvvvhi7dq1PXr0GDVqVEFBwZUrVxwdHQkhU6ZMmT179uDBg3k83urVq2NjY3k8no2NTXx8/KlTpxwcHHx8fAYNGrR69WqVRwXKCAub/sUXs9eu3dujx8RRoxYUFJReuRLB/LE+ZcrI2bPHDB78Po/Xb/Xq3bGxG5mvG8fH7zp16jcHh2E+PlMHDfJZvfpDeY2Hh8eEhIwSL3F3d/T399u8+ZCDg+2xY99/880eW9vBP/98dsCAXiYmxi1qfObM0Z98smHjxoMq7A0AaPN69+6yatX8JUs2paU9V+aaM316YErKk9DQQGUal3llUzKwWbPG+Ph09fQM9PB4+8iR86GhgcziIeIkrnstik1j3nlnwG+/7U1Lez506JzXXnt37dp9n3wy7fjxjezNQjs76/bt33n77YVLl86cNu2dFl35Jcyc+X9ubiM9Pd+ZMCGMwzG5fv2As7Nd68J2dLQ9f35HVNR5gWDw6NGLPvpo8kcfTWY2zZo1Jje3aNq0t6V3OXt2a3h4jJVV//DwmJEj+xFC/s3pqE+zL3uZn/gy+8TMzHTnzi937z5uazvo3LkbzPepxPH5FufP7zhy5IKt7aDQ0K93717eu3eXZruFwzG5ciXC09N14cLvevacNHnyMktL3oULOwwNDZTsUolh0vBAUOKTY6ANO0r5TaLDFVQIDv6s2W9e67hjx74PDlb0Vd+j1LxJdAtuHQHAq6LZS1xq6lNv7wkai0eLunb1TE2V/GaYOJVcCZvt8JUrd61apagCEEJWrJi3cuUHCiooHiyMgkr8y1GQpvr51vCKio5er61Dp6Y+9fMLvXp1b8+enS9c+H38+CXJyUelv9kAANBq3bp50fTd5uvJUVFRlZWV9+GH306dOurDD5VaGVZjV7ZWxKYBK1d+oDhfyczMbd/+ncrKGzweV2NR6ZtmRwHUAbk1aF+3bl4bN346YcJn+fnFXl5uhw+vRWINADrl2bPs/v1nDR3ah/1+drM0dmVrRWwAoD7IrUEnzJs3Yd48vfjvWgB4FfXq9Vp19e8t3UszV7bWxaZ1Hh7O/+Z/EgB0lq58mxgAAAAA4FWH3BoAAAAAQDWQWwMAAAAAqAZyawAAAAAA1UBuDQAAAACgGsitAQAAAABUA7k1AAAAAIBqaG1969TU1G7dumnr6PrpKDVP2yEAAKgLLnEahg7XBRgFHUTRNK2dA1NaOzRoBUYcAPQNrns6BcOhC/RhFDAnBAAAAABANZBbAwAAAACoBnJrAAAAAADV0Fpu3bVrV20dGrQCIw4A+gbXPZ2C4dAF+jAKbX9GOQAAAACAZmBOCAAAAACAamgtt05NTdXWoUErMOIAoG9w3dMpGA5doA+jgPWtQUMw4gCgb3Dd0ykYDl2gD6OAOSEAAAAAAKqB3BoAAAAAQDWQWwMAAAAAqAbWtwYNwYgDgL7BdU+nYDh0gT6MQtufUQ4AAAAAoBmYEwIAAAAAoBpY3xo0BCMOAPoG1z2dguHQBfowCvq7vnVlZWVtba29vb0WY1AfHTw7rY84AICG4bqnUzAcukAfRkF/54T07dv33r17qmqNx+OdPHlSvGTkyJFhYWHsVuofRkZGzs7OixcvbmpqIoTU1dVRFHX9+nXF7UdERISFhWVnZ1MUVV5eLrOO+Fb27BTvkp6eTlFUXV1dC08XAAAAAGTQ39y6pKREk4eLioqqrKysrKwsLCzcvXv3vn37duzYofzup06dGjNmjK2tbXR0tLm5ucw64lvZs1O8CwAAAACoUFvLrR88eODv729tbd2pU6eIiAhCSGZmJp/PX7duna+vr4uLy4wZMxoaGsaNG1dUVDRlypS9e/fK3Cs9PV0gEMydO9fS0nLnzp1Lly51dna2s7MbMmRIcnJyKwLjcDg8Ho/H49nY2AQGBgYEBNy+fVvJfWtqapKTk/v161dSUhIcHFxdXS3zpNit4mfHFhJCYmJifH19bWxs+Hx+SEgIblcDAAAAqFabWt/65cuXw4cPHzx4cGFhYUxMzMqVK8+ePUsIqaioKC4uvnXrVkpKysWLF2NiYmJjY+3s7KKiot577z15e5WUlJiZmaWlpfH5/Ojo6Pv37+fn5/fu3fvzzz//l3Feu3YtISGhb9++StaPi4sbOnSooaGheKH0SbGbxM+OLczMzAwJCVm3bl1paWlycnJCQsKxY8f+5Ym0iD4saQkAIA7XPZ2C4dAF+jAKbWqdkNOnT5uYmHz99dfGxsY9evSYP3/+7t27mU0LFiygKEogEPTp0yctLU35vRwcHDw9PQsKCiIiIh4/frx+/fq4uLhWxBYSEsLn8/l8vpmZ2eTJkxcuXDh37lwl92UmhEiXKzgpac7OzqmpqUOHDn358mVxcbG9vX1eXl6LT+Nf0IevBgMAiMN1T6dgOHSBPoyCkbYDUKWsrKzc3Fw+n888bWpq6tSpE/NYIBAwDwwNDUUikZJ7ubm5EUL8/PwiIyO3bdu2YsUKR0fHNWvWhISESByaw+EIhULxEqFQyOFw2Kc//PBDQEBAQUHBokWLPDw8vvzyS4n70PKIRKJLly5t3bpVepOCk5JmbGx88ODBvXv3GhgYvP7661VVVW3+i7oAAAAAGtam7lu7uLh06dKl/B9Pnz49c+aMvMoURTW7F1MnKyvLy8srISGhtLR02bJl06dPLywslGjN1dX1yZMn7FORSPTo0SMmNWfY29t7eHj4+flduHDhzz//DA0NVfKkEhMTu3fv3tIvI7Jnxzp06FB4ePjVq1efP39++vRpR0fHFjX47+nDn6oAAOJw3dMpGA5doA+joLXc2tvbW+VtBgUF5eXlbd68uaGhIScnJyAgYPPmzfIqm5qapqWlVVVVNbtXYmJiYGBgWloal8sVCARmZmZcLleitalTp27cuDEyMvLJkydJSUmzZs2qrq6WOZHDysrqyJEjJ0+eDA8PZwuLioqy/5GbmyteX96EEMXYs2NLysvLORyOra0tTdNRUVFJSUkSN9rVTR0jDgCgy3Dd0ykYDl2gD6PQpuaE2NjYxMfHf/rpp//5z39MTEwmTZq0evVqiVSVNXPmzE8++aSwsHDFihXSez1//pytOWXKlL/++mvw4MEVFRVeXl6xsbE8Hk+iNWYp67Vr12ZkZJiZmfn5+V25ckXeveHevXuvWrVqyZIlQ4cOZe5tjxs3jt1qZWUlvhz16dOnExISWtoV7NmxX2ecNWtWQkKCp6cnj8fr2bNnaGjogwcPWtosAAAAACigv7/LCK1WevsvE74Fr4Nri/bCiAOAvsF1T6dgOHSBPoxCW1vfGjQg98z1sx3Hx70x48mWo/VFZdoOBwAAAEBXaG1OiD4scNi2ld15VHbnUcrnWx0D/NyCh7lNGGrI5SiojxEHAH2D655OwXDoAn0YhbZ/Zx5U7sHKPamrIiQKjfkWLkH9Paa/7TDMl0itUgIAAACgD7SWW7+IvpQ48UutHBrUzTmwf+6Z60pWnkTfVGswAAAAABqjtTkhL7s6Iql6RSlz3/oo5afM+B6l/NQTIwCA9qWmpnbr1k3bUcDfMBy6QB9GQWu5tbe3N6ajtAEGJsZKzrcGANA3+KTTKRgOXaAPo9Cm1rcGTbL2ec0j9O12UwNM7ay1HQsAAACATkBuDS3mHNjfY9qolq5vDQAAANDmIbeGFrN5o4u2QwAAAADQRVr77Rh9WOAQAAD0GT7pdAqGQxfowyhoLbdOTU3V1qEBAAA0AJ90OgXDoQv0YRTwm+cAAAAAAKqB+9YAAABqgU86nYLh0AX6MApay629vb21dWgAAAANwCedTsFw6AJ9GAXMCQEAAAAAUA3k1gAAAAAAqoHcGgAAAABANbC+NQAAgFrgk06nYDh0gT6MAtYJAQAAUAt80ukUDIcu0IdRwJwQAAAAAADVwH1rANALlZWVhYWF2o4C9As+6XQKhkMX6MMoYH1rAHglRUREhIWFZWdnUxRVXl4us4741r59+967d0+iUFp6ejpFUXV1deqLHPQHPul0CoZDF+jDKGBOCAC8kk6dOjVmzBhbW9vo6Ghzc3OZdcS3lpSUSBcCAACoFnJrAHj11NTUJCcn9+vXr6SkJDg4uLq6OjMzk8/nr1u3ztfX18XFZcaMGQ0NDezWcePGFRUVTZkyZe/evWwhISQmJsbX19fGxobP54eEhOB2NQAA/EvIrQHg1RMXFzd06FBDQ0PxwoqKiuLi4lu3bqWkpFy8eDEmJobdFBsba2dnFxUV9d5777GFmZmZISEh69atKy0tTU5OTkhIOHbsmObOAQAA2iKsbw0Arx5mQoh0+YIFCyiKEggEffr0SUtLU9yIs7Nzamrq0KFDX758WVxcbG9vn5eXp554QU/hk06nYDh0gT6MgpG2DqwPXxQFAHUQiUSXLl3aunWr9CaBQMA8MDQ0FIlEitsxNjY+ePDg3r17DQwMXn/99aqqKpqmVR8u6DF80ukUDIcu0IdR0FpuDQDQOomJid27d2/plxEpipIoOXToUHh4eGJioqenJyGkf//+KgsRAAD0Fda3BoBXjLwJIYqZmpqmpaVVVVWxJeXl5RwOx9bWlqbpqKiopKQkoVCo0khB3+GTTqdgOHSBPoyC1u5be3t7479fAaAVTp8+nZCQ0NK9Zs6c+cknnxQWFrJfZ5w1a1ZCQoKnpyePx+vZs2doaOiDBw9UHSy0EaW3/zLhW/A6uLZoL3zS6RQMhy7Qh1GgtHWGFKW1Q4MGHKX8JtE3VVUNAEC7Hqzck7oqwtrnNY/Qt9tNDTC1s1ZmL3zS6RQMhy7Qh1HAfGsAAACllN15VHbnUcrnWx0D/NyCh7lNGGrI5Wg7KADQLVjfGgAAoAVEwobcM9dvzlj1i0vgzekrCy7eIm39PhwAKE9rd+a7deumD/PZ9Zbyc0I0EAwAgLo5B/bPPXNdycqYC6cVSDx0gT6MAta3Bi3DZwwA6D5mvrVEoTHfwiWov8f0tx2G+RKKwj0FHYfEQxfowyhgvjUAAEALGJgYY741AMijzfvW3bp109bRAQAAWqql64SATkHioQv0YRSwvjUAAEAznAP7e0wb1dL1rUGnIPHQBfowCpgTAgAA0AybN7poOwQAeDVgDT4AAAAAANVAbg0AAAAAoBpay627du2qrUMDAACAvkHioQv0YRS0llvrwwKHAAAAoCOQeOgCfRgFzAkBAAAAAFAN3LcGAACAtg+Jhy7Qh1HQWm7t7e2trUMDAACAvkHioQv0YRQwJwQAAAAAQDWQWwMAAAAAqAZyawAAAAAA1cD61gAAAND2IfHQBfowClgnBABUr7KysrCwUBeaUmEkOqLtnRGAZiDx0AX6MAqYEwIAkiIiIng83vXr1ymKys7OZssXLVpEUdTNmzebbaFv37737t0jhGRmZlIUVVVV1epg2Kays7MpiiovL9fk7uJ4PB71DyMjI2dn58WLFzc1NbW6wdZhz0jeMAEAgBbhvjUASDL+B/OYKaytrT148OB77723ZcuWZlsoKSlRVTBsU7a2ttHR0ebm5prcXUJUVFRlZSVz53j37t379u3bsWPHv2mwFdgzkjlMACAPEg9doA+jgPWtAUBS586dO3To0LlzZysrKwcHB6bwyJEjHTp0WL58eWxsbG5uLlOYnp5OUVRdXR3zdOTIkRs2bBg3blxRUdGUKVP27t3LlO/evbt9+/Y8Hm/GjBkNDQ2EkAcPHvj7+1tbW3fq1CkiIoIQkpmZyefz161b5+vr6+LiwtQUb6qkpCQ4OLi6upoQcvPmzX79+llYWHh6eh44cIA5SkxMjK+vr42NDZ/PDwkJqaurk7d7YmLigAEDrKysOnbs+OOPP9I0LfPo0j3D4XB4PB6Px7OxsQkMDAwICLh9+zazSfqMCCFxcXHdu3e3sbF55513Jk6cuGHDBpk9JnN3mqaXLl3q7OxsZ2c3ZMiQ5ORkQoj4GckcJgCQB4mHLtCLUaC1RIuHBg04QvqosBpoWG1t7bVr12iavnjxIlvYp0+fiIgImqYDAwO/+uorpjAtLY0QUltbyzwdMWLE+vXraZp2cHCIj4+naTojI4MQMm7cuJKSkocPH9ra2kZGRlZUVDg6Oq5evVooFKakpLi4uJw5c4apGRYWJhKJioqKnJ2dDx8+LN7UixcvCCFlZWUlJSXW1tY//PCDUCj8/fffuVzunTt3MjIyTExMLl26xBzUycnpp59+krl7VlYWl8vdtm2bUCj8888/nZ2d9+zZI+/o4szNzU+cOME+vXr1qo2NzY4dO2ialnlG2dnZXC732LFjNE0fPXqUELJ+/XqZPSZz9/Pnz7dv3764uLixsfHTTz8dPnw4swt7RjKHCbQI1z0dh8RDF+jDKGC+NQBI4nA4/fv3J4QMGzaMKUlOTn7y5MmUKVMIIQsXLgwPD2fvvCpj06ZNNjY2Xbp0GTBgwNOnT0+fPm1iYvL1118bGxv36NFj/vz5u3fvZmouWLCAoiiBQNCnTx8mDZX266+/2traLl682NjYuG/fvjdu3PD09HR2dk5NTR06dOjLly+Li4vt7e3z8vJk7h4TE9OlS5cFCxYYGxv36tUrLCxs3759Sh49JCSEz+fz+XwzM7PJkycvXLhw7ty5hBCZZ/TLL7907tw5ODiYEDJx4kSmS2WSuTufzy8oKIiIiHj8+PH69evj4uIk9pIeJgAA0DojbQcAAK+AnTt3VlVVubu7M09LSkoOHz48e/ZsiWo0Tcvc3dbWlnlgamra2NiYlZWVm5vL5/OZwqampk6dOjGPBQIB88DQ0FAkEslsLT8/39XVlX3as2dP5tAHDx7cu3evgYHB66+/XlVVJS+YgoICDw8P9mn79u2fP3+u5NF/+OGHgICAgoKCRYsWeXh4fPnll4aGhoQQmWdUVFTk4uLC7uvl5SXdIBOkzN39/PwiIyO3bdu2YsUKR0fHNWvWhISEyDwjAADQHVrLrfVhgUOAtqGysvLw4cMnTpxgslhCyPbt27ds2TJ79mwDAwNCSENDA4fDIWJfs6MoSkGDLi4uXbp0YRa7IIQUFhY2NTXV19fLrCzdlKurq/iyGDt37vT29s7KygoPD09MTPT09CSEsDeJpXd3d3e/ePEi+/TZs2eOjo4KohVnb2/v4eHh4eFx4cIFX1/f0NDQY8eOyTujuLi46Ohodt+cnBxvb2+ZPSZz96ysLC8vr4SEhJqamsjIyOnTpw8fPtze3l5x3wKAPEg8dIE+jALWCQGAZvz888/29vaBgYGu/5g/f/6DBw+uXLni5OTE4/GYKSI///xzSkoKs4upqWlaWpq8pfeCgoLy8vI2b97c0NCQk5MTEBCwefNmeUeXbmrkyJHl5eXbt29vbGy8efPmsmXLzM3Ny8vLORyOra0tTdNRUVFJSUlCoVDm7uPHj09PT9++fXtDQ0NKSsqmTZumT5/e0j6xsrI6cuTIyZMnw8PD5Z3R2LFji4uLt23b1tjYePLkyUuXLhFCZPaYzN0TExMDAwPT0tK4XK5AIDAzM+Nyuc32LQDIg8RDF+jDKGC+NQA0Izw8XGI2gru7u7+//+bNm83MzHbu3Ll7925bW9tz584xE7IJITNnzvzkk082btwos0EbG5v4+PhTp045ODj4+PgMGjRo9erV8o4u3RSfzz9//vyRI0dsbW1DQ0N3797du3fvWbNm+fj4eHp6enh4HDlyJDQ09MGDBzJ3d3R0PH/+fFRUlEAgGD169EcfffTRRx+1olt69+69atWqJUuWpKWlyTwjS0vLuLi4I0eO2NnZ7du3z9fXlxAis8dk7j5lypTZs2cPHjyYx+OtXr06NjaWx+M127cAAKBdlLwpieqWmprarVs3rRwaNOAo5TeJbv4XRpSsBtAGjBw50t/fPywsTNuBgLrguqfjkHjoAn0YBaxvDQAAAG0fEg9doA+jgDkhAAAAAACqgTX4AAA04fz589oOAQAA1A73rQEAAAAAVENrubU+LHAIAAAAOgKJhy7Qh1HA+tYAIFtlZWVhYaF2W1C+KRUeS7t080R0MyqWjocHOgKJhy7Qh1HAnBBoI3755Zfu3btbWFh4eXnt2LGDKUxLSxsyZIi5ubmXl9fp06eZwqtXr/bt29fCwsLd3X3VqlUaXoYyOzuboqjy8nKJ8pEjR27YsEGTkTSrb9++7C8FEkIiIiJaun4c20JmZiZFUdI/d/Lbb7/5+fnxeDx3d/fly5c3NTUpGUwrKiiwb98+Nzc3a2vrxYsXt/r1wIygvPFV3r85ESL/BSaBGU3FlcW3slEp3iU9PZ2iqLq6Ouap8h3L7ti6DlTcaa/Qmw4A2gDct4a2ICMjY+LEiRs2bKisrDx+/HhYWNjvv//e1NQ0ZsyYt956q6SkZMeOHVOmTHny5ElxcfHo0aPnzJlTWlp6/vz5AwcObN++XZOh2traRkdHm5uba/KgrcP+gDnj1KlTY8aM+TctSMjPzw8KCpo8eXJZWdnZs2cPHjyo4PdQFDelTAV5srKy5syZ88svvyQnJ0dERDC/nthq/358W30iLQqAGU3FlcW3slEpf4Kt69jWdaDiTnuF3nSgVkg8dIFejAKtJVo8NGjAEdJHhdWUUVpayjy4evWqhYVFamrq9evXeTyeUChkEvqoLQAAIABJREFUykNDQz/99NO7d+/OnDmT3evTTz+dOnUqTdM+Pj5Lly6VbvbGjRv9+/e3tLTs0KHDli1bRCJRRkYGl8tdtmzZgAEDunbtunz5cpFIRNP0/fv3hw0bxufzO3bsuGfPHpqmMzIyrKysvvvuuzfeeMPZ2Xn69OlCofDFixeEkLKyMpqmz507161bNy6XGxwc/NZbb61fv17i6ElJSW+++SaPx2vfvv3+/fsVhCR9IJmFMuOUeaCxY8caGBgIBIKIiAiapqurq93c3BobG2majo6OfuONN6ytra2srKZOnVpbW5uWlkYIqa2tZVobMWLE+vXrxVvIyMgghGzcuNHDw8Pc3JwJ5tatW7NmzWJPdunSpWPGjBGJRJ9//rmTk5NAIBg8ePDdu3elg5EOQKKC9DnGx8dLX/0qKytpms7Pzzc0NHz8+HFNTY2lpSVzRJqm09LSbG1t58yZY2FhsXPnTpn9Jj2C7Pgqs3uz3S5NZleLH+urr75iAlBwyuxostEqfq2KRyX+Alb8SpDXsTJPnN1RvH0l31PNdpriN52CjmopzV/3oEWQeOgCfRgF5NagFlr5jKmoqLCwsCCELFmyhKbpPXv2+Pj4sFu//fbbgIAA8fpCobBr165btmyhafrKlSupqakSDWZlZXG53G3btgmFwj///NPZ2XnPnj1Mmsj8H/fLly979Oixa9euiooKR0fH1atXC4XClJQUFxeXM2fOMDXDwsJEIlFRUZGzs/Phw4fZj/kXL16YmZkdOnSooaEhMjKSECKRW5eUlFhbW//www9CofD333/ncrl37txREJLEgWQWyoxT5oFomnZwcIiPj2eCOXHixIwZM2iazsjIMDExuXTpEvPYycnpp59+kpnwibfABDNu3LiSkpKHDx/a2tpGRkZKdLWHh0dkZOT58+fbt29fXFzc2Nj46aefDh8+nKkg3pR0AOIVZJ6jUCgsksIefeXKld27dx8xYsTevXvZQuakPv744/z8/IyMDOk2ZY6geG6teHdlul2avNyaPVZKSgoTgIJTZkdTPLdW8FoVj0p8l2ZfCTI7VuaJS+fWyr+nmu00xW86xa+NFkFureOQeOgCfRgFzLeGtoPH45WXl9+/f//QoUNbt26tqqoS/19gc3Pz6upq9mldXd3kyZOdnJw++OADQsigQYOkv7wcExPTpUuXBQsWGBsb9+rVKywsbN++fcym5cuXE0IsLCzmzJlz+PDh06dPm5iYfP3118bGxj169Jg/f/7u3buZmgsWLKAoSiAQ9OnTh0kgGCdOnOjWrdvUqVONjIxCQ0P9/Pwkjv7rr7/a2touXrzY2Ni4b9++N27c8PT0VBCSzANJFMqMU+aBJIJhJ4Q4OzunpqYOHTr05cuXxcXF9vb2eXl5Sg7Qpk2bbGxsunTpMmDAgKdPn7LlDx8+7Nu378cffxwaGsrn8wsKCiIiIh4/frx+/fq4uDiJRpoNQOY5GhsbC6Sw/bx//35zc/PU1NSAgICysrKCggK2tQULFjg4ONy4cUO6zWZHUPHuynR7izDHsrGxYZ4qOGV503vkvVZlanYg5HWskifeivdUs2QOmYKOAgBoBfx2DLQdBgYGhBBvb+/3338/Ojo6NDS0pqaG3VpTU8Pc1SaEZGdnjx8/3tPT88yZMyYmJvIaLCgo8PDwYJ+2b9/++fPnhBAOh8NmMAKBID8/PysrKzc3l8/nM4VNTU2dOnViKzAPDA0NRSIR21peXp6rq6t444SQRYsWsfO/16xZI16hZ8+eCkKSdyCJQplx5ufnSx9InEgkunTp0tatWwkhxsbGBw8e3Lt3r4GBweuvv15VVUVLfUdNuoRha2vLPDA1NW1sbGTLP/7444ULF37yySeEED8/v8jIyG3btq1YscLR0XHNmjUhISHijTQbgMxz/O2336SzyZycHOaVEB8f/+abb44fP/7tt9/28fHJyMi4cuUKU8fNzU1emzJHUIKC3ZvtdmWInztzLJa8UzYzM2NHU4K816pMigfi8ePH8jpW5okXFxdLtN+K91SzZA6ZvI7C/GwAaB2t5db6sMAhaMz58+eXLVuWnJzMPK2pqbG2tu7atWtaWlpTU5OhoSEh5OHDh97e3oSQ5OTkd955Z+HChV988YXiZt3d3S9evMg+ffbsmaOjIyGkrq6usLDQ3t6eEJKenu7m5ubi4tKlSxd2pYLCwsKmpqb6+noFjbu4uPz666/s05ycHB8fn2XLls2ZM4cpefDgQXZ2Nlth586d3t7e8kJSksw4f/vtN+kDDRgwgKIopiQxMbF79+5MqnHo0KHw8PDExETmXmP//v3JP3/VNDQ0cDgcIvbFMrYFxSwsLN59913mcVZWlpeXV0JCQk1NTWRk5PTp04cPH25vb882JTMA8WPJPEdra2v25cHicrlJSUkCgYBpJCoqyt/f/8CBAydPnmTrMM3KbDM2NlZ6BCUOoWD3ZrtdJnldTaR628/PT+Yp37hxgx1N5UlHJW8gGAo61tXVVfrEnZycJNpv0XtKyVeazDedvI5SpkF4tSDx0AX6MApYJwTaAl9f35ycnPXr1zc0NFy5ciUiImLOnDlvvvmmg4PDihUrhELhpUuXTpw4ERoampeXFxAQsHDhwtDQ0Ozs7OzsbCY7uXz58oMHDySaHT9+fHp6+vbt2xsaGlJSUjZt2jR9+nRm09KlS2tra+/du7dt27aZM2cGBQXl5eVt3ry5oaEhJycnICBg8+bNimMeP358RkbGrl27Ghsbjx8/fv36dUKIk5OT9z9GjhxZXl6+ffv2xsbGmzdvLlu2zNzcXEFIypAZp8wDEUJMTU3T0tKqqqrEpxCUl5dzOBxbW1uapqOiopKSkoRCoZOTE4/HCw8Pr6ur+/nnn5kpv+ItKI4qJCTEysqKeZyYmBgYGJiWlsblcgUCgZmZGZPlsE3JDEC8gsxz5HA4HlIoinrrrbeKiorWrVtXUVHx+++/P3/+3MbGZt26dRLrTshsU+YIqrDbZTYlr6ulyTvlVqz3IjMqeQPBUNCx8k5cmU5TPjyZZA6ZvI5qaReB7kPioQv0YhS0N9Ub2jK1fqenMu1FyR8PJQr/+OOPfv368Xi8rl27Ml9vomk6LS1t2LBhlpaWXl5eR44coWl61apVEm+Bd955h5a/TkhiYuJbb71laWnp7u7+3XffMYtyEEI+++wzBwcHFxeXTZs2MTXv3r07ZMgQa2trBweHjz/+uL6+nqnJLjgwfvz4FStWiH8/7Nq1az179uRyucOHDx81apT0OiG3b99mlgTp2LEjE7+CkCQOJLNQZpzyDrRixQpTU9OVK1e+9tpreXl5TGFVVdW4ceNsbGzc3d1Hjx49c+bM4OBgmqYPHjzYsWNHLpc7derU0NBQ5lzYFiSCmTRp0ldffcWeJiEkOjqafbp8+XJnZ2dzc/MePXpcuHBBIhh5AbAV5J2jPBcvXvTx8TEzM/Py8tq5c2dBQUGfPn3i4+MlvpYns03pEZT4LqPi3RV3u7yApbta/FjiLzCZxEdT4ruMCl6rbFRsocyBEI9EXsfKPHGZ64Qo+Z5qttNa9Kb7N/BdRgCgaZqiNfvDGazU1NRu3bpp5dCgAUcpv0n0TVVVYzSUV+acupZ58FzBpT+6/d973ivn/LsYWykzM7N9+/aVlZU8Hk8rAYC60TSN25bq0OY7Vh3XPVAhJB66QB9GQWvzrb29vbWV1sOrRSRsyL+Q9CL60ovjCU01ddoOB9q+tp3/aRE6FrQLiYcu0IdRwDohoLvK7jzKjPw1KyquvqhM27EAaFRqaur48eOly2fMmNHsd3D1FjoNAHSB1uaEUJTWDg0aIP2fnkcpGav/ytTv2LeJE79stprbhKH9otcSQl5EXxKvj3KUoxzlmi93mzD0RcxlzAnRZUg8dIE+jAJya1ALmbl1Sz91FNy37rbifW3NtwYAkAnzrXUcEo//Z+/uw5q60r3xr6BBSEJJCEoISAMqLRJfWooglba2itQB7YBakYK2Haen9aXieB3tnCp6qPPohSK1UAWho6BCq9YZRZsWGGtrA5xWKx5w2oYpxIC8GQGhiAlh//7Yv8mTBwIiRvaG/f38tbOy9rrvvVev5HZ3ZcEGXJgF7G8N7CUJeFIS8OSM5HVYbw0AAA8JhQcbcGEWsL81sJ2dPV8eGRqUs31xXUHQkUS3ebMIfhEFAAAPCIUHG3BhFvBbRhgx+GInRfxCRfzCjqpaQ2s70+kAAAAA9Ibn1jDyiCZ7ujzjx3QWAAAwkqDwYAMuzAJjtbVSqWQqNAAAAHANCg824MIsMFZbAwAAAACMMqitAQAAAABsA7U1AAAAAIBtMFZbc2GDQwAAAGAJFB5swIVZwD4hAAAAMPqh8GADLswC1oQAAAAAANgGnlsDAADA6IfCgw24MAvY3xoAAABGPxQebMCFWcCaEAAAAAAA20BtDQAAAABgG6itAQBGtvb29qamJmZHGPxQNowFAMBC2N8aAMCK2tpaHo/X2traqz08PHzPnj2MpNSf4ODga9eumV9mZWVt2rRpaCPU1NTweLyOjo5eHS5evBgUFCQSiby8vLZu3WoymQaZzBA6ADwiKDzYgAuzgH1CAACskEqlJ06cEAqFTCdyf3q93vLlmTNnFi9e/DAj9NLQ0BAZGbl8+fKWlpZz587l5ubu3bt3aEMNpgPAI4LCgw24MAtYEwIAo4FarQ4NDXV2dp4yZcr+/fspiqqpqREKhe+9995zzz3n7++/bds2iqIIIRUVFfPmzZNIJL6+vllZWYSQmpoasVi8e/fuwMBADw+PlStXGo1GvV6/dOnS3377jRCiUqmUSqVQKFy2bFnfZ7qEkLKyspCQECcnJx8fn8OHDw+QUt9AVhut5mk1UFRUVHNzc0xMTHZ2NiGks7Pz6tWrISEhhJCTJ08GBga6uLiIxeLY2Niurq6qqioej9fV1UWPRj+D7zUCISQzM9Pb21skEtHJ6HS6JUuWJCQk8Pn8adOmLV++XK1WUxS1efNmuVw+fvz4uXPnXr16tW8yfRPo1aHvNRYVFfH6sHrPAQBYimJIRUUFU6FhGOSTWfdtGeSJAPel1WoFAkFaWprBYLhy5YpcLj906FB1dTUhZMOGDRRF3blzZ/r06QcPHmxra5PJZElJSQaDoby83MPDo6CggO65adOmnp6e5uZmuVx+/PhxnU5HCGlpadHpdI6OjseOHTMajTk5OYSQ5ORky+h6vV4ikezbt89gMJSUlAgEgsuXLw+QUq9AVhut5mk1EEVRbm5uhYWFdDKnT59euXIlRVHV1dX29vbFxcX0sbu7+5EjRzQaDSHk7t27dOcFCxbQ12IegU4mKipKr9dfv35dKpXm5OT0utUKhSInJ0elUnl7e9+6dau7u3vjxo3z58+nO1gO1TcByw5Wr9FgMDT38Yj+s7E5fMqxHAoPNuDCLGB/awAY8U6ePOnn57dmzRo+n//UU09t2rTpk08+od/aunUrIcTJyWn16tXHjx8/e/asvb39+++/z+fzp0+f/vbbb2dmZtI916xZw+PxXF1dZ82aRdegtNOnT/v7+69YsWLs2LFxcXFBQUG9op8/f14qlW7YsIHP5wcHB3/33Xc+Pj4DpGQ1UK9Gq3laDdQrGfOCELlcXllZ+eKLL965c+fWrVsTJkyor68f5P1MSUlxcXHx8/MLDQ3917/+ZW6/fv16cHDw+vXr4+LixGJxY2NjVlbWzz//nJyc/NVXX/Ua5L4JWL1GPp/v2scg0wYYGAoPNuDCLIxlOgEAgIfV2NioUCjML729vW/cuEEIcXBwcHFxoRtdXV0bGhq0Wu3NmzfFYjHdaDKZfH19zR3ogzFjxvT09JhHq6+v9/T0tBycEPLuu++mp6fTLTt37rTsMHPmzAFS6i9Qr0areTY0NPQNZKmnp6e4uPijjz4ihPD5/Nzc3OzsbDs7uxkzZnR0dFAU1at/3xaaVCqlD8aNG9fd3W1uX79+/dq1axMSEgghQUFBOTk5aWlpiYmJMpls586dsbGxloPcNwGr13jx4sW+i8Xr6upGxMJ3AACC2hoARgEvL6+ioiLzy19//VUmkxFCurq6mpqaJkyYQAipqqqaOHGih4eHn5+feZ+KpqYmk8l07969AQb38PA4f/68+WVdXV1AQMCWLVtWr15Nt1RUVNTW1po7HDhwQKlU9pfSIFnN8+LFi30DhYaG8ng8ukWtVk+bNo0uQ48dO5aRkaFWq+ln23PmzCGE2NnZEUKMRqODgwOx+FmheYSBOTk5vfLKK/SxVqudNGnShQsXOjs7c3Jy4uPj58+fP2HCBPNQVhOwjGX1GiUSCb1025JAIBjcbQMAYB5+ywgAI150dHRVVVV6errRaCwvL09JSYmPj6ff2rx58927d69du5aWlrZq1arIyMj6+vrU1FSj0VhXVxcWFpaamnrfwaurqw8ePNjd3X3q1KlLly4RQtzd3ZX/Fh4e3tramp6e3t3dXVZWtmXLFqFQOEBKg2E1T6uBCCHjxo3TaDQdHR2WO4S0trY6ODhIpVKKovLy8kpLSw0Gg7u7u0gkysjI6OrqOnr0aHl5Od3ZPMLAWcXGxjo7O9PHarU6IiJCo9EIBAJXV1dHR0e6AjYPZTUByw5Wr9HBwUHRxyBLfwAANsD+1gAw4slkMpVKlZeX5+rqumjRonXr1q1bt45+a/z48d7e3gsXLty8efNrr73m4uJSWFh45swZNze3gICA559/Pikp6b6Dnzt3LiMjw9nZOSMjIzw8vFcHsVisUqny8/OlUmlcXFxmZubTTz89QEqDYTVPq4EIIatWrUpISNi7d+/Zs2cjIyPpEV5//fWAgAAfHx+FQpGfnx8XF1dRUeHo6HjgwIHMzEypVPrFF1/ExMTQnc0jDJzV0qVLS0pK6OOYmJg33njjhRdeEIlESUlJn3/+uUgkshzKagKWHYYwFwAPA4UHG3BhFnj9rbcDeBif8oJepcoGbhnkiQBDU1NT4+3t3d7eTtd8AI8aPuWGx+0f/mkvdhJN9rx/VwAmYE0IAAAAjBg3Cy6dmxL91TMrf/nw03vNLUynA9Ab/i4jAAAAjDAtl3/6cUPKGc/IbyP/VJNz3tTZdd9TUHiwARdmgbF9QpRKJZajcM2nvN4bAwM8OgqFAh8yAKNbj8F4s+DSzYJLV95N8Yico4hf6PZSIOnnx68oPNiAC7PA2HprHg9LvUezh1l3qDtRrF7250eTFwAAwP+Fte/DjAvlH/a3BtaZuPQlfNgBwIiD3zIOj4rthyp3ZPVq5IudLJ9bD34uHk2OwGmorQEAAGBEsrPny8KCJi59aeKSF8cIHJhOB4AQBmtrLmxwCAAAAI+CJOBJRdzCx1eEjRsvYToXeABcKP8Yq6258ENRAAAAsC15xBzFay9jf+sRigvlH9aEAAAAwIjh8owf0ykADAT7WwMAAADAcOBC+cdYba1UKpkKDQAAAADDjwvlH/7mOQAAAACAbaC2BgAAAACwDdTWAAAAAAC2wVhtzYUNDgEAAADAjAvlH/YJAQAAAIDhwIXyD2tCAAAAAABsA8+tAQAAAGA4cKH8w/7WAAAAADAcuFD+YU0IAAAAAIBtoLYGAAAAALAN1NYAACzyzTffBAcHOzk5eXl57dixg6IoQohGo5k7d65QKJw0adLZs2fpnlYbAQCAWdjfGgCALW7durVo0aLVq1ffvn1bpVIdPnw4PT3dZDItXrz42Wef1ev1H3/8cUxMzC+//GK1ken0AQDugwvlH/YJAQBgi9ra2t///vdvvvkmn8+fOnVqVFRUSUlJaWmpTqdLTEx0cHBYsGBBVFRURkaG1Uam0wcAuA8ulH9YEwIAwBYzZ87861//Sh8bjUaVShUUFPTPf/7ziSee4PP5dLufn19FRYXVRmaSBgAAC3huDQDAOl1dXcuXL3d3d/+P//iPjo4OoVBofksoFP72229WG5nIFADgAXCh/MP+1gAA7FJbW/v888/b29sXFBTY29sLhcLOzk7zu52dnU5OTlYbmUgWAOABcKH8w5oQAAAWuXr1alBQ0CuvvJKXl+fg4EAImTp1qkajMZlMdIfr168rlUqrjYwlDQAA/4baGgCALerr68PCwtauXRsXF1dbW1tbW6vX62fPnu3m5paYmGgwGIqLi0+fPh0XF2e1ken0AQAAtTWwW0dV7e0f/sl0FgDD5NChQ83NzX/+858n/tvKlSvt7OzOnTtXWlo6fvz4t956Kysra/r06VYbmU4fAADIWKYCc2GDQxgyY2t73Zlva3K/aCz+3n/bmy7P+DGdEcBw2LZt27Zt2/q2T548uaioaDCNAABsxoXyj7Hamgs/FIUH1WMwNnxZqjtRrDt1wdTZxXQ6AAAAYEtcKP8Yq60BLLVc/qkm57w276t7zS1M5wIAAAAwRDyKohgJXFlZ6e/vz0hoGAaf8oJepcoG022QA5pH63UK2tGOdrSPrPa+n3vszHNEtw/hywWGBxfKP8Zqax6PsdAwDAZfW9PdBnhu7Z/4B+X21Y8kSwAA23nQzz0YZig82IALs4A1IcAKkoAnJQFPzkheh/XWAAAAMHJhDz5gETt7vjwyNChn++K6gqAjiW7zZhEej+mkAAAAAAYLz62BjfhiJ0X8QkX8wo6qWkNrO9PpAAAAAAwK9rcGVhNN9mQ6BQAAGA1QeLABF2aBsTUhXNjgEAAAAFgChQcbcGEWsN4aAAAAAMA28NwaAAAARj8UHmzAhVlgrLZWKpVMhQYAAACuQeHBBlyYBawJAQAAAACwDdTWAAAAAAC2gdoaAAAAAMA2GKutubDBIQAAALAECg824MIsYJ8QAAAAGP1QeLABF2YBa0IAAAAAAGwDz60BAABg9EPhwQZcmAXsb92v9vb2pqYmprN4WKPjKgAAAB4S+wsPLuDCLGBNSL+Cg4OvXbvWtz0tLU0sFjs5Od26dWuYUwoPD9+zZ88DnWK+itraWh6P19raarVbVVUVj8fr6uqyQZYAAAAAXIXaul96vd5qe0ZGxqZNm6qqqlxdXYc5pSEwX4VUKj1x4oRQKGQ2HwAAAIBRbCTV1jU1NUKh8L333nvuuef8/f23bdtGURRd4/7xj3987LHHDh48qFarQ0NDnZ2dp0yZsn//foqiampqpFLpjh07lEqlm5vbf//3f3/44YfTp0+fMGFCYmJif8NGRUU1NzfHxMRkZ2db5jB79uyffvpp375927ZtI4T0DdcrH8tzy8rKQkJCnJycfHx8Dh8+TAjp1bmiomLevHkSicTX1zcrK4s+S6VSKZVKoVC4bNmyjo4OurFvz5qaGrFYvHv37sDAQA8Pj5UrVxqNRsur0Ov1S5cu/e233wghJ0+eDAwMdHFxEYvFsbGxlo+rKYravHmzXC4fP3783Llzr169+sjmEwAAAGDUoRgyderUBz2lurqaELJhwwaKou7cuTN9+vSDBw9qNBpCyPr16xsaGn788UeBQJCWlmYwGK5cuSKXyw8dOkSf9ac//YmiqG+//ZYQ8sc//rGnp+enn36ys7OrqamxOixFUW5uboWFhX3TeOKJJ06cOEFRlFar7RvOMh+9Xm8+S6/XSySSffv2GQyGkpISgUBw+fJly87V1dUymSwpKclgMJSXl3t4eBQUFOh0OkdHx2PHjhmNxpycHEJIcnJyW1tb3570VWzatKmnp6e5uVkulx8/ftzyKnQ6HSGkpaWlurra3t6+uLiYvqXu7u5HjhyhM7l7965KpfL29r5161Z3d/fGjRvnz58/pOml8sksG3YDAGA/fO6x3BAKD7A5LszCyNsnZOvWrYQQJyen1atXHz9+nG5cs2aNm5vbP/7xDz8/vzVr1vD5/KeeemrTpk2ffPIJ3eHdd98lhMyaNYsQ8oc//IHH4z3xxBPOzs5arXaAYQd28uTJ/sLR+bi4uJg7nz9/XiqVbtiwgc/nBwcHf/fddz4+Ppadv/vuO3t7+/fff5/P50+fPv3tt9/OzMw8ffq0v7//ihUrxo4dGxcXFxQURAg5e/Zs357moXg8nqur66xZs+hyuS+5XF5ZWfniiy/euXPn1q1bEyZMqK+vN78rFosbGxuzsrJ+/vnn5OTkr776ajC3AgAAgOW4sEMF+3FhFsYyncCDcXBwMBesrq6uDQ0N9PHEiRMJIY2NjQqFwtzZ29v7xo0b9LFEIiGE2NnZEUKcnJzoRjs7u56engGGHdgA4eh8LDU0NHh6eppfzpw5kxBC/xqS7qzVam/evCkWi+kOJpPJ19e3vr7e8ixvb+/+epqTpw/GjBlDX1pffD4/Nzc3Ozvbzs5uxowZHR0dFEWZ3w0KCsrJyUlLS0tMTJTJZDt37oyNjR3M3QAAAACAEfbcuqury7yjXFVVlbmE5fF4hBAvLy96aQTt119/lclkQx6WHnMAA4Tre66np2dtba355YEDB+gFKubOHh4efn5+rf/2r3/9q6CgwMPDwzJEXV1dfz37S7JvJseOHcvIyPjmm29u3Lhx9uzZXrdIq9VOmjTpwoULt2/f3rJlS3x8PLbwAwCAUYALT0zZjwuzMPL2t968efPdu3evXbuWlpa2atUqy7eio6OrqqrS09ONRmN5eXlKSkp8fPyQhx03bpxGozH/fLCvBwoXHh7e2tqanp7e3d1dVla2ZcuWXlt2REZG1tfXp6amGo3Gurq6sLCw1NTU6Ojo6urqgwcPdnd3nzp16tKlS/317C9u36tobW11cHCQSqUUReXl5ZWWlhoMBvO7arU6IiJCo9EIBAJXV1dHR0eBQDCoOwgAAMBiXNhZmf24MAvs3Seko6r29g//7Ns+fvx4b2/vhQsXbt68+bXXXrN8SyaTqVSqvLw8V1fXRYsWrVu3bt26dYMM13fYVatWJSQk7N27t79THiicWCxWqVT5+flSqTQuLi4zM/Ppp5+27ODi4lK1tusJAAAgAElEQVRYWHjmzBk3N7eAgIDnn38+KSlJJpOdO3cuIyPD2dk5IyMjPDy8v579xe17Fa+//npAQICPj49CocjPz4+Li6uoqDC/GxMT88Ybb7zwwgsikSgpKenzzz8XiUSDu4UAAAAAXMezXGs7rIF51kMbW9vrznxbk/tFY/H3/tveVG5fbX6rpqbG29u7vb3dttXeIxqW4z7lBb1KldmqGwAA++Fzj+X6KzxgOHFhFtjyW8Yeg7Hhy1LdiWLdqQumTvx1QAAAAAAYeRirradOnUoftFz+qSbnvDbvq3vNLUwlAwAAAKObufAABnFhFhirrVXb93/KCxq4T+WOrDuVv4ac+D+EEN2J4rJlf84ns845vUQImbjkRXO7etmfzacMrZ2iKN2J4nMPPQ7aze0AAACswoUdKtiPC7PA/KqXAZ5b+yf+wXK9NYwg9/2HkxnWHQLA6ID11gBAGHxuXVlZ6e/vTwiRBDwpCXhyRvI6rLceTfp+c5hnHAAAYPjha4gNuDALbNnf2s6eL48MDcrZvriuIOhIotu8WeR+f7oFRhYubGkJAACsha8hNuDCLLBlnxAzvthJEb9QEb+wo6rW0NrOdDoAAAAAAIPFutraTDTZk+kUAAAAAAAeAHv/LiMAAAAAwMjCWG3NhQ0OwRJmHAAAGISvITbgwiwwVltzYYNDsIQZBwAABuFriA24MAtYEwIAAAAAYBt4bg3DBDMOAAAMwtcQG3BhFtiyvzWMephxAABgEL6G2IALs4A1IQAAAAAAtoHaGgAAAADANlBbAwAAAADYBva3hmGCGQcAAAbha4gNuDAL2CcEhglmHAAAGISvITbgwixwek1Ie3t7U1MT01k8lFFwCQAAAACjBqefWwcHB1+7do3pLP6v8PDwPXv2PNAp5kuora3l8Xitra1Wu1VVVfF4vK6uLhtkOVRsmHEAAOAsfA2xARdmgdP7W+v1eqZTeFjmS5BKpSdOnBAKhczmMwA2zDgAAHAWvobYgAuzMArXhFRUVMybN08ikfj6+mZlZRFCampqxGLx7t27AwMDPTw8Vq5caTQao6KimpubY2JisrOzrZ5VVVXl6ur6xz/+8bHHHjtw4MDmzZvlcvn48ePnzp179erVvnHLyspCQkKcnJx8fHwOHz7ca4SDBw/2DUEIUalUSqVSKBQuW7aso6NjyJeg1+uXLl3622+/EUJOnjwZGBjo4uIiFotjY2MtH1dTFHXfCwEAAACAIaIY8ohCt7W1yWSypKQkg8FQXl7u4eFRUFBQXV1NCNm0aVNPT09zc7NcLj9+/DhFUW5uboWFhf2dpdFoCCHr169vaGg4fvy4t7f3rVu3uru7N27cOH/+/F5x9Xq9RCLZt2+fwWAoKSkRCASXL1+2HKG6urpvCJ1O5+joeOzYMaPRmJOTQwhJTk4e2iXodDpCSEtLS3V1tb29fXFxMUVR1dXV7u7uR44coTO5e/euSqUa+EIeHQb/YwMAGAb5ZJYNu4HN4WuIDbgwC6PtufXZs2ft7e3ff/99Pp8/ffr0t99+OzMzk35rzZo1PB7P1dV11qxZdK05yLPc3Nx8fHwaGxuzsrJ+/vnn5OTkr776qlfc8+fPS6XSDRs28Pn84ODg7777zsfHx3KE7777rm+I06dP+/v7r1ixYuzYsXFxcUFBQUO+BDO5XF5ZWfniiy/euXPn1q1bEyZMqK+vN78rFosHvhAAAAAAGLKxTAV+RBscarXamzdvisVi+qXJZPL19aWPXV1d6YMxY8b09PQM8qyJEycSQoKCgnJyctLS0hITE2Uy2c6dO2NjYy1HaGho8PT0NL+cOXMmIeTWrVvmEayGqK+vtzzL29t7yJdgxufzc3Nzs7Oz7ezsZsyY0dHRQVGU+d37Xsijw4UtLQEAgLXwNcQGXJgFxmrrR/RDUQ8PDz8/P/PuH01NTSaT6d69e1Y783i8Ac6i1y7TfbRa7aRJky5cuNDZ2ZmTkxMfHz9//vwJEyaYh/L09KytrTW/PHDggFKpdHd3N49gNcTnn39+/vx581l1dXUBAQFDuwSzY8eOZWRkqNVq+sH5nDlzLN+974U8Olz4aTAAALAWvobYgAuzMNrWhERGRtbX16emphqNxrq6urCwsNTU1P46jxs3TqPRdHR03PcstVodERGh0WgEAoGrq6ujo6NAILDsEB4e3tramp6e3t3dXVZWtmXLll5bdlgNER0dXV1dffDgwe7u7lOnTl26dGnIl2BuaW1tdXBwkEqlFEXl5eWVlpYaDIbBXwgAAAAADNlo29/axcWlsLDwzJkzbm5uAQEBzz//fFJSUn+dV61alZCQsHfv3vueFRMT88Ybb7zwwgsikSgpKenzzz8XiUSWHcRisUqlys/Pl0qlcXFxmZmZTz/99H0Tk8lk586dy8jIcHZ2zsjICA8PH/IlmFtef/31gIAAHx8fhUKRn58fFxdXUVEx+At5dLjwT1UAAGAtfA2xARdmgWe5GHdYA/MYCw0P6fYP/7QXO4kme96/qwXMOACMbp/ygl6lymzVDWwOX0NswIVZGG1rQmAY3Cy4dG5K9FfPrPzlw0/vNbcwnQ4AAAAAWzD2W0YY6Vou/9Ry+afy//xIFhY0celLE5e8OEbgwHRSAAAAAEzCc2t4KD0G482CS2Urd/zdI6Isfntj0f+Q0f7/egAAAAD6w9hz6yWe0z/lBTEVHWzO2Npek/tFTe4XhBB5xJybBZd6dcgns6zOONYdAgDAMODCzsrsx4VZYKy2PqErZyo0PKSK7Ycqd2T1auSLnTwi5yjiF7q9FEh4vMH/pufR5AgAAPD/4MIOFezHhVnAemt4KHb2fKy3BgAAAKAx+XcZ/f39mYoOD08S8KQibuHjK8LGjZcwnQsAAMB9oPBgAy7MAmO1tVKpHPUbHI5W8og5itdeftD9rQEAABiEwoMNuDALWBMCD8zlGT+mUwAAAABgI+zBBwAAAABgG6itAQAAAABsg7HamgsbHAIAAABLoPBgAy7MAmO1NRc2OAQAAACWQOHBBlyYBawJAQAAAACwDTy3BgAAgNEPhQcbcGEWGKutlUolU6EBAACAa1B4sAEXZgFrQgAAAAAAbAO1NQAAAACAbaC2BgAAAACwDexvDQAAAKMfCg824MIsYJ8QAIBHpb29vampieksCLFpJg85FHvuCXANCg824MIsYE0IAIweWVlZmzZtqqqq4vF4XV1dgz+xtraWx+O1trbaNp/g4OBr167ZfHz6MoeWSU1NDY/H6+joGHL0h7wo8+n9uXjxYlBQkEgk8vLy2rp1q8lkGnKqAADDD8+tAWD0OHPmzOLFi4dwolQqPXHihFAotG0+er3+UYw/hMs0Z/LwHvKiBs6koaEhMjJy+fLlLS0t586dy83N3bt379BzBbCAwoMNuDAL2N8aAEaJzs7Oq1evhoSEWDaq1erQ0FBnZ+cpU6bs37+foihCyFdffTVt2jSxWBwZGRkTE/P+++/r9fqlS5f+9ttvNTU1YrF49+7dgYGBHh4eK1euNBqNvQKdPHkyMDDQxcVFLBbHxsbSD8jLyspCQkKcnJx8fHwOHz5MCImKimpubo6JicnOzjaPbzUlq0Epitq8ebNcLh8/fvzcuXOvXr3a9zL7ZtLrmX14ePiePXssM6HbMzMzvb29RSKR+QIrKirmzZsnkUh8fX2zsrIIIVaz6u+i+l6+1fR6ZdI3qE6nW7JkSUJCAp/PnzZt2vLly9VqtY3/QwGuQuHBBpyYBYohDIaGYZBPZtmwG8BgnD59euXKlRRFaTQaQsjdu3e1Wq1AIEhLSzMYDFeuXJHL5YcOHdLpdAKB4K9//avRaMzPz+fxeP/1X/+l0+kIIS0tLdXV1YSQTZs29fT0NDc3y+Xy48ePW0aprq62t7cvLi6mj93d3Y8cOaLX6yUSyb59+wwGQ0lJiUAguHz5MkVRbm5uhYWFFEWZx7eaktWgKpXK29v71q1b3d3dGzdunD9/fq/LtJqJ+drpzgsWLEhOTrbMhI4VFRWl1+uvX78ulUpzcnLa2tpkMllSUpLBYCgvL/fw8CgoKOjvVvS9KKuXbzU9y9OtBrW81VqtVqFQ5OTkPKL/YGwOn3ssh8KDDbgwC1hvDQCjRN+VEidPnvTz81uzZg2fz3/qqac2bdr0ySefnDx5UqlUrlq1auzYsa+++uqLL77Yd6g1a9bweDxXV9dZs2bR1aqZXC6vrKx88cUX79y5c+vWrQkTJtTX158/f14qlW7YsIHP5wcHB3/33Xc+Pj5Wk7SaktWgYrG4sbExKyvr559/Tk5O/uqrr3pdptVMBnmvUlJSXFxc/Pz8QkND//Wvf509e9be3v7999/n8/nTp09/++23MzMz73srzKxe/n3TGyAoIeT69evBwcHr16+Pi4sb5EUBALDBWKYTAACwgZ6enuLi4o8++siysbGxUaFQmF96e3vfuHGjtrbWy8vL3GjZwczV1ZU+GDNmTE9Pz7vvvpuenk63dHV15ebmZmdn29nZzZgxo6Ojg6KohoYGT09P8+kzZ87sL0+rKVkNGhQUlJOTk5aWlpiYKJPJdu7cGRsba3mZfD6/bya9wvVtoUmlUvpg3Lhx3d3dWq325s2bYrGYbjSZTL6+vlazsjqa1cunKGrg9AYISghZv3792rVrExISrEYEAGAtxmprLmxwCADDRq1WT5s2rdfv6ry8vIqKiswvf/31V5lMNnHixG+//dbcqNPpZDLZwINv2bJl9erV9HF+fn5GRoZaraafTM+ZM4cQ4unpWVtba+5/4MABpVIZGhrK4/F6DWU1JatBtVrtpEmTLly40NnZmZOTEx8fP3/+/F9++cV8mceOHeubiZ2dHSHEaDQ6ODgQix8O9s3EkoeHh5+fn3n7jqamJpPJdO/ePaud+w5l9fK1Wm3f9CxPtxrUPIiTk9Mrr7wyQM4ADwqFBxtwYRawTwgAjAZWt86Ijo6uqqpKT083Go3l5eUpKSnx8fHLly+vrKzMzc01GAynTp2yrHT74+7urvy31tZWBwcHqVRKUVReXl5paanBYAgPD29tbU1PT+/u7i4rK9uyZQtd/o4bN06j0VhueGc1JatB1Wp1RESERqMRCASurq6Ojo4CgcDyMq1m4u7uLhKJMjIyurq6jh49Wl5eTnfum4mlyMjI+vr61NRUo9FYV1cXFhaWmpra393oO5TVy7eanuXpAweNjY11dna+79QADB4KDzbgwixgvTUAjAZnz56NjIzs1SiTyVQqVV5enqur66JFi9atW7du3To3N7fPPvvsgw8+kEqlR48eDQ0Ntbe3H3yg119/PSAgwMfHR6FQ5Ofnx8XFVVRUiMVilUqVn58vlUrj4uIyMzOffvppQsiqVasSEhIsd5GzmpLVQDExMW+88cYLL7wgEomSkpI+//xzkUhkeZlWM3F0dDxw4EBmZqZUKv3iiy9iYmLozn0zseTi4lJYWHjmzBk3N7eAgIDnn38+KSmpvzvQdyirl281PcvTBw66dOnSkpKSQU4KwO0f/tlRVXv/fgCPHq+/1XiPWmVlpb+/PyOhYRh8ygt6lSqzVTcAG7p582ZjY+NTTz1Fv3zppZeio6PfeecdZrOCUQCfewyq2H6ockeWJOBJRdzCx1eEjRsv6dsHhQcbcGEWsL81AHBLS0tLaGjolStXenp6vvjii5KSknnz5jGdFADYQMvln37ckHLGM/LbyD/V5Jw3df4/f5wVhQcbcGEWsE8IAHCLv7//3r17lyxZ0tDQMGnSpOPHj1tuTwEAI12PwXiz4NLNgktX3k3xiJyjiF/o9lIgGfDnvAA2xNiaEB6PsdAwDAb//0aHIRkAAIDl5H9QeDCOC+UfnlsDw7DuEABGB6y3ZhC93rpXI1/sZPncejkeXcOwwP7WAAAAMHrY2fNlYUETl740ccmLYwQO5nYUHmzAhVlgrLbmwgaHAAAAMGzuu0/I8KcEvXBhFrAmBAAAAEY2ecQcxWsviyZ7Mp0IAP4uIwAAAIxwLs/43bewRuHBBlyYBexvDQAAAKMfCg824MIs4G+eAwAAAADYBmprAAAAAADbQG0NAAAAAGAbjNXWXNjgEAAAAFgChQcbcGEWsE8IAAAAjH4oPNiAC7OANSEAAAAAALaB59YAAAAw+qHwYAMuzAL2twYAAIDRD4UHG3BhFrAmBAAAAADANlBbAwAAAADYBmprAAAr2tvbm5qa2DCUDTMBAIBHDftbA8AolJWVJRKJLl26xOPxamtrze3vvvsuj8crKyu77wjBwcHXrl0jhNTU1PB4vI6OjiEnYx6qtraWx+O1trYO5+mWRCIR79/Gjh0rl8s3bNhgMpmGPOAj1d8kAgwNCg824MIsYJ8QABiF+P9GH9ONd+/ezc3NffPNNz/88MP7jqDX622VjHkoqVR64sQJoVA4nKf3kpeX197eTj8Lz8zM/OSTTz7++OOHGfDRsTqJAEOGwoMNuDALWBMCAKPQE088MXny5CeeeMLZ2dnNzY1uzM/Pnzx58tatWz///PObN2/SjVVVVTwer6uri34ZHh6+Z8+eqKio5ubmmJiY7Oxsuj0zM9Pb21skEq1cudJoNBJCKioq5s2bJ5FIfH19s7KyCCE1NTVisXj37t2BgYEeHh50T8uh9Hr90qVLf/vtN0JIWVlZSEiIk5OTj4/P4cOH6SgnT54MDAx0cXERi8WxsbFdXV39na5Wq0NDQ52dnadMmbJ//36KoqxG73tnHBwcRCKRSCRycXGJiIgICwv74Ycf6Lf6XhFFUZs3b5bL5ePHj587d+7Vq1fpyxQKhe+9995zzz3n7++/bds2iqIGn5LVMa1GtzqJAABsRzGkoqKCqdAwDPLJLBt2A3hQd+/e/fbbbymKKioqMjfOmjUrKyuLoqiIiIj/+q//ohs1Gg0h5O7du/TLBQsWJCcnUxTl5uZWWFhIUVR1dTUhJCoqSq/XX79+XSqV5uTktLW1yWSypKQkg8FQXl7u4eFRUFBA99y0aVNPT09zc7NcLj9+/LjlUDqdjhDS0tKi1+slEsm+ffsMBkNJSYlAILh8+XJ1dbW9vX1xcTEd1N3d/ciRI1ZP12q1AoEgLS3NYDBcuXJFLpcfOnSov+iWhELh6dOnzS+/+eYbFxeXjz/+mKIoq1ekUqm8vb1v3brV3d29cePG+fPnm2/Ihg0bKIq6c+fO9OnTDx48OPiUrI5pNbrVSWQzfO6xHAoPNuDCLDBWWzNY1sMwwHcMsM2PP/4oFot/++03iqJUKpWrqytdTw+ytq6pqaE7vPLKK4mJiUePHvXy8jIP/sEHHyxatIjuWV1dbe65Y8cOylpxnJubO3nyZMvcWlpa7t27p9FoKIpqa2v7/vvvZ8yYsWvXLqun7927NyAgwHx6SkrK7Nmz+4tuSSgUCgQCZ2dnZ2dnBwcHuVy+bdu27u5uiqKsXlFpaalAINi1a1dlZaXJZKLfogPp9Xr65UcfffTcc88NPiWrY1qNPvCEshA+91gOhQcbcGEWxg7zY3IAAEYcOHCgo6PDy8uLfqnX648fP/7GG2/06kZRlNXTpVIpfTBu3Lju7m6tVnvz5k2xWEw3mkwmX19f+tjV1ZU+GDNmTE9Pj9XRGhoaPD09zS9nzpxJh87Nzc3Ozrazs5sxY0ZHR0d/yTQ2NioUCvNLb2/vGzduDDL6vn37wsLCGhsb3333XYVC8ec//3nMmDGEEKtXFBQUlJOTk5aWlpiYKJPJdu7cGRsbSwhxcHBwcXExR2xoaBh8SlbHHOB+AgCMLKitAWD0a29vP378+OnTp+kqlhCSnp7+4YcfvvHGG3Z2doQQo9Ho4OBALH44yOPxBhjQw8PDz8+P3r6DENLU1GQyme7du2e1c9+hPD09LTe+OHDggFKp1Gq1GRkZarXax8eHEDJnzpz+Tvfy8ioqKjK//PXXX2Uy2QDZWpowYYJCoVAoFF9++WVgYGBcXNxnn33W3xVptdpJkyZduHChs7MzJycnPj5+/vz5hJCurq6mpqYJEyYQQqqqqiZOnDj4lKyOaTX6IK8IAIBV8FtGABj9jh49OmHChIiICM9/e/vttysqKr7++mt3d3eRSJSRkdHV1XX06NHy8nL6lHHjxmk0mv623ouMjKyvr09NTTUajXV1dWFhYampqf1F7ztUeHh4a2trenp6d3d3WVnZli1bhEJha2urg4ODVCqlKCovL6+0tNRgMFg9PTo6uqqqKj093Wg0lpeXp6SkxMfHP+g9cXZ2zs/P/9vf/paRkdHfFanV6oiICI1GIxAIXF1dHR0dBQIBffrmzZvv3r177dq1tLS0VatWDT4lq2M+0P0EAGAz7G8NAKNfRkYGvZjBzMvLa968eampqY6OjgcOHMjMzJRKpV988UVMTAzdYdWqVQkJCXv37rU6oIuLS2Fh4ZkzZ9zc3AICAp5//vmkpKT+ovcdSiwWq1Sq/Px8qVQaFxeXmZn59NNPv/766wEBAT4+PgqFIj8/Py4urqKiwurpMplMpVLl5eW5urouWrRo3bp169atG8Jtefrpp3fs2PGnP/1Jo9FYvaKYmJg33njjhRdeEIlESUlJn3/+uUgkos8dP368t7f3woULN2/e/Nprrw0+JatjPtD9BBgaFB5swIVZ4PW3ng/gYXzKC3qVuv+f5xhkNwBgj5qaGm9v7/b2dnOdDTR87gEAwZoQAAAAAABbwd9lBAAAgNEPhQcbcGEWGNsnRKlUYjkKAMCIo1Ao8OkNIxEKDzbgwixgTQgAAAAAgG2gtgYAAAAAsA3U1gAAo1N7e3tTU9PDdAAAgAeF/a0BYJT4+9//Pm3aNCcnp0mTJn388cd0o0ajmTt3rlAonDRp0tmzZ+nGb775Jjg42MnJycvLa8eOHTZZ/FdVVcXj8bq6uswHNTU1PB6vv78+c1+1tbU8Hq+1tbVX+8WLF4OCgkQikZeX19atWwf4+4XBwcHmv3Q4tA4D+OSTTyZOnCiRSDZs2PDwNzA8PHzPnj0POQjAwFB4sAEXZgH7hADAaFBdXb1s2bI9e/a0t7efOnVq06ZNJSUlJpNp8eLFzz77rF6v//jjj2NiYn755Zdbt24tWrRo9erVt2/fVqlUhw8fTk9PZzr9wWpoaIiMjFy+fHlLS8u5c+dyc3P7++s2xOLvtw+5Q3+0Wu3q1av//ve/X716NSsrq7i4eGjjAAwnFB5swIVZwJoQABgNvL29GxoaFixYQAhpb28fO3ass7NzaWmpTqdLTEx0cHBYsGBBVFRURkZGbW3t73//+zfffJPP50+dOjUqKqqkpIQQ8swzz2zZsqXvyGVlZSEhIU5OTj4+PocPH6YbT548GRgY6OLiIhaLY2Nju7q6+kts3759np6ejz/++F/+8peenp7+zrUahdbT07NixYqQkJA7d+7odLolS5YkJCTw+fxp06YtX75crVZTFLV582a5XD5+/Pi5c+devXqVEBIVFdXc3BwTE5OdnW01aK8OFRUV8+bNk0gkvr6+WVlZhJCioiJeH/RjeAcHBx6PJxKJJkyYMGbMGFdX14Fvl1qtDg0NdXZ2njJlyv79++nn3CqVSqlUCoXCZcuWmZ/uP1AaAABsRDGkoqKCqdAwDPLJLBt2AxiktrY2JycnQsif/vQniqIOHToUEBBgfvcvf/lLWFiYZX+DwTB16tQPP/yQoqivv/66srKy14B6vV4ikezbt89gMJSUlAgEgsuXL1dXV9vb2xcXF1MUVV1d7e7ufuTIEY1GQwi5e/eu+aC6upoQsnTp0vb29oqKCnd398OHD1s912oUnU5HCLl9+/aqVavmzJlz586dXrlptVqFQpGTk6NSqby9vW/dutXd3b1x48b58+fTHdzc3AoLC+lAfYNadmhra5PJZElJSQaDoby83MPDo6CgwGAwNPdhjr59+/Zp06YtWLAgOzt74Nul1WoFAkFaWprBYLhy5YpcLj906JBOp3N0dDx27JjRaMzJySGEJCcnDyENVsHnHsuh8GADLswCY7U1g2U9DAN8xwAjTCaTyWT63//9X5lMtn///n379j333HPmdz/88MNnn33W/PLu3btRUVEvvfTSvXv3+hswNzd38uTJ5pc//vhjS0vLvXv3NBoNRVFtbW3ff//9jBkzdu3a1V9trdPp6HOTkpLCwsKsnms1Cl1bL1++3NPTs6Ojo1dilZWV7u7uKSkpFEWVlpYKBIJdu3ZVVlaaTCZzH3PpbDWoZYejR496eXmZT/zggw8WLVo0wH0+d+7c448/Hhwc7OnpqdPpbt++3dDQ0N/t2rt3r+W/cFJSUmbPnr1///5nnnnG3BgUFJScnPygabANPvdYDoUHG3BhFhj72zEAADZnZ2dHCFEqlX/4wx9OnDgRFxfX2dlpfrezs5N+qk0Iqa2tjY6O9vHxKSgosLe372/AhoYGT09P88uZM2cSQiiKys3Nzc7OtrOzmzFjBl34Wj2dz+ebT1coFJ999hmfz+97rtUo9LKHGzdutLW1XbhwISIiwnLk9evXr127NiEhgRASFBSUk5OTlpaWmJgok8l27twZGxvbK42BE9ZqtTdv3hSLxfRLk8nk6+t78eLFxYsX97qiuro6+tYVFhbOnj07Ojp64cKFAQEB1dXVX3/9tdULaWxsVCgU5kZvb+8bN27U19db9vT29n7QNIRCodV7DgDALNTWADAaqFSqLVu20EuNCSGdnZ0SiWTq1KkajcZkMo0ZM4YQcv36daVSSQi5evXq7373u7Vr17733nsDD+vp6VlbW2t+eeDAAaVSqdVqMzIy1Gq1j48PIWTOnDn9nW40Gtvb2+mCvr6+XqFQHDt2rO+5VqPQ5ebp06c/++yzt956q7Ky0lx0EkKcnJxeeeUV+lir1U6aNOnChQudnZ05OTnx8fHz58+fMGECj8ejO1gNSggxd/Dw8PDz8zPvGdLU1Jw1uzAAACAASURBVGQymSQSifl+mgkEgtLSUldXV3qQvLy8efPmHT58+G9/+1t/F+Ll5VVUVGRu/PXXX2UymYeHx/nz582NdXV1AQEBD5RGf/ccAIBZ+C0jAIwGgYGBdXV1ycnJRqPx66+/zsrKWr169ezZs93c3BITEw0GQ3Fx8enTp+Pi4urr68PCwtauXRsXF1dbW1tbW0tvl/GPf/yjoqKi17Dh4eGtra3p6end3d1lZWVbtmwRCoWtra0ODg5SqZSiqLy8vNLSUoPB0F9i9NZyzc3NGRkZb775ptVzrUahT7e3t3/nnXe8vLw2btxoOWxsbKyzszN9rFarIyIiNBqNQCBwdXV1dHSkS89x48ZpNJqOjo7+EjZ3iIyMrK+vT01NNRqNdXV1YWFhqampDg4Oij54PN6zzz7b3Ny8e/futra2kpKSGzduuLi47N69W6/XW72Q6Ojoqqqq9PR0o9FYXl6ekpISHx8fHR1dXV198ODB7u7uU6dOXbp0iRDyQGnY6r8cAAAbY2oxytSpU5kKDcPgka47bNfo9N9fH8KJMLp9//33ISEhIpFo6tSpx48fpxs1Gs1LL7302GOPTZo0KT8/n6KoHTt29PoY/N3vfkdRVEBAwObNm/sO+8MPP8yZM+exxx6bMmUKPUJHR0dUVJSLi4uXl9eiRYtWrVq1dOlSq+utBQLBxo0bn3rqKaVSmZ6e3t+5VqPQ661bWlooiqqoqLC3t1epVOasCCEnTpwwv9y6datcLhcKhdOnT//yyy/pxsTExHHjxm3fvr2/oOYOFEX9+OOPc+fOlUgkbm5u69evH2ANOkVRRUVFAQEBjo6OkyZNOnDgQGNj46xZs+il230vhKIotVr97LPPPvbYY15eXrt27erp6aEo6ttvv505c6ZAIJg/f/7LL7+cnJz8oGmwDdZbsxwKDzbgwizwKFv80QSAXj7lBb1KldmqG83Y2l535tua3C8ai7/33/amcvvqh8sRAGyGoig8S34Un3sAMOJgvTWwXY/B2PBlqe5Ese7UBVNnv7sIAwCDUFgDANAYq60rKyv9/f2Zig4jQsvln2pyzmvzvrrX3MJ0LgAAMLKh8GADLswCY2tCeDwsRxnN+v5Pz095QYM8N+Szv6iX/fm+3SYueTHkxP8hhOhOFFv2Rzva0Y52tKO9bzsKDzbgwiygtoZHwmpt/aArEQd4bu2f+AestwYAVsF6a5ZD4cEGXJgFrLcG9pIEPCkJeHJG8jqstwYAAIARAftbA9vZ2fPlkaFBOdsX1xUEHUl0mzeL4FdTAAAAwEqMPbeeOnUqU6FhhOKLnRTxCxXxCzuqag2t7UynAwAAIwkKDzbgwiwwuU8IU6FhpBNN9mQ6BQAAGGFQeLABF2YBa0IAAAAAAGyDsdqaC/9wAQAAAJZA4cEGXJgFxmprpVLJVGgAAADgGhQebMCFWcCaEAAAAAAA20BtDQAAAABgG6itAQAAAABsg7HamgsbHAIAAABLoPBgAy7MAvYJAQAAgNEPhQcbcGEWsCYEAAAAAMA28NwaAAAARj8UHmzAhVnA/tYAAAAw+qHwYAMuzALWhADAaNbe3t7U1PQwHQAAAAYPtTUA2ExVVRWPx+vq6jIf1NTU8Hi8jo6OoQ1YW1vL4/FaW1t7tV+8eDEoKEgkEnl5eW3dutVkMvU3QnBw8LVr1wYIcd8OA/jkk08mTpwokUg2bNhAUdTQBjELDw/fs2fPQw4CAADMQm0NACNMQ0NDZGTk8uXLW1pazp07l5ubu3fv3v466/X6gUe7b4f+aLXa1atX//3vf7969WpWVlZxcfHQxgEAgNEE+1sDwP2VlZWFhIQ4OTn5+PgcPnyYbjx58mRgYKCLi4tYLI6Nje3q6urv9H379nl6ej7++ON/+ctfenp6+jvXahRaT0/PihUrQkJC7ty5o9PplixZkpCQwOfzp02btnz5crVaTVHU5s2b5XL5+PHj586de/XqVUJIVFRUc3NzTExMdna21aC9OlRUVMybN08ikfj6+mZlZRFCioqKeH3Qj+EdHBx4PJ5IJJowYcKYMWNcXV0Hvl1qtTo0NNTZ2XnKlCn79++nn3OrVCqlUikUCpctW2Z+uv9AaQDAIKHwYANOzAIF8Ajkk1n3bRnkicA4vV4vkUj27dtnMBhKSkoEAsHly5erq6vt7e2Li4spiqqurnZ3dz9y5IhGoyGE3L1713xQXV1NCFm6dGl7e3tFRYW7u/vhw4etnms1ik6nI4Tcvn171apVc+bMuXPnTq/ctFqtQqHIyclRqVTe3t63bt3q7u7euHHj/Pnz6Q5ubm6FhYV0oL5BLTu0tbXJZLKkpCSDwVBeXu7h4VFQUGAwGJr7MEffvn37tGnTFixYkJ2dPfDt0mq1AoEgLS3NYDBcuXJFLpcfOnRIp9M5OjoeO3bMaDTm5OQQQpKTk4eQBrAEPuUAgKIo1NbwSKC2Hk1yc3MnT55sfvnjjz+2tLTcu3dPo9FQFNXW1vb999/PmDFj165d/dXWOp2OPjcpKSksLMzquVaj0LX18uXLPT09Ozo6eiVWWVnp7u6ekpJCUVRpaalAINi1a1dlZaXJZDL3MZfOVoNadjh69KiXl5f5xA8++GDRokUD3JZz5849/vjjwcHBnp6eOp3u9u3bDQ0N/d2uvXv3BgQEmBtTUlJmz569f//+Z555xtwYFBSUnJz8oGkAe+BTDgAoihrL1PPyyspKf39/pqIDwOA1NDR4enqaX86cOZMQQlFUbm5udna2nZ3djBkz6MLX6ul8Pt98ukKh+Oyzz/h8ft9zrUahlz3cuHGjra3twoULERERliOvX79+7dq1CQkJhJCgoKCcnJy0tLTExESZTLZz587Y2NheaQycsFarvXnzplgspl+aTCZfX9+LFy8uXry41xXV1dXV1tZGR0cXFhbOnj07Ojp64cKFAQEB1dXVX3/9tdULaWxsVCgU5kZvb+8bN27U19db9vT29n7QNIRCodV7DgB9ofBgAy7MAmO1tVKp7O+bGABYxdPTs7a21vzywIEDSqVSq9VmZGSo1WofHx9CyJw5c/o73Wg0tre3Ozk5EULq6+sVCsWxY8f6nms1Cl1unj59+rPPPnvrrbcqKyvNRSchxMnJ6ZVXXqGPtVrtpEmTLly40NnZmZOTEx8fP3/+/AkTJvB4PLqD1aCEEHMHDw8PPz8/854hTU1NJpNJIpHQS7ctCQSC0tJSV1dXepC8vLx58+YdPnz4b3/7W38X4uXlVVRUZG789ddfZTKZh4fH+fPnzY11dXUBAQEPlEZ/9xwA+kLhwQZcmAXsEwIA9xEeHt7a2pqent7d3V1WVrZlyxahUNja2urg4CCVSimKysvLKy0tNRgM/Y1Aby3X3NyckZHx5ptvWj3XahT6dHt7+3feecfLy2vjxo2Ww8bGxjo7O9PHarU6IiJCo9EIBAJXV1dHR0e69Bw3bpxGo+no6OgvYXOHyMjI+vr61NRUo9FYV1cXFhaWmprq4OCg6IPH4z377LPNzc27d+9ua2srKSm5ceOGi4vL7t279Xq91QuJjo6uqqpKT083Go3l5eUpKSnx8fHR0dHV1dUHDx7s7u4+derUpUuXCCEPlMajmXAAAHgITC1GYTA0DAOstx5lfvjhhzlz5jz22GNTpkzJz8+nKKqjoyMqKsrFxcXLy2vRokWrVq1aunSp1fXWAoFg48aNTz31lFKpTE9P7+9cq1Ho9dYtLS0URVVUVNjb26tUKnNWhJATJ06YX27dulUulwuFwunTp3/55Zd0Y2Ji4rhx47Zv395fUHMHiqJ+/PHHuXPnSiQSNze39evX37t3b4B7UlRUFBAQ4OjoOGnSpAMHDjQ2Ns6aNYteut33QiiKUqvVzz777GOPPebl5bVr166enh6Kor799tuZM2cKBIL58+e//PLLycnJD5oGsAc+5VgOhQcbcGEWeBRDT+Z5PMZCwzD4lBf0KlU2cMsgTwQYKSiKwrPk0er2D/+0FzuJJnsO0AefciyHwoMNuDAL2N8aAMA2UFiPYjcLLp2bEv3VMyt/+fDTe80tTKcDQ4HCgw24MAtM7hPCVGgAAIAhaLn8U8vln8r/8yNZWNDEpS9NXPLiGIED00nBYKHwYAMuzAJjtTVw0Ke8IKZTAAB4WD0G482CSzcLLl15N8Ujco4ifqHbS4EE/9cCAAghzD63HvUbHIIlq+sLra471J0oVi/787AkBQAwdMbW9prcL2pyvyCEyCP63YYSWAKFBxtwYRawvzWwzsSlL+GHPgDAKhXbD1XuyOrVyBc7WT63xv+aYzkUHmzAhVnAmhAAAIAHYGfPx3prAOgPamsAAIBBkQQ8qYhb+PiKsHHjJUznAgAshdoaAADgPuQRcxSvvTzw/tYAAITB2poLGxwCAMDo4PKMH9MpwMNC4cEGXJgFxv52DBc2OAQAAACWQOHBBlyYBcZqawAAAACAUQbPrQEAAGD0Q+HBBlyYBcZqa6VSyVRoAAAA4BoUHmzAhVnAmhAAAAAAANtAbQ0AAAAAYBuorQEAAAAAbIOx2poLGxwCAAAAS6DwYAMuzAL2CQEAAIDRD4UHG3BhFrAmBAAAAADANvDcGgAAAEY/FB5swIVZwP7WAAAAI157e3tTUxPTWbAaCg824MIsYE0IAADASJWVlbVp0yZCSHBw8LVr1/rrVltby+PxWltbhxzo4sWLQUFBIpHIy8tr69atJpNpyEOFh4fv2bNnyKcDsBxqawAAgJHqzJkzixcvJoTo9fpHF6WhoSEyMnL58uUtLS3nzp3Lzc3du3fvowsHMKKhtgYAABiROjs7r169GhISEhUV1dzcHBMTk52dTQhRq9WhoaHOzs5TpkzZv38/RVHmU3p6elasWBESEnLnzh1CSEVFxbx58yQSia+vb1ZWFiGkpqZGLBbv3r07MDDQw8Nj5cqVRqNRp9MtWbIkISGBz+dPmzZt+fLlarWaEFJWVhYSEuLk5OTj43P48GE6hNXoKpVKqVQKhcJly5Z1dHTQPftGLyoq4vVh7g8wMlAMmTp1KlOhYRjkk1k27AYAwH7D/7l3+vTplStX0sdubm6FhYUURWm1WoFAkJaWZjAYrly5IpfLDx06pNPpCCG3b99etWrVnDlz7ty5Q1FUW1ubTCZLSkoyGAzl5eUeHh4FBQXV1dWEkE2bNvX09DQ3N8vl8uPHj1sG1Wq1CoUiJydHr9dLJJJ9+/YZDIaSkhKBQHD58uX+ojs6Oh47dsxoNObk5BBCkpOTrUY3GAzNfdjqdqHwYAMuzAL2CQEAABiRzAtCLJ08edLPz2/NmjV8Pv+pp57atGnTJ598Qr/1zjvvFBUVqVQqJycnQsjZs2ft7e3ff/99Pp8/ffr0t99+OzMzk+65Zs0aHo/n6uo6a9YsjUZjHvz69evBwcHr16+Pi4s7f/68VCrdsGEDn88PDg7+7rvvfHx8rEY/ffq0v7//ihUrxo4dGxcXFxQU1F90Pp/v2oetbhcKDzbgwiyMZToBAAAAeGA9PT3FxcUfffRRr/bGxkaFQmF+6e3tfePGDfr4xo0bbW1tFy5ciIiIIIRotdqbN2+KxWL6XZPJ5OvrSx+bK9oxY8b09PSYR1u/fv3atWsTEhIIIQ0NDZ6enua3Zs6c2V/0+vp6y57e3t79Rb948WLffy3U1dUJhcIHuDUAjGKstq6srPT392cqOgAAwIimVqunTZtmLjp5PB594OXlVVRUZO7266+/ymQy+vj06dOfffbZW2+9VVlZKRaLPTw8/Pz8zLuLNDU1mUyme/fuDRDUycnplVdeoY89PT1ra2vNbx04cECpVFqN7uHhcf78eXNjXV1dQECA1egSieTq1au9ggoEgsHelAGh8GADLswC9rcGAAAYeXotCBk3bpxGo+no6IiOjq6qqkpPTzcajeXl5SkpKfHx8XQfe3v7d955x8vLa+PGjYSQyMjI+vr61NRUo9FYV1cXFhaWmpo6cNDY2FhnZ2f6ODw8vLW1NT09vbu7u6ysbMuWLUKh0Gr06Ojo6urqgwcPdnd3nzp16tKlS/1Fd3BwUPRh/mfDQ0LhwQZcmAXsEwIAADDynD17NjIy0vxy1apVCQkJe/fulclkKpUqLy/P1dV10aJF69atW7dunbmbnZ1dVlbWsWPHvvzySxcXl8LCwjNnzri5uQUEBDz//PNJSUkDB126dGlJSQl9LBaLVSpVfn6+VCqNi4vLzMx8+umnrUaXyWTnzp3LyMhwdnbOyMgIDw8nhAwh+gBu//DPjqra+/cDePR4lMXWPMMamMdYaBgGn/KCXqXKbNUNAID98LnHoIrthyp3ZEkCnlTELXx8Rdi48ZK+fVB4sAEXZgG/ZQQAAIDRoOXyTy2Xfyr/z49kYUETl740ccmLYwQOTCcFnMPYmpCpU6cyFRoAAABGqx6D8WbBpbKVO/7uEVEWv72x6H8IRREUHuzAhVlgcp8QpkIDAAAw6FNeENMpcIKxtb0m94ua3C/ol5UUCg/mcaH8w5oQAACAYYX11jZHr7fu1cgXO3lEzlHEL3R7KZDYaLMRgPvC/tYAAAAwetjZ862ut0bhwQZcmAXGamulUjnqfygKAAAAw2bgfUJQeLABF2YBa0IAAABgZJNHzFG89rJosuf9uwI8YqitAQAAYGRzecaP6RQA/n/4u4wAAAAAALaB/a0BAABg9EPhwQZcmAXGamsubHAIAAAALIHCgw24MAtYEwIAAAAAYBt4bg0AAACjHwoPNuDCLDBWWyuVSqZCAwAAANeg8GADLswC1oQAAAAAANgGamsAAAAAANtAbQ0AAAAAYBvY3xoAAABGPxQebMCFWcA+IQAAADD6ofBgAy7MAtaEAAAAjADt7e1NTU1MZwEA94Hn1gAAACNAcHDwtWvX+nu3traWx+O1trYOZ0ojCwoPNuDCLGB/awAAgBFAr9czncLIhsKDDbgwC1gTAgAAwHZRUVHNzc0xMTHZ2dmEELVaHRoa6uzsPGXKlP3791MUZe7Z0/P/tXfncVEc+f/4a0CG4dIBhkMuuSQi44kIUfFA8Qp4oKiIIGrUKLrZRKOJMQFjstGoWbPxRDRZEFE5PNCIeOCqIWhiFpDDOKgg9ylyiYzQvz/6u/PjA8MIOtAN/Xo+/GOorq56TxX0vG2qi+bFixePGTOmurqaEJKenj5lyhRdXV07O7vQ0FBCSE5OjlAo3Llzp5OTk6mp6dKlS6VSqdxOs7OzRSLRqlWr+vbte+jQobZNURS1efNmExMTAwODSZMmpaSk0O1raWl99tln48ePd3Bw+PLLL+nw2sYsNxK5bcp9IwDs1IfpAAAAAOA1YmNjjY2Njx8/PmXKlKdPn7q7u3/33XfXr19PT0/38PDQ1NScPn06IYSiqBUrVuTl5V2+fFlHR6e6utrd3T0wMPDSpUtZWVkzZ87s37+/g4PD8+fPy8vL7969W1FRMWzYsOjoaB8fH7n9VlRUaGhoSCSSFy9evPvuu62a6tOnT1RU1P3794VC4aZNmzZt2pSQkEAIqa+vb2houHnzZk1Nzbhx40xNTWfMmNE25ilTprSNRE9Pr22bct/Ie++9161zANAxuG8NAADQk0RHR9vb2wcGBqqpqY0YMWLjxo3Hjh2jD61du/bq1avx8fE6OjqEkLi4OD6fv3XrVjU1taFDh65ZsyYkJISuGRgYyOPxRCLR6NGjJRKJgu4CAwONjIx+/fXXtk0JhcKSkpLQ0NC//vpr165ddGJN++KLLwghOjo6K1euPHHihIKYW0Uit00FbwSAbbC/NQAAQE9SUlJiaWkp+9LKyurp06f066dPnz5//jwxMZH+Mjc3t7CwUPg/O3bsyM/Ppw+JRCL6haqqanNzs4LuzM3N22vK2dk5LCwsPj5+5MiR1tbWERER9CkCgUBPT0/WUXFxsYKYW0Uit00Fb6TjkHiwARdmgbE1IVx4UBQAAEBZeDwe/cLCwuLq1auy8sePHxsbG9Ovz5w5c/r06dWrV2dkZAiFQlNTU3t7e9nuIqWlpU1NTS9fvnyDfuU2lZuba2Njk5iYWF9fHxYW5u/v7+7uTghpaGgoLS01NDQkhGRnZ5ubmyuIuRW5bcrtvVPvgiDxYAcuzALWhAAAAPQA6urqEomktrZ23rx52dnZ+/fvl0qlqamp33//vb+/P12Hz+evXbvWwsLi448/JoR4enoWFRXt3btXKpUWFBRMnTp17969b9a73KaSkpI8PDwkEommpqZIJNLQ0NDU1KTrb968+cWLF2lpafv27QsICFAQcyty21TiGwHoatjfGgAAgEVqs/Mr/8hqWx4QEPDRRx/t2bPH2Ng4Pj4+MjJSJBLNmjVr/fr169evl1VTUVEJDQ2NiIi4fPmynp7elStXzp8/b2Rk5OjoOGHChO3bt79ZVHKb8vHxWb58+cSJE7W1tbdv3x4bG6utrU3XNzAwsLKymjlz5ubNm5csWaI45pbktqmUN4LEgw24MAu8lhv3dGvHPMa6hm5wiue8kLqjrGoAAOz3ltc9aVVNwflbOeGXSq797vDlCnHwyi6IsTvk5ORYWVnV1NTI8myWQOLBBlyYBezBBwAAwJjmRmnx5eS8qGt5MYlN9Q1MhwMAbwu5NQAAAAOe3XuQE/ZLbmTCy7JnzEaSkZExb968tuVLly797LPPuj8egB4Na0KgS2BNCABwTcevex1sUNZaq1NQ/mbli8hdJB6M40L6x9g7dHBw4MJ6ds5Cbg0AXNPZ656C+9YOQe/33PXWrIXEgw24MAvY3xoAAIABuo6DdB0HDdu1HuutuwcSDzbgwixgf2sAAADGqPDVTDxdncOCZxdccP53kNGU0eR/fyMGAHoi7G8NAADAPDWhjqX/zIlXfnzvYbSJxzimw+mFkHiwARdmgbE1IWKxuNcvZgcAAOgsbVszpkPonZB4sAEXZgFrQgAAAAAAlAO5NQAAAACAciC3BgAAAABQDsZy68GDBzPVNQAAAHANEg824MIsYJ8QAAAA6P2QeLABF2YBa0IAAAAAAJQD960BAACg90PiwQZcmAXGcmuxWMxU1wAAAMA1SDzYgAuzwNjfjgEAAOjdTvGcO1i+kLrT9eEAQHdAbg0AANBVOpI0t5eCA0BPhGcZAQAAAACUA/tbAwBAJ9TU1JSWljIdBUCnIfFgAy7MAvYJAQAAMn369N27d3ek0MXFJS0trYPNFhYWLlmyxNDQUF1d3c7O7quvvnr16tXbR5ufn8/j8aqqqt7s9IaGBt7/qKio6OvrL1y4sKys7O0DAzZD4sEGXJgFrAkBAIBOqKio6HjluXPnPnv2LC4uLjMzc9euXUeOHNmyZcvbx6Cvrx8VFaWlpfU2jcTGxubl5eXk5Fy4cCEjI0MpgQEA4L41AEDvFx0d7eTkpKenJxQKfX19GxoaCCHx8fFisVhLS2vBggW1tbV0TbmFMl5eXmVlZT4+PkePHiWEJCUlubq69uvXb+DAgf/6178oimpZmaKoe/fuffLJJ87OzjY2NrNnzz5w4EBdXR19ND09fcqUKbq6unZ2dqGhoXT9zZs3m5iYGBgYTJo0KSUlpb3CiooKb29vuqm2MeTk5AiFwp07dzo5OZmami5dulQqlbYdEwMDAzMzMwsLCxsbGz09PWNjYwVjlZCQMGTIEKFQ6Onp6ePjs3XrVmVNDXQbJB5swIlZoBjCYNfQDU6S0UqsBgBv48mTJ3w+/9q1a/Tr/v37//vf/87Ly9PQ0IiIiJBKpWFhYYSQXbt2yS1s1ZqRkdGVK1coisrNzdXU1Ny3b19jY+Off/5pYmJy5MiRVpVXrlw5cODAPXv2/P77742NjbLy58+fGxsbb9++vbGxMTU11dTU9MKFC/Hx8VZWVuXl5a9evfr444/d3d0pipJbmJeXRwh59uyZ3BiePHlCCNm4cWNzc3NZWZmJicmJEydaRvXixQtCCJ/PV1dX5/P5hJARI0bU1NQoGCtNTc2ffvpJKpWePHmSx+N9/vnnbce57QUNV0JWQeLBBlyYBezBBwDQy5mYmGRkZNja2lZXV5eXlxsaGhYVFZ05c8bBwWHx4sWEED8/v/379xNC5Ba2Jzo62t7ePjAwkBAyYsSIjRs3Hjt27P33329ZJyQk5Pz58zExMT/++GNpaenMmTP/8Y9/DBw4MC4ujs/n03d/hw4dumbNmpCQkC1btpSUlISGhnp6eu7atUtFRYUQIhQK2xYqjmHKlCmEkMDAQB6PJxKJRo8eLZFI2sb/008/jRw5srm5uaCgYMuWLT4+PnFxcXLHKjo6WiwWBwQEEEIWLlx45MiRt5gN+fKiriUt4PSiFL6ujrqBrt4oeyP30QN8pqqo85mOCOANIbcGAOjl1NTUwsPDjx49qqKiMmzYsNraWoqiioqKzMzMZHWsrKwIIXIL21NSUmJpadmy8tOnT1vVqaurmzVr1qxZswgh+fn527dvnzhx4qNHj3JzcwsLC4VCIV2tqanJzs7O2dk5LCxs3759QUFBxsbG33zzja+vr9zCjsQgEonoF6qqqs3NzW3jt7CwGDRoECFk8ODBOjo67777bl5enpmZWduxys/Pt7CwkJ3YskdlMfeezPE/H9P4rKahqLzy98y8qGv3txwcdfhTE09XpoMCeBN4lhEAoJeLiIg4fPjwzZs3nz59GhcXRy8sNjU1pddO0AoKCtorbIXH49EvLCwsWlZ+/PixbMky7ezZs4aGhjU1NfSXZmZmX3/9dWFhYV5enqmpqb29fdX/PHr06MKFC7m5uTY2NomJiZWVlZ9++qm/v39paancQlkXr42hgyiKIoQ0NzfLHStzc/OW/22gV6SAcvF1dfoOtrJc+p7rhe/Hxu78c/3ux0fOMh0UwJvA/tYAAL1cVVWVQCDQ19enKCoyMjI5ObmxsXHevHlPnjw5dOjQq1evYmJibt++TQiRsl6vegAAIABJREFUW9iKurq6RCKpra2dN29ednb2/v37pVJpamrq999/7+/v37Lm9OnTTU1NPT09z549m5mZef369ffff9/BwcHa2trT07OoqGjv3r1SqbSgoGDq1Kl79+5NSkry8PCQSCSampoikUhDQ0NTU1NuoayL18agQFlZWX5+fn5+/r179zZv3jx69OgBAwbIHatFixZlZGSEh4c3NjbGxMRcvXr1LWYDXk/fRTzx6v77XxyuSstWYrNIPNiAE7PA6Gpv6LXwBA8Ae9TW1np5eenp6VlYWMyaNSsgIMDb25uiqFu3bg0fPlxTU9Pd3X3GjBn0Y4tyC1sKCgpSV1cPDg6mKCopKWns2LF9+/a1sLDYsWNHc3Nzq8oFBQXLli0zNTVVU1MzMDBYsmRJfn4+fei///3vpEmTdHV1jYyM/va3v718+ZKiqC+++MLExERLS2vo0KGXL1+ma7YtlD3LKDcG+k42/WwiRVHz5s0LCgpqGRX9LKOMUChctGhRXl6egrG6ePGinZ2dtrb2nDlzJkyYsG3btrbjjGcZleuvf0YmLZTzzCgAy/Go/7tlEoBSnOI5d2TtYAerAQAwqLCwsKSkZMSIEfSXkydPnjdv3tq1a1tVa3tBw5XwbbyqfXGu/4zZxZf6aGkwHQtAJ2B/awAAAEWePXvm6ur6559/Njc3X7p06bfffqO3IoEu1UdbQzjcruKO0rIFJB5swIVZYGyfELFYjFvmAADAfg4ODnv27Jk/f35xcbGNjc2JEyfs7OyYDooT+tpb1WbnG7mNUkprSDzYgAuzgD34AAAAXmP16tWrV69mOgrOUdfr2/ismukoADoHe/ABAAAAG1EUJdvzEaCnQG4NAAAAbNT4rIavq8N0FACdg/2tAQAAgI2qM59o25orqzUkHmzAhVnAPiEAAADAOq9qX1SlSfRGKy0VQ+LBBlyYBawJAQAAYLva7PzKP7KYjqJbPTpy1sRjHDa3hh4H960BAABYSlpVkxP2yw339Rft5hdekPMn6Hur2uz8BzvDBm8JUGKbSDzYgAuzgP2tAQAA2KW5UVp8OTkv6lpeTGJTfQPT4XS38qS033y+GPqPtf3ENkpsFokHG3BhFrC/NQAAAFs8u/cgJ+yX3MiEl2XPmI6lWzVWVr8oLKv8PSvv9NWq+9lOIVv6zxzDdFAAbwK5NQAAQFc5xXPuSLW8qGtJC7YorpOxLTRjW6gygmIjvl5fgaGe7ih7C5+p487tUuGrMR0RwBtCbg0AANAlFlJ32hae4jnLLacLFdy3dgh6Xxy8siviBAAlYiy35sIGhwAAAJ2i6zhI13HQsF3rubzeuosg8WADLswC9gkBAABgFxW+momnq3NY8OyCC87/DjKaMprgT3+/NSQebMCFWcCaEAAAAJZSE+pY+s+09J9Zm53fWFXDdDgA8Hq4bw0AAMB22rZmeqPsmY6iZ0PiwQZcmAXGcmuxWMxU1wAAAMA1SDzYgAuzgL95DgAAAACgHMitAQAAAACUA7k1AAAAAIByMJZbc2GDQwAAAGAJJB5swIVZwD4hAAAA0Psh8WADLswC1oQAAAAAACgH7lsDAABA74fEgw24MAvY3xoAAAB6PyQebMCFWcCaEAAAAAAA5UBuDQAAAACgHMitAQDaVVNTU1paynQUAADQY2B/awBgnXPnzg0ZMkRHR8fGxubAgQN0oUQimTRpkpaWlo2NTVxcHF148+ZNFxcXHR0dCwuLbdu2URSluOXQ0NCNGzfm5+fzeLyqqiq5dVoedXFxSUtLa1XYVnZ2No/Ha2hoeLP3CwDdAIkHG3BhFrBPCACwy5MnTxYsWLB79+6ampqYmJiNGzf+9ttvTU1Ns2fPHjt2bEVFxYEDB3x8fB4+fFheXj5r1qyVK1dWVlbGx8f//PPP+/fvV9z4+fPnZ8+era+vHxUVpaWlJbdOy6MVFRVtCwGgJ0LiwQZcmAWsCQEAdrGysiouLp42bRohpKampk+fPv369UtOTs7LywsKChIIBNOmTfPy8jp8+HB+fv7cuXNXrFihpqY2ePBgLy+v3377jRAyatSoTz/9tG3L9fX1KSkpY8aMqaio8Pb2rqury8nJEQqFO3fudHJyMjU1Xbp0qVQqlR318vIqKyvz8fE5evSorJAQEh0d7eTkpKenJxQKfX19cbsaAABkcN8aAFhHV1e3urq6b9++48ePX7Vq1eDBg7Oyst555x01NTW6gr29fXp6+vDhw3/66Se6RCqVxsfHOzs7E0L27Nnj7+/fttmEhAQ3NzdVVdWWhc+fPy8vL797925qaurVq1ejo6Nlh2JjYw0MDCIjI1esWCErzMnJ8fX13blzZ2VlZUpKSmJi4unTp5U+AgCgdEg82IALs9CHqY7FYvFrV0YCAGdpa2tXVVVlZma6u7sPGDCgqamp5XoMLS0t+hYyraGhwdfXt3///h988AEhZMKECXLbpBeEtC0PDAzk8XgikWj06NESicTV1VVBYCYmJhkZGba2ttXV1eXl5YaGhkVFRW/4JgGgGyHxYAMuzALWhAAAG6moqKioqIjF4vfff59e6FxfXy87Wl9fr6OjQ7/Oz8+fMGECn8+/cOECn89vr8Hm5uZr165NnTq17SGRSES/UFVVbW5uVhyYmppaeHi4mZmZWCzetm1bbW1tr/+cAACAjkNuDQDsEh8fP3z4cNmX9fX1urq6gwcPlkgkTU1NdGFmZib9x71SUlKcnZ3nzJkTGRkpEAgUNJuUlDRkyJDOPozI4/FalURERBw+fPjmzZtPnz6Ni4szNjbuVIMAANC7IbcGAHZxcnIqKCjYtWuXVCq9ceNGaGjoypUr3333XSMjo6CgoMbGxmvXrp05c8bPz6+oqGjq1Knr1q3z8/PLz8/Pz8+nt/W4fv16enp6q2bbWxCimLq6ukQiqa2tlZVUVVUJBAJ9fX2KoiIjI5OTkxsbG9/yLQMAQK+B/a2h56nNzq/8I4vpKKCr6OvrX7p06ezZs3p6eoGBgYcOHfLw8FBRUbl48WJycrKBgcHq1atDQ0OHDh165MiRsrKyLVu2mP/P0qVLCSGbNm06fvx4q2bj4uI8PT07G0xAQMBHH320Z88eWcmyZcscHR2tra0tLS1Pnjzp5+fXNo8HABZC4sEGXJgFHlYKQlc4xXNeSN1RVjWatKqm4PytnPBLJdd+d/hyhTh45dvFCACgTF1x3QOAHoexfUIAOqi5UVp8OTkv6lpeTGJTPTYSBgAAAPZiLLfOyMhwcHBgqnfoEZ7de5AT9ktuZMLLsmdMxwIAAD0bEg824MIsYH9r6CaneM4dLB9z+h9JC7Yobi1jW2h1xuMxUd8SQvKirrWsbz7fDeUoRznKu7ncfL4bAXZD4sEGXJgFxtZb83hY6t2btV1Q+AYrERXct3YIeh/rrQGAVbDemuWQeLABF2YB662BvXQdB+k6Dhq2az3WWwMAAECPgP2tge1U+Gomnq7OYcGzCy44/zvIaMpo0ubPeQAAAACwAWP3rbmwwSEol5pQx9J/pqX/zNrs/MaqGqbDAQCAngSJBxtwYRaY3CeEqa6hp9O2NWM6BAAA6GGQeLABF2YBa0IAAAAAAJSDsdyaC/9xAQAAAJZA4sEGXJgFxnJrsVjMVNcAAADANUg82IALs4A1IQAAAAAAyoHcGgAAAABAOZBbAwAAAAAoB2O5NRc2OAQAAACWQOLBBlyYBewTAgAAAL0fEg824MIsYE0IAAAAAIBy4L41AAAA9H5IPNiAC7OA/a0BAACg90PiwQZcmAWsCQEAbqmpqSktLWU6CgAA6J2QWwNAzxYaGrpx48b8/Hwej1dVVSW3TsujLi4uaWlprQrbys7O5vF4DQ0NXRc5AAD0PsitAaBnO3/+/OzZs/X19aOiorS0tOTWaXm0oqKibSEAAIBSYH9rAOjB6uvrU1JSxowZU1FR4e3tXVdXl5OTIxQKd+7c6eTkZGpqunTpUqlUKjvq5eVVVlbm4+Nz9OhRWSEhJDo62snJSU9PTygU+vr64nY1QO+DxIMNuDAL2CcEAHqwhIQENzc3VVXVloXPnz8vLy+/e/duamrq1atXo6OjZYdiY2MNDAwiIyNXrFghK8zJyfH19d25c2dlZWVKSkpiYuLp06e77z0AQLdA4sEGXJgFrAkBgB6MXhDStjwwMJDH44lEotGjR0skEsWNmJiYZGRkuLm5VVdXl5eXGxoaFhUVdU28AADQy+G+NQD0VM3NzdeuXZs6dWrbQyKRiH6hqqra3NysuB01NbXw8HAzMzOxWLxt27ba2lqKopQfLgAwCokHG3BhFvow1bFYLManFwC8jaSkpCFDhnT2YUQej9eqJCIi4vDhw0lJSdbW1oSQcePGKS1EAGANJB5swIVZwJoQAOip2lsQopi6urpEIqmtrZWVVFVVCQQCfX19iqIiIyOTk5MbGxuVGikAAHAFY/etAQDeUlxcXGJiYmfPCggI+Oijj0pLS2WPMy5btiwxMdHa2lpbW3v48OF+fn7p6enKDhZ6tso/svhCHW1bM6YDAQC2Q24NAD1VVlaW7LWZmRn9e0ahUNjyF46yTUJkhcHBwcHBwa0KY2Ji2rbf639xCR1XeOF2xrZQXcdBln4zByyeqm6gy3REAMBSjOXWXNjgEAAAepNn9x48u/cgddOPxlOdzb0nm893U9UUMB0UdBQSDzbgwixgnxAAAIBOaG6UFl64fWfptnOmHnf8g0uu3iX4FUdPgMSDDbgwC1gTAt3nFM+5I9Xyoq4lLdjS1cEAALwlaVVNTvilnPBLhBATD2wvAwCEMJhbZ2RkODg4MNU7dL+F1J22had4znLL5RYCADAlPfhIxrbQVoVqQh1Tz3GW/jONJjsRHq+Dtw+AKUg82IALs4D9rQEAADpBha+G9dY9ERIPNuDCLGBNCAAAQIdgnxAAeC3k1gAAAK9h4jHOcskM7G8NAK+F3BoAAOA19EbZMx0CAPQMjO3Bx4UNDgEAAIAlkHiwARdmAftbAwAAQO+HxIMNuDALjOXWAAAAAAC9DO5bAwAAQO+HxIMNuDALjOXWYrGYqa4BAACAa5B4sAEXZgFrQgAAAAAAlAO5NQAAAACAciC3BgAAAABQDuxvDQAAAL1fdnY20yEAJ9I/7BMCAAAAvZ+NjQ3TIQAn0j+sCQEAAAAAUA7ctwYAAABuqampKS0tZToKLuJC+of9rQEAAKBnCw0N3bhxY35+Po/Hq6qqklun5VEXF5e0tLRWhW1lZ2fzeLyGhoaui5xruJD+YU0IAAAA9Gznz5+fPXu2vr5+VFSUlpaW3Dotj1ZUVLQtBFAK5NYAAADQg9XX16ekpIwZM6aiosLb27uuri4nJ0coFO7cudPJycnU1HTp0qVSqVR21MvLq6yszMfH5+jRo7JCQkh0dLSTk5Oenp5QKPT19cXtangzyK0BAACgB0tISHBzc1NVVW1Z+Pz58/Ly8rt376ampl69ejU6Olp2KDY21sDAIDIycsWKFbLCnJwcX1/fnTt3VlZWpqSkJCYmnj59uvveA/Qi2N8aAAAAejB6QUjb8sDAQB6PJxKJRo8eLZFIFDdiYmKSkZHh5uZWXV1dXl5uaGhYVFTUNfFyGhfSvz5MdcyFB0UBAACgSzU3N1+7du3HH39se0gkEtEvVFVVm5ubFbejpqYWHh5+9OhRFRWVYcOG1dbWUhSl/HA5jwvpH2O5NQAAAMBbSkpKGjJkSGcfRuTxeK1KIiIiDh8+nJSUZG1tTQgZN26c0kIEjsH+1gAAANBTtbcgRDF1dXWJRFJbWysrqaqqEggE+vr6FEVFRkYmJyc3NjYqNVIghBvpH2P3rcViMX7bAgAAAG8jLi4uMTGxs2cFBAR89NFHpaWlsscZly1blpiYaG1tra2tPXz4cD8/v/T0dGUHC5xI/3hMvUMej7GuoRuc4jkvpO4oqxoAAPvhugccV/lHFl+oo21rpqAOF9I/7MEHAAAAAG+r8MLtiwPnJYxa+vCHUy/LnjEdDmOQWwMAAEDvt23bNqZD4IRn9x789+/fnzfzvOW5ISfsl6Z6zv0JHuxvDQAAAL0f/hZMd2pulBZeuH1n6bZzph53/INLrt4lFEW4kf5hf2sAAIBudYrnzHQIXPQl0cbIdz9pVU1O+KWc8Ev0lxlU70//sL81AABAt8KzjNArpQcfydgW2qpQTahj6jnO0n+m0WQn0mZb8V6JyfvWDg4OTPUOAAAAnILEozup8NWMpzqbe082n++mqimQlXNhFrC/NQAAAPR+SDy6h67jIEu/mQMWT1U30G17lAuzgDUhAAAAAPC2TDzGWS6ZoXh/ay5Abg0AAAAAb0tvlD3TIbAC9rcGAAAAAFAO7G8NAAAAvR8SDzbgwiwwlltjf2sAAADoNkg82IALs4A1IQAAAAAAyoH71gAAAND7IfFgAy7MAmO5tVgsZqprAAAA4BokHmzAhVnAmhAAAAAAAOVAbg2sVpudX/lHFtNRAAAAAHQIcmtgI2lVTU7YLzfc11+0m1944TbT4QAAAAB0CGN/l5ELGxxCZzU3SosvJ+dFXcuLSWyqb2A6HAAA6D2QeLABF2aBsdyaCw+KQsc9u/cgJ+yX3MiEl2XPmI4FAAB6ISQebMCFWeBRFMV0DNALneI5L6TudKRaBxuUtdbqFJSjHOUo71nlba977IwT5SjvovJej7HcOiMjw8HBgZGuoRt0PLemqym4b+0Q9L44eGWXRAkAoDydve5BN0PiwQZcmAXG1oSIxWLcMgcZXcdBuo6Dhu1aj/XWAADQFZB4sAEXZgH7hACLqPDVTDxdncOCZxdccP53kNGU0YTHYzooAAAAgI5i7L41gAJqQh1L/5mW/jNrs/Mbq2qYDgcAAACgQ5BbA6tp25oxHQIAAABARzG2JoQLGxwCAAAASyDxYAMuzAJjuTUXNjgEAAAAlkDiwQZcmAU8ywgAAAAAoBy4bw0AAAC9HxIPNuDCLDCWW4vFYqa6BgAAAK5B4sEGXJgFrAkBAAAAAFAO5NYAAAAAAMqB3BoAAAAAQDmwvzUAAAD0fkg82IALs4B9QgAAAKD3Q+LBBlyYBawJAQAAAABQDty37oVqampKS0uZjgIAAIBFkHiwARdmAftbE0LI9OnTd+/enZ+fz+PxqqqqOn5idnY2j8draGjoutjeIBIXF5e0tDSmIwIAAGARViUenMWFWcCakP+fvr5+VFSUlpYW04G8rYqKCqZDAAAAAOAi7ubW8fHxYrFYS0trwYIFtbW1hJCKigpvb++6ujqKojZv3mxiYmJgYDBp0qSUlBRCSE5OjpaW1meffTZ+/HgHB4cvv/ySoqiWDUZHRzs5Oenp6QmFQl9f34aGhlWrVi1atEhWYeTIkcePH295SnZ2tkgkWrVqVd++fQ8dOpSenj5lyhRdXV07O7vQ0FBCiNxIWt0sp2+6y9r08vIqKyvz8fE5evRoV40dAAAAAMjD0dw6Pz/fy8try5Ytz58/9/T0/PXXX1seTUhIiIqKun//fnFx8ciRIzdt2kSX19fXNzQ03Lx5Mzk5+dy5cyEhIbJTcnJyfH19d+7cWVlZmZKSkpiYePr0aX9//7i4uLq6OkJIVlbWw4cP586d2yqSiooKDQ0NiUQyffp0d3f3iRMnlpaWRkdHBwcHX7x4sb1IFIiNjTUwMIiMjFyxYsXbDhMAAAAAdAZH97c+c+aMg4PD4sWL+/Tp4+fn5+zs3PKoUCgsKSkJDQ3966+/du3alZCQIDv0xRdfEEJ0dHRWrlx54sQJWbmJiUlGRoabm1t1dXV5ebmhoWFRUdG4ceOMjY3PnTtHCDl+/LiXl5fcBSeBgYFGRka//vorn8/funWrmpra0KFD16xZExISoiASAAAA6Dgu7KzMflyYBY7uE1JUVGRmZib70srKquVRZ2fnsLCw+Pj4kSNHWltbR0RE0OUCgUBPT49+LRKJiouLZaeoqamFh4ebmZmJxeJt27bV1tbSK0b8/PwiIyMpijpx4oSfn5/cYMzNzQkhubm5hYWFwv/ZsWNHfn5+e5G01GppCgAAALTFhR0q2I8Ls8DRNSGmpqZPnjyRfVlQUNDyaG5uro2NTWJiYmVl5aeffurv709vadfQ0CDb2y47O5vOiWkRERGHDx++efPm06dP4+LijI2N6XI/P7+EhITr16+/fPly8uTJcoPh8Xh0SPb29lX/8+jRowsXLsiNREVFhRAilUrp09s+uUg3CAAAAADdjKP3refNm/fkyZNDhw69evUqJibm9u3bLY8mJSV5eHhIJBJNTU2RSKShoaGpqUkf2rx584sXL9LS0vbt2xcQECA7paqqSiAQ6OvrUxQVGRmZnJzc2NhICLGxsRk1atSGDRt8fX3pnLg9np6eRUVFe/fulUqlBQUFU6dO3bt3r9xI+vfvr62tffjw4YaGhuPHj6emprZqSl1dXSKR0A9oAgAAAGE68QAaF2ahD1Mdi8VixYsZarPzG6tq9EbZd0XvxsbGFy9eXL9+/YYNG8aOHTt9+vSWR318fLKysiZOnPj8+XMbG5vY2Fhtbe3y8nJCiIGBgZWVVZ8+fTZv3rxkyZLs7Gz6lGXLliUmJlpbW2traw8fPtzPzy89PZ0+5O/v/8EHH4SFhSkOSU9P78qVKx9//PFXX33F5/MXLly4fft2Pp/fNhJCyMGDB7/66qugoKA5c+b4+Pi0aiogIOCjjz4qLS0NCgpSynABAAD0dK9NPKAbcGEWeEy9Qx5PftfSqpqC87dywi+VXPvd4csV4uCV3R+bXDk5OVZWVjU1NXR223G//PLLli1b6O3zuOMUz3khdUdZ1QAA2A/XPZZrL/GA7sSFWWDsvnUrzY3S4svJeVHX8mISm+qZ/zOHSvH8+fPc3Nx//OMfq1atYjoWAAAAAOhyzOfWz+49yAn7JTcy4WXZM6ZjUbLHjx+PGzfOzc1t5Uq23H0HAAAAgK7DWG4932zoKZ6z4joZ20KrMx6PifqWEJIXdS1pwRbZIfP5bt1ffpKMTlv2TafauTL/b+yJvzvLAQAAWIULOyuzHxdmgflVLwruWzsEvc+e9dbQKVh3CABcg+seABA2rAnRdRyk6zho2K71vW+9NQAAAABwClv2t1bhq5l4ujqHBc8uuOD87yCjKaMJ/gAKAAAAKAkXdlZmPy7MAuv2t1YT6lj6z7T0n0nvb939gQEAAEDvw4WdldmPC7PA/JqQ9mjbmjEdAgAAAABAJzC2JgQAAAAAoJdBbg0AAAAAoByM5dZc2OAQAAAAWAKJBxtwYRbYsk8IAAAAQNdB4sEGXJgFrAkBAAAAAFAO3LcGAACA3g+JBxtwYRYYy63FYjFTXQMAAADXIPFgAy7MAtaEAAAAAAAoB3v/dgz0dKd4zkyHAADQrXDdAwAeU395ksdjrGtgBGYcALgG1z1WwXSwARdmAftbQzfBjAMA1+C6xyqYDjbgwiz0/v89AAAAAAB0DzzLCAAAAACgHNjfGroJZhwAuAbXPVbBdLABF2YBzzJCN8GMAwDX4LrHKpgONuDCLGBNCAAAAACAciC3BgAAAABQDuTWAAAAAADKgf2toZtgxgGAa3DdYxVMBxtwYRZ6/4pyAAAAAIDugTUhAAAAAADK0YfpAKCbnOI5Mx0CKyyk7jAdAgAoHy5xnfL2V0IMeLdRMFmYhW7TqR8Z5NYcspA6zHQIDDvFW810CADQVXCJ6yBlXQkx4N3gtZOFWegGnf2RwZoQAAAAAADlQG4NAAAAAKAcyK0BAAAAAJQDuTUAAAAAgHIgtwYAAAAAUA7k1gAAAAAAyoHcGgAAAABAOZBbAwAAAAAoB3JrAAAAAADlQG4NAAAAAKAcyK2hN6ipqSstrWQ6CgCA7oPrHgA7KT+31tbWPnv2bMuS6dOnb9y4UekdgdJpa485ezaxZcn06YEbN36v3F4+/PA7Hm/EnTv3ldimi4t/WppEiQ0CQK+krT2GxxtB/+vTx9HExP3vf9/V1NTcXv3s7Dweb0RDQ6Pco/n5JTzeiKqqmjeORyBwlsWjqeni6rr8+vW7HTy3p1z37ty57+n5oa7ueE1NlxEjFv3448nm5nYHvFMmTnw/OPgQ/Vo2kqqqjrq64z08/paZ+VjuWW8z5m219z0wfXrg7t1hb9yscnX2254NCgvLliz53NDQTV19tJ3d7K++Cnn1qonpoDoK962hW7148TI8/OKKFXN++OGEEputqHiuxNYAoBeLjNxRU/NrTc2vpaXXQ0K+OHbs3IEDp9+sKX19YVTULi0tjbeJ5+efv8rLi8/Li09NPe3sLJ416+9FReUdObFHXPfOn//PxInv29qaX716+MGDs598svS7735euHBzV/RFj+TjxxcuXz4gEPBdXZfn5hYpqPkGY96WUr4HuoESv+27x9y5Hz97Vh0X90NmZuyuXR8dORK7ZcuPTAfVUd2aW1MUtXnzZhMTEwMDg0mTJqWkpNDl6enpU6ZM0dXVtbOzCw0NJYRkZ2eLRKJVq1b17dv30KFD3RkkyEVR1ObNP5iYuBsYTJo0aWVKyl90eXp69pQpq3V1x9vZzQ4NPUMIyc7OE4kmrlq1vW/fcYcORbdq5+TJeFtb8y++WBUbe72wsExWnpDw25Ah3kKhq6fnhz4+n27dul9u4zk5hUKh686dPzk5+ZqaTl269Aup9JWX14aysmc+Pp8ePXqWAAAoJBDwtbU1tbU19fT6eXiMnzrV5Y8/MuhDba85MqtWbV+06FPZlyNH+hw/frGiosrb+5O6uhdyL02knStbK/r6/czMjMzMjAYOtPj663V1dS/S07MJIdHRV52cfPX0JgiFrr6+WxoaGlteXXm8EbLrntzYumLoOquxUbp69favvlr7z39udHS0t7AwXrx4xo0boRcu3Dxz5npOTqGW1rufffav8eNXODjM+/LLAxRFkQ5f+dt2R4+iL4h3AAAX3klEQVTkgAH9R48Wnzr1nbm50Xff/Sw3MLlj3urDKykp1dV1eb9+4wYOnPWvf0VSFOXru2Xduh10CxRFWVrOjIm5JvseIITExyeJxfO1tN5dsGBTbW09XbOzn5JdpFPf9u194rcdk1a/2KHv1rd6g3fu3B8zZqmOzlhra4+ffz7fXqctURR1717mJ58sdXYeYmNjNnv2xAMHPqMHWe65rX402k7Ta89S7kR0a26dkJAQFRV1//794uLikSNHbtq0iRBSXV3t7u4+ceLE0tLS6Ojo4ODgixcvEkIqKio0NDQkEsmCBQu6M0iQKyHht6ioK/fvRxcXXxs50n7Tpr2EkOrqOnf3DyZOHFVaej06endw8KGLF28RQioqnmtoqEsk5xYscG/VzqFD0atXzx8woL+7u4vsP835+SVz5368YYNfefmNJUtmnjqVoKDx589ry8ur7t49npp6+urVO9HRV2Nj9xgY6EZG7lixYk63DgoA9HC3bv2ZmPiHi8tQ0v41h+bv7xEX9x/60z0r68nDh7lz57q1bKrtpUnulU2BhobGfftOCgT8IUMG5uQU+vpu2bnzw8rK/6SknEpM/P306QTS4upaUXFDdt17bWxMSU6+X1xcsXz5/7ky29iYzZzpGht7nRBSX9/Q0NB48+bR5OSwc+duhITEdPzKr7hrVVUVL6/JN278obhayzEnLYbXxWWIu/sHixZNKy+/cfr0dzt3/nT06NmAgFmnTyfQKxNu3fpvTU29p+d4WVP5+SVeXh9v2bLi+fPbnp4Tfv01hbzRp2Q3eO23vdxP/KdPi9uOSXtdyN7glCnOM2asW7BgamXlf06c+DYw8Ns//8xS/LNGCOHxeMuXz1m1avv334f/8UemVPrK03PC/v2ftRdwyx5PntzRdpq6eSK6NbcWCoUlJSWhoaF//fXXrl27EhISCCFxcXF8Pn/r1q1qampDhw5ds2ZNSEgIXT8wMNDIyEhPT687gwS5hEKdkpKK0NDYv/7K2bXr7wkJBwkhcXH/4fPVtm5dqabWZ+jQgWvWeIeExND1AwMXGhnp6+n1a9lISspfDx/m+vhMJ4SsW7fw8OFo+j+70dFXxWLbgIBZffqoLlw4zc3N6bWN83g8kUg4erRYInnaneMAAD2dr+8WodBVKHTV0HBetOjTdesWrlo1jyi85hBCxo0bYWwsOnfuBiHk+PGLXl5ubZcBtLo0yb2yteXt/Ym29hht7TEaGs67d4cdO7bN2FjfxMQgIyPGzW10dXVdeXmVoaFeUVGZrJdWV9eOxMaI4uJyPl9NX79fq3JzcyPZ2/nii5WEEB0drZUrvU6cuKTEK7+BgW5lpfxlM3LHXNaLkZH+9et37e2tAgMXqqn1GTFi0MaN/seOnZ08ebRAoH7lSjIhJCLil8WLZ/D5arI2z5xJdHCwWbx4Rp8+qn5+7zk7DyGd/5TsOp36tpf7iR8dfaXtmCjokX6Dyclp+vr9/v53XzW1Pi4uQ3799WdrazPFP2u0kJAvdu/+ODX1obf3J0Khq7f3J/Skv3ZIvb3d205TN09EHyW2RRMIBI2N/+exj8bGRoFAQAhxdnYOCwvbt29fUFCQsbHxN9984+vrm5ubW1hYKBQK6cpNTU12dnb0a3Nzc6WHBwoIBPzGRmnLksZGqUCgTghxdh4SFvb1vn0ng4IOGRvrf/PNOl/fmbm5RYWFZUKhK125qanZzm4A/drc3JgQ8uGH3+3ff4ouefny94MHo2pr6y0sptMlFRXPT5z4ZfnyOfn5JRYWxrJOLS1NCCEKGheJ/t93i6qqirKeiQEAjvjnPzdOnfpuSUnFhx/usrQ02bJlhaqqClF4zaH5+b0XGRnv4zP9xIlLISFftG251aVJ7pWtrX/9a/OkSU48Hk9LS0OW4amp9QkPv3D06FkVFZVhw+xqa+sp6v/Vp6+urbw2Nkb07y9qbJQWF1fI3hctJ6fQ2FhECBEI+LKcRiTSLS6uUOKVv7S00tBQ/r05uWNOo4e3pKSy5XxZWZk+fVqsoqLi5/deRMQvkyePjoq6cuXK/1mwWlRUZmZm1OKU13yQyZ3HrtOpb3u5n/hyx6RVL5Ts2/R/b7C4uKLlsAwf/k57nbZqqq7uxaxZE2bNmkAIyc8v2b79yMSJ7z96dOG1Qyp3mrp5IpSfW5uZmT18+FD2ZXNz84MHDxYuXEgIyc3NtbGxSUxMrK+vDwsL8/f3d3d3NzU1tbe3T0tLo+uXlpY2NTXV1dURQng8ntLDAwXMzIwePsyVfdnc3PzgwZOFC6cSQnJzi2xszBITj9TXN4SFXfD3/8Ld3cXU1NDe3jot7f8t7SgtrWxqaqZ/L0nP3aefLl+50os+Wl//4sSJS2fOfE//aBFC9u8/9cMPJ5Yvn2Nubnzr1n9l/ebllRgbi+Q2/vKl/Kf18Z0CAB1kaKhnaWliaWly+fIBJydfP7+tp09/RwhRcEGj+fl5fPvtsevXf3/5snHy5NGv7Ujula1ttf79Rba2rW8kRUT8cvhwTFLSz9bWZoSQceOWyQ7JPhlbXvc6G1v3ePfdYf37iw4ePL1t2xpZ4aNH+QkJvx0//g0hpKGhUZYBZ2c/NTc36tSVX4Hm5uazZxMnT3aWe1TumNPo4bWwML569Y6s8PHjfDoFDwiY5ei4+OzZRFNTQ0dH+5Ynmpoa/vLLbdmXBQVljo6Kvqm6OcPp1Le93E98uWOiosIjhEilUoGATwipqKiSVaDfoJmZUX5+iazw4MEosdhGbqctoz17NtHXd0tx8VUdHS26ka+/DgwJicnLK+7IkLadpm6eCOWvCVm8ePGePXvCwsIePnyYnJy8bNmyurq62bNnE0KSkpI8PDwkEommpqZIJNLQ0NDU1PT09CwqKtq7d69UKi0oKJg6derevXuVHhV0xOLFM/bsCQ8Lu/DwYW5y8v1ly4Lq6l7Mnj2JEJKUlOrh8TeJ5KmmpkAkEmpoqGtqCjw9xxcVle3dGyGVviooKJ06dc3evREtG+zfXyQW29L/jh//xdBQz8NjPP0EiZmZ0Zo1C9LTH9248ceiRdMyMh6Fh19sbJTGxFyjf3pf23hL6up8ieSp7NkRAIDX6tdP++TJHWfPJh4+HE06cM2xsTEbNWrwhg17fH1nqqi8/tNT7pWtg6qqagQCvr6+kKKoyMj45OS0Vr9UJP/3utfZ2LpHnz6qR458+d13P3/yyT/T0iRPnxafOnV58uRVU6e+K1sRvnnzDy9evExLk+zbdyogYFanrvytVFQ8z88vefq0OCkp1dt7U3Fx+caN/m8W+bx5U7Kzn+7ff0oqfZWa+vD774/7+3sSQgYOtBgyxPaTT/4ZEDCr7SlPnhQcOhT96lVTTMy127f/Szr5QdY9OvJtL/cTX+6Y9O9voK2tefhwTEND4/HjF1NTH7bqbvr0MVVVNfv3n3r1qunOnfuffvqDlpbGa4dl+vSxpqaGnp4fnj2bmJn5+Pr1u++/v83Bwcba2qwjQ9p2mrp5IpT/E7hx48bPPvvs22+/HTp06IwZM0pKSm7cuGFsbEwI8fHxWb58+cSJE7W1tbdv3x4bG6utra2np3flypXz588bGRk5OjpOmDBh+/btSo8KOmLjRv/PPlv+7bdHhw5dMGNGYElJ5Y0bofR/1n18pi9fPnvixPe1tcds3x4SG7uHftz4ypVD58//x8hosqPj4gkTHLdvX9te44cPR/v6zmhZYmFhPGWK8969EUZG+qdPf/f110f09SceP37R1XUEn6/WqcYDAmZ99NHuPXvClTgaANDrjRxpv23bmg0bvpdInnbkmuPv75Ga+tDPz6Mjjcu9snUwsGXLZjs6Dra29rC0nHnyZLyfnwe9eUhLra57nYqt27z3nut//nNUInnq5rZy0KA533577KOPlsTE7JHdLDQw0LWyem/mzHWbNwcsWfJep678rQQEfGluPt3a+r358zcKBPzbt382MTF4s7CNjfXj4w9ERsaLRBNnzfpw/fpF69cvog8tWza7sLBsyZKZbU+5ePHHw4ej+/Ubd/hw9PTpYwghb/N2us5rv+3lfuLLHRMNDfWDB7eEhMTo60+4dOlX+nmqloRCnfj4AydPXtbXn+DntzUk5IuRI+1fOywCAf/GjVBra7N163YMH75w0aJP+/bVvnz5gKqqSgeHtNU0dfNE8FoujoFe7BTPeSF1WEEFb+9PXvvkNcudPv2dt7eiR31P8VYvpDpx6wgAeorXXuIyMh6JxfO7LR4GDR5snZHR+smwlpRyJXztgAcHH9q2TVEFIIQEBa0ODv5AQQXFk4VZUIq3nIW2lL/eGnqoqKhdTHWdkfHI2dnv5s2jw4e/c/nyb/PmbUhJOdX2yQYAgDfm4GBDUf99fb12PH9em5tbtHbtPxYvnrF2bYd2hu22K9sbxNYNgoM/UJyv5OQUWlm9V1Pzq7a2ZrdFxTWvnQXoCsitgXkODjZ79nw8f/4nxcXlNjbmJ058i8QaAFjl8eP8ceOWubmNlj2f/VrddmV7g9gAoOsgtwZWWL16/urVnPh1LQD0RCNGDKqr+62zZ3XPle3NYmOcpaXJ2/wmAYC12PI0MQAAAABAT4fcGgAAAABAOZBbAwAAAAAoB3JrAAAAAADlQG4NAAAAAKAcyK0BAAAAAJQDuTUAAAAAgHJgf2sOOcVbzXQIAABdBZe4boYBZwPMAgvxKIpiOgYAAAAAgN4Aa0IAAAAAAJQDuTUAAAAAgHIgtwYAAAAAUA7k1gAAAAAAyoHcGgAAAABAOZBbAwAAAAAoB3JrAAAAAADlQG4NAAAAAKAcyK0BAAAAAJQDuTUAAAAAgHIgtwYAAAAAUA7k1gAAAABKVl5ezuPxsrOzmQ6kq+zevdvFxYUQUlVVxePxHjx4wHREbIHcGgAAAADekEAg+Pzzz0UiEdOBsEUfpgMAAAAAgJ5KIBB8/fXXTEfBIrhvDQAAAD3SsGHDfvjhB/r1nDlzHB0d6dcxMTEDBw58m6Md74UQUlhY6OXlpaWlZWFhsWnTppcvX8rOPXPmjIWFhba29urVq2Xlhw4dsrKyEggEw4cPv3z5Ml3YXiNZWVkTJkzQ0NBwcXHZsWMHvQwjPz+fx+Pl5OTQdWTLM9prh16gcuzYMWtr6759+86YMaOwsJCuX1BQMHfuXB0dHRMTk+DgYMXBZGRkuLq6amhojBs3rqioiC5suSbk999/d3Nz09bW1tTUdHd3z83NpetkZmaOHz9eQ0Nj5MiRO3bsGDRoECGkuLiYx+Pt2bNHT09v2bJl7Z1OBx8REWFlZaWpqblo0aL09PSxY8dqaWmNHz++oKBAwai2JPed5uXlzZ8/X09PTyQSrV+/vqGhoeM9tosCAAAA6IE++eST2bNnUxTV3Nysp6fXp0+f6upqiqI++OCD9evXv83RjvdCUZSzs/O8efPS09OTkpKGDx/+t7/9jaKosrIyQoilpeWNGzd+/fVXW1vbtWvXUhSVlpampaUVHx//5MmTzz//XEdHp7a2tr1GXrx4YWFhERAQ8PTp0/DwcC0tLWdnZ4qi8vLyCCFPnjyhI9y1axddrjgYFxeXvLy8wsLC4cOH08G8evVKLBZPmzYtNTX12rVrIpEoJCREcTBLlizJyso6cuQIn8+nO3327Bn9f4Camho9Pb0NGzY8evQoOTl5yJAhy5YtoyiqoaFhwIABvr6+mZmZP/30k4aGxjvvvENRFJ2du7i43Lhx486dO+2dTgc/YcKEsrKyhw8fCgQCY2Pj33//vbKyctSoUevWrVMwqjJy3+mLFy+sra09PDzS0tKuXbtmbW1ND0tHelQAuTUAAAD0SFevXtXV1W1qakpNTbW1tbWzs7t8+TJFUTY2NhcvXnybox3v5caNGxoaGvX19XTlpKQkNTW1ly9f0vlZdHQ0XX7mzBl1dfWGhoZz58717dv3wYMHFEW9fPkyISGhoaGhvUboyrI0ccWKFYpza8XBxMXF0eV79uwZOXIkXV9NTa2kpIQuP3XqVGRkZHuNnD17tmXOumzZsla5dXFx8TfffNPY2EhX2LFjx+jRoymKiomJ0dXVrauro8vXrVvXMreOjY2ly9s7nQ7+0qVLdPmoUaPoDJiiqG3btrm5uVEUJXdUW06i3Hd6+vRpbW3tqqoquvDSpUuqqqpVVVUd6VEBrLcGAACAHmncuHEvX75MS0u7deuWq6trU1PT7du3Bw4cWFBQMHHiRFVV1Tc+2vFewsLCGhoaDAwM6MoURUml0idPnujr6xNCZEs1Ro0a9fLly8ePH7u7u48cOXLQoEEjRozw9PRcsWKFurp6VlaW3EYePHgwcOBALS0tutzZ2Tk9PV3BgLTXDh3MgAED6HJNTc3GxkZCSGZmppmZmaGhIV2+YMECQsihQ4fkNpKZmdkyGCcnp8zMzJa9GxkZBQYGhoaGpqamZmVl3b1718HBgRCSlpY2ePBgTU1Nutq777575coV2Vk2NjaKT6eZmZnRL9TV1WWv+Xw+vV5F7qi2jE3uO/3qq68GDRrUr18/WWBNTU0SicTS0vK1PSqA3BoAAAB6JHV19YkTJ964ceP27dvvvfdeU1PTiRMnzMzMxo8fT2dyb3O0g728evXKwsLi6tWrLU8xNzevqamhz6VL+vTpQ3+poaFx/fr1mzdvnjt3Ljw8fN++fb/99lt7jWhqajY1NclK1NTU6Bc8Hq9lzVevXsleKAhGdjohhKIoQgifz2/VlIJGWlXj8/mtSoqKipycnAYMGPDee+/NmjXr3r17586do997c3Nzq65lZKPd3uk0egDlvn1CiNxRtbOzaxlt27PU1dVbFtKByQZccY8K4FlGAAAA6KmmTZuWmJh4+/ZtV1dXV1fXO3fuXLhwYcaMGW9/tIO9vPPOO/n5+QKBwNbW1tbWtqqq6vPPP5elkg8fPqRf3L9/X1NT08LC4ubNm//85z8nTJjw/fffP3z4UEtL68qVK+01Mnjw4IcPH1ZVVdGNpKSk0C/ovPb58+f0lxKJhH6hOJi2Bg4cmJeXV1FRQX+5Z8+eRYsWtdeIWCx++PBhdXV1q2BkYmJimpubb926tWXLlpkzZxYVFdHZqoODQ1ZW1osXL+hq9+7dkxtMe6d3hNxRfe07tbe3z8rKkg1jcnKyqqqqra1tBzttl+IlIwAAAACs9eDBAz6fb2xsTH9pZGTE4/GysrLe/uhPP/0UGRn52ppNTU3Dhg1zdXVNSUn5888/hw4dOmfOHOp/q4Td3d1ra2vLy8udnJy2bt1KUdStW7fU1NTCw8Pz8vJiYmL4fH5SUlJ7jTQ3Nzs6Os6ZM+fBgwdRUVGyZxmbm5stLS3nz5+fmpoaEhKip6dHlysORvbWDh486ODgQLczcuTIuXPnPnjwIDEx0cjIKDQ0tL1GXr58aWdn5+3t/ddff508eVJbW7vVeuuIiAiBQHDz5s3Kyspjx46pq6vTvUilUktLS39/f7qOpqbmoEGDqP+tt5ZIJHRU7Z3eKvixY8d+++239Otvv/127Nix7Y1qy0mU+06lUqm9vf2cOXMyMzNv3rxpa2u7ZMmSDvaoAHJrAAAA6MEsLS29vb3p1/Pnzx8wYIBSjk6ePHnevHkdqZmTk+Pp6amlpaWvrx8QEEA/G0fnZ7t27XrnnXf09PTWr18ve0rv0KFDtra2fD7f1tb26NGjChqhKCo3N3fatGnq6uqjRo1as2aNbD+Q69evDx48WF1dfdq0aQcOHJCVKwimbW5NUdSTJ09mzJghEAjMzMx27NihOJhHjx5NnjxZQ0NjxIgRn3/+eavc+tWrV2vWrNHV1e3Xr5+bm9vBgwcFAgG9p0pqaqqzszOfz3d0dFy7du3QoUOpNrl1e6d3MNOVO6otJ1HuO83Ozp4xY4aGhoahoeGGDRtevHjRdrg6m1vzqA7fbwcAAAAApuzevTs6Ojo5OZnpQDqnqKgoMzNz8uTJ9JdBQUF37tyJj49nNqqug/XWAAAAANBVGhsbp0+ffuzYsdzc3EuXLh08eNDb25vpoLoQ9gkBAAAAgK4yYMCAsLCw7du3r127tn///ps2bVq+fDnTQXUhrAkBAAAAAFAOrAkBAAAAAFAO5NYAAAAAAMqB3BoAAAAAQDmQWwMAAAAAKAdyawAAAAAA5UBuDQAAAACgHP8f74JS3R8Y1yQAAAAASUVORK5CYII=;" parent="uQrIupll_dQ1h0g__u3G-1" vertex="1">
            <mxGeometry x="127" y="14" width="915.77" height="757" as="geometry" />
          </mxCell>
        </UserObject>
      </root>
    </mxGraphModel>
  </diagram>
  <diagram id="ZV9XUn98Z_LCcT2vIz-n" name="Session Handling -  Happy case">
    <mxGraphModel dx="1188" dy="808" grid="0" gridSize="10" guides="1" tooltips="1" connect="1" arrows="1" fold="1" page="1" pageScale="1" pageWidth="1169" pageHeight="827" math="0" shadow="0">
      <root>
        <mxCell id="0" />
        <mxCell id="1" parent="0" />
        <mxCell id="7zd6Dn-kyFeJ42l4oRzk-3" value="Portal-Gateway" style="rounded=0;whiteSpace=wrap;html=1;verticalAlign=bottom;fillColor=#f5f5f5;fontColor=#333333;strokeColor=#666666;" parent="1" vertex="1">
          <mxGeometry x="160" y="550" width="840" height="210" as="geometry" />
        </mxCell>
        <mxCell id="7zd6Dn-kyFeJ42l4oRzk-38" value="Session" style="rounded=1;whiteSpace=wrap;html=1;fillColor=#dae8fc;strokeColor=#6c8ebf;labelPosition=center;verticalLabelPosition=middle;align=left;verticalAlign=top;" parent="1" vertex="1">
          <mxGeometry x="160" y="580" width="840" height="90" as="geometry" />
        </mxCell>
        <mxCell id="7zd6Dn-kyFeJ42l4oRzk-1" value="Browser" style="rounded=0;whiteSpace=wrap;html=1;verticalAlign=top;fillColor=#f5f5f5;fontColor=#333333;strokeColor=#666666;" parent="1" vertex="1">
          <mxGeometry x="160" y="180" width="840" height="90" as="geometry" />
        </mxCell>
        <mxCell id="7zd6Dn-kyFeJ42l4oRzk-2" value="time" style="endArrow=classic;html=1;rounded=0;" parent="1" edge="1">
          <mxGeometry width="50" height="50" relative="1" as="geometry">
            <mxPoint x="120" y="80" as="sourcePoint" />
            <mxPoint x="1040" y="80" as="targetPoint" />
          </mxGeometry>
        </mxCell>
        <mxCell id="7zd6Dn-kyFeJ42l4oRzk-4" value="1" style="endArrow=classic;html=1;rounded=0;exitX=0.095;exitY=1.026;exitDx=0;exitDy=0;exitPerimeter=0;entryX=0;entryY=0;entryDx=0;entryDy=0;fillColor=#dae8fc;strokeColor=#6c8ebf;strokeWidth=2;" parent="1" source="7zd6Dn-kyFeJ42l4oRzk-1" target="7zd6Dn-kyFeJ42l4oRzk-5" edge="1">
          <mxGeometry x="-0.8952" y="-4" width="50" height="50" relative="1" as="geometry">
            <mxPoint x="560" y="450" as="sourcePoint" />
            <mxPoint x="610" y="400" as="targetPoint" />
            <mxPoint as="offset" />
          </mxGeometry>
        </mxCell>
        <mxCell id="7zd6Dn-kyFeJ42l4oRzk-5" value="regenerateId()" style="rounded=1;whiteSpace=wrap;html=1;" parent="1" vertex="1">
          <mxGeometry x="320" y="589" width="200" height="18" as="geometry" />
        </mxCell>
        <mxCell id="7zd6Dn-kyFeJ42l4oRzk-6" value="" style="endArrow=classic;html=1;rounded=0;exitX=1;exitY=0;exitDx=0;exitDy=0;entryX=0.523;entryY=0.996;entryDx=0;entryDy=0;entryPerimeter=0;fillColor=#dae8fc;strokeColor=#6c8ebf;strokeWidth=2;" parent="1" source="7zd6Dn-kyFeJ42l4oRzk-5" target="7zd6Dn-kyFeJ42l4oRzk-1" edge="1">
          <mxGeometry width="50" height="50" relative="1" as="geometry">
            <mxPoint x="249.80000000000018" y="282.3399999999999" as="sourcePoint" />
            <mxPoint x="250.0000000000034" y="580" as="targetPoint" />
          </mxGeometry>
        </mxCell>
        <mxCell id="7zd6Dn-kyFeJ42l4oRzk-7" value="" style="endArrow=none;html=1;rounded=0;entryX=0.427;entryY=1.003;entryDx=0;entryDy=0;exitX=0.5;exitY=0;exitDx=0;exitDy=0;dashed=1;endFill=0;entryPerimeter=0;" parent="1" source="7zd6Dn-kyFeJ42l4oRzk-8" target="7zd6Dn-kyFeJ42l4oRzk-1" edge="1">
          <mxGeometry width="50" height="50" relative="1" as="geometry">
            <mxPoint x="520" y="710" as="sourcePoint" />
            <mxPoint x="540" y="690" as="targetPoint" />
          </mxGeometry>
        </mxCell>
        <mxCell id="7zd6Dn-kyFeJ42l4oRzk-8" value="flush" style="text;html=1;strokeColor=none;fillColor=none;align=center;verticalAlign=middle;whiteSpace=wrap;rounded=0;" parent="1" vertex="1">
          <mxGeometry x="490" y="780" width="60" height="30" as="geometry" />
        </mxCell>
        <mxCell id="7zd6Dn-kyFeJ42l4oRzk-9" value="2" style="endArrow=classic;html=1;rounded=0;exitX=0.194;exitY=1.019;exitDx=0;exitDy=0;exitPerimeter=0;entryX=0.296;entryY=-0.016;entryDx=0;entryDy=0;entryPerimeter=0;fillColor=#ffe6cc;strokeColor=#d79b00;strokeWidth=2;" parent="1" source="7zd6Dn-kyFeJ42l4oRzk-1" target="7zd6Dn-kyFeJ42l4oRzk-38" edge="1">
          <mxGeometry x="-0.8776" y="-5" width="50" height="50" relative="1" as="geometry">
            <mxPoint x="290.00000000000017" y="272.3399999999999" as="sourcePoint" />
            <mxPoint x="370.20000000000135" y="570" as="targetPoint" />
            <mxPoint as="offset" />
          </mxGeometry>
        </mxCell>
        <mxCell id="7zd6Dn-kyFeJ42l4oRzk-14" value="3" style="endArrow=classic;html=1;rounded=0;exitX=0.194;exitY=1.019;exitDx=0;exitDy=0;exitPerimeter=0;entryX=0.389;entryY=0;entryDx=0;entryDy=0;entryPerimeter=0;fillColor=#ffe6cc;strokeColor=#d79b00;strokeWidth=2;" parent="1" target="7zd6Dn-kyFeJ42l4oRzk-38" edge="1">
          <mxGeometry x="-0.8848" y="-5" width="50" height="50" relative="1" as="geometry">
            <mxPoint x="400.00000000000006" y="272.79" as="sourcePoint" />
            <mxPoint x="477.28000000000003" y="550.0000000000001" as="targetPoint" />
            <mxPoint as="offset" />
          </mxGeometry>
        </mxCell>
        <mxCell id="7zd6Dn-kyFeJ42l4oRzk-15" value="4" style="endArrow=classic;html=1;rounded=0;exitX=0.194;exitY=1.019;exitDx=0;exitDy=0;exitPerimeter=0;entryX=0;entryY=0.25;entryDx=0;entryDy=0;fillColor=#ffe6cc;strokeColor=#d79b00;strokeWidth=2;dashed=1;" parent="1" target="7zd6Dn-kyFeJ42l4oRzk-17" edge="1">
          <mxGeometry x="-0.873" y="-6" width="50" height="50" relative="1" as="geometry">
            <mxPoint x="481.36" y="270.00000000000006" as="sourcePoint" />
            <mxPoint x="558.64" y="547.21" as="targetPoint" />
            <mxPoint as="offset" />
          </mxGeometry>
        </mxCell>
        <mxCell id="7zd6Dn-kyFeJ42l4oRzk-16" value="5" style="endArrow=classic;html=1;rounded=0;exitX=0.194;exitY=1.019;exitDx=0;exitDy=0;exitPerimeter=0;entryX=0;entryY=0;entryDx=0;entryDy=0;fillColor=#ffe6cc;strokeColor=#d79b00;strokeWidth=2;dashed=1;" parent="1" target="7zd6Dn-kyFeJ42l4oRzk-20" edge="1">
          <mxGeometry x="-0.8781" y="-5" width="50" height="50" relative="1" as="geometry">
            <mxPoint x="570" y="271.79" as="sourcePoint" />
            <mxPoint x="647.28" y="549.0000000000001" as="targetPoint" />
            <mxPoint as="offset" />
          </mxGeometry>
        </mxCell>
        <mxCell id="7zd6Dn-kyFeJ42l4oRzk-17" value="+1" style="rounded=1;whiteSpace=wrap;html=1;fontSize=9;" parent="1" vertex="1">
          <mxGeometry x="565" y="558" width="15" height="12" as="geometry" />
        </mxCell>
        <mxCell id="7zd6Dn-kyFeJ42l4oRzk-18" value="" style="endArrow=classic;html=1;rounded=0;exitX=1;exitY=0;exitDx=0;exitDy=0;entryX=0.581;entryY=0.996;entryDx=0;entryDy=0;fillColor=#ffe6cc;strokeColor=#d79b00;strokeWidth=2;entryPerimeter=0;dashed=1;startArrow=none;" parent="1" target="7zd6Dn-kyFeJ42l4oRzk-1" edge="1">
          <mxGeometry width="50" height="50" relative="1" as="geometry">
            <mxPoint x="643.4624364852339" y="316.0292160670406" as="sourcePoint" />
            <mxPoint x="833.64" y="569.9999999999998" as="targetPoint" />
          </mxGeometry>
        </mxCell>
        <mxCell id="7zd6Dn-kyFeJ42l4oRzk-19" value="6" style="endArrow=classic;html=1;rounded=0;entryX=0;entryY=0.25;entryDx=0;entryDy=0;fillColor=#ffe6cc;strokeColor=#d79b00;strokeWidth=2;exitX=0.581;exitY=0.996;exitDx=0;exitDy=0;exitPerimeter=0;" parent="1" source="7zd6Dn-kyFeJ42l4oRzk-1" target="7zd6Dn-kyFeJ42l4oRzk-46" edge="1">
          <mxGeometry x="-0.873" y="-6" width="50" height="50" relative="1" as="geometry">
            <mxPoint x="650" y="280" as="sourcePoint" />
            <mxPoint x="803.64" y="618.9999999999998" as="targetPoint" />
            <mxPoint as="offset" />
          </mxGeometry>
        </mxCell>
        <mxCell id="7zd6Dn-kyFeJ42l4oRzk-20" value="+1" style="rounded=1;whiteSpace=wrap;html=1;fontSize=9;" parent="1" vertex="1">
          <mxGeometry x="650" y="558" width="15" height="12" as="geometry" />
        </mxCell>
        <mxCell id="7zd6Dn-kyFeJ42l4oRzk-23" value="ips.sessionId" style="shape=hexagon;perimeter=hexagonPerimeter2;whiteSpace=wrap;html=1;fixedSize=1;fillColor=#f8cecc;strokeColor=#b85450;" parent="1" vertex="1">
          <mxGeometry x="210" y="235" width="390" height="20" as="geometry" />
        </mxCell>
        <mxCell id="7zd6Dn-kyFeJ42l4oRzk-25" value="ips.sessionId" style="shape=hexagon;perimeter=hexagonPerimeter2;whiteSpace=wrap;html=1;fixedSize=1;fillColor=#d5e8d4;strokeColor=#82b366;" parent="1" vertex="1">
          <mxGeometry x="600" y="235" width="360" height="20" as="geometry" />
        </mxCell>
        <mxCell id="7zd6Dn-kyFeJ42l4oRzk-26" value="0" style="endArrow=classic;html=1;rounded=0;entryX=0.523;entryY=0.996;entryDx=0;entryDy=0;entryPerimeter=0;fillColor=#ffe6cc;strokeColor=#d79b00;strokeWidth=2;" parent="1" edge="1">
          <mxGeometry x="-0.7406" y="-1" width="50" height="50" relative="1" as="geometry">
            <mxPoint x="174" y="419" as="sourcePoint" />
            <mxPoint x="210.00000000000017" y="270.0000000000001" as="targetPoint" />
            <mxPoint as="offset" />
          </mxGeometry>
        </mxCell>
        <mxCell id="7zd6Dn-kyFeJ42l4oRzk-27" value="" style="endArrow=classic;html=1;rounded=0;fillColor=#ffe6cc;strokeColor=#d79b00;strokeWidth=2;exitX=0.296;exitY=-0.008;exitDx=0;exitDy=0;exitPerimeter=0;" parent="1" source="7zd6Dn-kyFeJ42l4oRzk-38" edge="1">
          <mxGeometry width="50" height="50" relative="1" as="geometry">
            <mxPoint x="401.9999999999998" y="550" as="sourcePoint" />
            <mxPoint x="430" y="510" as="targetPoint" />
          </mxGeometry>
        </mxCell>
        <mxCell id="7zd6Dn-kyFeJ42l4oRzk-28" value="" style="endArrow=classic;html=1;rounded=0;fillColor=#ffe6cc;strokeColor=#d79b00;strokeWidth=2;exitX=0.388;exitY=0.007;exitDx=0;exitDy=0;exitPerimeter=0;" parent="1" source="7zd6Dn-kyFeJ42l4oRzk-38" edge="1">
          <mxGeometry width="50" height="50" relative="1" as="geometry">
            <mxPoint x="479" y="549.27" as="sourcePoint" />
            <mxPoint x="510" y="509" as="targetPoint" />
          </mxGeometry>
        </mxCell>
        <mxCell id="7zd6Dn-kyFeJ42l4oRzk-29" value="" style="shape=hexagon;perimeter=hexagonPerimeter2;whiteSpace=wrap;html=1;fixedSize=1;" parent="1" vertex="1">
          <mxGeometry x="160" y="235" width="50" height="20" as="geometry" />
        </mxCell>
        <mxCell id="7zd6Dn-kyFeJ42l4oRzk-30" value="" style="ellipse;shape=cloud;whiteSpace=wrap;html=1;fillColor=#f8cecc;strokeColor=#b85450;" parent="1" vertex="1">
          <mxGeometry x="191" y="289" width="25" height="20" as="geometry" />
        </mxCell>
        <mxCell id="7zd6Dn-kyFeJ42l4oRzk-32" value="0" style="ellipse;shape=cloud;whiteSpace=wrap;html=1;" parent="1" vertex="1">
          <mxGeometry x="184" y="313" width="25" height="20" as="geometry" />
        </mxCell>
        <mxCell id="7zd6Dn-kyFeJ42l4oRzk-33" value="" style="endArrow=classic;html=1;rounded=0;exitX=1;exitY=0;exitDx=0;exitDy=0;entryX=0.581;entryY=0.996;entryDx=0;entryDy=0;fillColor=#ffe6cc;strokeColor=#d79b00;strokeWidth=2;entryPerimeter=0;dashed=1;" parent="1" source="7zd6Dn-kyFeJ42l4oRzk-20" edge="1">
          <mxGeometry width="50" height="50" relative="1" as="geometry">
            <mxPoint x="665" y="558.36" as="sourcePoint" />
            <mxPoint x="733.04" y="270.0000000000001" as="targetPoint" />
          </mxGeometry>
        </mxCell>
        <mxCell id="7zd6Dn-kyFeJ42l4oRzk-34" value="" style="ellipse;shape=cloud;whiteSpace=wrap;html=1;fillColor=#d5e8d4;strokeColor=#82b366;" parent="1" vertex="1">
          <mxGeometry x="580" y="289" width="25" height="20" as="geometry" />
        </mxCell>
        <mxCell id="7zd6Dn-kyFeJ42l4oRzk-36" value="sessionId" style="shape=hexagon;perimeter=hexagonPerimeter2;whiteSpace=wrap;html=1;fixedSize=1;fillColor=#f8cecc;strokeColor=#b85450;" parent="1" vertex="1">
          <mxGeometry x="160" y="640" width="360" height="20" as="geometry" />
        </mxCell>
        <mxCell id="7zd6Dn-kyFeJ42l4oRzk-37" value="sessionId" style="shape=hexagon;perimeter=hexagonPerimeter2;whiteSpace=wrap;html=1;fixedSize=1;fillColor=#d5e8d4;strokeColor=#82b366;" parent="1" vertex="1">
          <mxGeometry x="520" y="640" width="360" height="20" as="geometry" />
        </mxCell>
        <mxCell id="7zd6Dn-kyFeJ42l4oRzk-39" value="0" style="ellipse;shape=cloud;whiteSpace=wrap;html=1;" parent="1" vertex="1">
          <mxGeometry x="547" y="523" width="25" height="20" as="geometry" />
        </mxCell>
        <mxCell id="7zd6Dn-kyFeJ42l4oRzk-40" value="0" style="ellipse;shape=cloud;whiteSpace=wrap;html=1;" parent="1" vertex="1">
          <mxGeometry x="633" y="523" width="25" height="20" as="geometry" />
        </mxCell>
        <mxCell id="7zd6Dn-kyFeJ42l4oRzk-41" value="1" style="ellipse;shape=cloud;whiteSpace=wrap;html=1;" parent="1" vertex="1">
          <mxGeometry x="625" y="289" width="25" height="20" as="geometry" />
        </mxCell>
        <mxCell id="7zd6Dn-kyFeJ42l4oRzk-42" value="1" style="ellipse;shape=cloud;whiteSpace=wrap;html=1;" parent="1" vertex="1">
          <mxGeometry x="710" y="289" width="25" height="20" as="geometry" />
        </mxCell>
        <mxCell id="7zd6Dn-kyFeJ42l4oRzk-43" value="1" style="ellipse;shape=cloud;whiteSpace=wrap;html=1;" parent="1" vertex="1">
          <mxGeometry x="719" y="525" width="25" height="20" as="geometry" />
        </mxCell>
        <mxCell id="7zd6Dn-kyFeJ42l4oRzk-44" value="7" style="endArrow=classic;html=1;rounded=0;entryX=0.686;entryY=-0.017;entryDx=0;entryDy=0;fillColor=#ffe6cc;strokeColor=#d79b00;strokeWidth=2;exitX=0.681;exitY=0.996;exitDx=0;exitDy=0;exitPerimeter=0;entryPerimeter=0;" parent="1" source="7zd6Dn-kyFeJ42l4oRzk-1" edge="1">
          <mxGeometry x="-0.873" y="-6" width="50" height="50" relative="1" as="geometry">
            <mxPoint x="735" y="272.0200000000001" as="sourcePoint" />
            <mxPoint x="823.2000000000003" y="549.9999999999999" as="targetPoint" />
            <mxPoint as="offset" />
          </mxGeometry>
        </mxCell>
        <mxCell id="7zd6Dn-kyFeJ42l4oRzk-45" value="" style="endArrow=classic;html=1;rounded=0;exitX=1;exitY=0;exitDx=0;exitDy=0;entryX=0.783;entryY=0.996;entryDx=0;entryDy=0;entryPerimeter=0;fillColor=#ffe6cc;strokeColor=#d79b00;strokeWidth=2;" parent="1" source="7zd6Dn-kyFeJ42l4oRzk-46" target="7zd6Dn-kyFeJ42l4oRzk-1" edge="1">
          <mxGeometry width="50" height="50" relative="1" as="geometry">
            <mxPoint x="739" y="550" as="sourcePoint" />
            <mxPoint x="818.3200000000002" y="230.6400000000001" as="targetPoint" />
          </mxGeometry>
        </mxCell>
        <mxCell id="7zd6Dn-kyFeJ42l4oRzk-46" value="0" style="rounded=1;whiteSpace=wrap;html=1;fontSize=9;" parent="1" vertex="1">
          <mxGeometry x="739" y="558" width="15" height="12" as="geometry" />
        </mxCell>
        <mxCell id="7zd6Dn-kyFeJ42l4oRzk-47" value="0" style="ellipse;shape=cloud;whiteSpace=wrap;html=1;" parent="1" vertex="1">
          <mxGeometry x="800" y="289" width="25" height="20" as="geometry" />
        </mxCell>
        <mxCell id="7zd6Dn-kyFeJ42l4oRzk-48" value="" style="endArrow=none;html=1;rounded=0;entryX=0.427;entryY=1.003;entryDx=0;entryDy=0;exitX=0;exitY=0.5;exitDx=0;exitDy=0;dashed=1;endFill=0;entryPerimeter=0;" parent="1" source="7zd6Dn-kyFeJ42l4oRzk-25" edge="1">
          <mxGeometry width="50" height="50" relative="1" as="geometry">
            <mxPoint x="601.3199999999999" y="649.7299999999998" as="sourcePoint" />
            <mxPoint x="600.0000000000002" y="149.99999999999997" as="targetPoint" />
          </mxGeometry>
        </mxCell>
        <mxCell id="7zd6Dn-kyFeJ42l4oRzk-50" value="0" style="rounded=1;whiteSpace=wrap;html=1;fontSize=9;" parent="1" vertex="1">
          <mxGeometry x="480" y="558" width="15" height="12" as="geometry" />
        </mxCell>
        <mxCell id="7zd6Dn-kyFeJ42l4oRzk-51" value="0" style="rounded=1;whiteSpace=wrap;html=1;fontSize=9;" parent="1" vertex="1">
          <mxGeometry x="403" y="560" width="15" height="12" as="geometry" />
        </mxCell>
        <mxCell id="7zd6Dn-kyFeJ42l4oRzk-52" value="0" style="rounded=1;whiteSpace=wrap;html=1;fontSize=9;" parent="1" vertex="1">
          <mxGeometry x="310" y="560" width="15" height="12" as="geometry" />
        </mxCell>
        <mxCell id="7zd6Dn-kyFeJ42l4oRzk-57" value="" style="ellipse;shape=cloud;whiteSpace=wrap;html=1;fillColor=#f8cecc;strokeColor=#b85450;" parent="1" vertex="1">
          <mxGeometry x="287" y="504" width="25" height="20" as="geometry" />
        </mxCell>
        <mxCell id="7zd6Dn-kyFeJ42l4oRzk-58" value="" style="ellipse;shape=cloud;whiteSpace=wrap;html=1;fillColor=#f8cecc;strokeColor=#b85450;" parent="1" vertex="1">
          <mxGeometry x="542" y="504" width="25" height="20" as="geometry" />
        </mxCell>
        <mxCell id="7zd6Dn-kyFeJ42l4oRzk-59" value="" style="ellipse;shape=cloud;whiteSpace=wrap;html=1;fillColor=#d5e8d4;strokeColor=#82b366;" parent="1" vertex="1">
          <mxGeometry x="714" y="505" width="25" height="20" as="geometry" />
        </mxCell>
        <mxCell id="7zd6Dn-kyFeJ42l4oRzk-60" value="" style="ellipse;shape=cloud;whiteSpace=wrap;html=1;fillColor=#f8cecc;strokeColor=#b85450;" parent="1" vertex="1">
          <mxGeometry x="377" y="504" width="25" height="20" as="geometry" />
        </mxCell>
        <mxCell id="7zd6Dn-kyFeJ42l4oRzk-61" value="" style="ellipse;shape=cloud;whiteSpace=wrap;html=1;fillColor=#f8cecc;strokeColor=#b85450;" parent="1" vertex="1">
          <mxGeometry x="454" y="504" width="25" height="20" as="geometry" />
        </mxCell>
        <mxCell id="7zd6Dn-kyFeJ42l4oRzk-62" value="" style="ellipse;shape=cloud;whiteSpace=wrap;html=1;fillColor=#f8cecc;strokeColor=#b85450;" parent="1" vertex="1">
          <mxGeometry x="625" y="504" width="25" height="20" as="geometry" />
        </mxCell>
        <mxCell id="7zd6Dn-kyFeJ42l4oRzk-63" value="" style="ellipse;shape=cloud;whiteSpace=wrap;html=1;fillColor=#d5e8d4;strokeColor=#82b366;" parent="1" vertex="1">
          <mxGeometry x="797" y="504" width="25" height="20" as="geometry" />
        </mxCell>
        <mxCell id="7zd6Dn-kyFeJ42l4oRzk-64" value="0" style="ellipse;shape=cloud;whiteSpace=wrap;html=1;" parent="1" vertex="1">
          <mxGeometry x="293" y="525" width="25" height="20" as="geometry" />
        </mxCell>
        <mxCell id="7zd6Dn-kyFeJ42l4oRzk-65" value="0" style="ellipse;shape=cloud;whiteSpace=wrap;html=1;" parent="1" vertex="1">
          <mxGeometry x="383" y="525" width="25" height="20" as="geometry" />
        </mxCell>
        <mxCell id="7zd6Dn-kyFeJ42l4oRzk-66" value="0" style="ellipse;shape=cloud;whiteSpace=wrap;html=1;" parent="1" vertex="1">
          <mxGeometry x="461" y="525" width="25" height="20" as="geometry" />
        </mxCell>
        <mxCell id="7zd6Dn-kyFeJ42l4oRzk-67" value="frontend2" style="endArrow=classic;html=1;rounded=0;fillColor=#dae8fc;strokeColor=#6c8ebf;strokeWidth=2;" parent="1" edge="1">
          <mxGeometry x="-0.0185" width="50" height="50" relative="1" as="geometry">
            <mxPoint x="930" y="412.81" as="sourcePoint" />
            <mxPoint x="1038" y="412.81" as="targetPoint" />
            <mxPoint as="offset" />
          </mxGeometry>
        </mxCell>
        <mxCell id="7zd6Dn-kyFeJ42l4oRzk-68" value="frontend1" style="endArrow=classic;html=1;rounded=0;fillColor=#ffe6cc;strokeColor=#d79b00;strokeWidth=2;" parent="1" edge="1">
          <mxGeometry x="-0.0185" width="50" height="50" relative="1" as="geometry">
            <mxPoint x="930" y="391.8100000000001" as="sourcePoint" />
            <mxPoint x="1038" y="391.8100000000001" as="targetPoint" />
            <mxPoint as="offset" />
          </mxGeometry>
        </mxCell>
        <mxCell id="7zd6Dn-kyFeJ42l4oRzk-70" value="" style="endArrow=none;html=1;rounded=0;exitX=1;exitY=0;exitDx=0;exitDy=0;entryX=0.581;entryY=0.996;entryDx=0;entryDy=0;fillColor=#ffe6cc;strokeColor=#d79b00;strokeWidth=2;entryPerimeter=0;dashed=1;" parent="1" source="7zd6Dn-kyFeJ42l4oRzk-17" edge="1">
          <mxGeometry width="50" height="50" relative="1" as="geometry">
            <mxPoint x="580" y="558" as="sourcePoint" />
            <mxPoint x="636.5250000000001" y="332.91999999999985" as="targetPoint" />
          </mxGeometry>
        </mxCell>
        <mxCell id="7zd6Dn-kyFeJ42l4oRzk-74" value="" style="ellipse;shape=cloud;whiteSpace=wrap;html=1;fillColor=#6a00ff;strokeColor=#3700CC;fontColor=#ffffff;gradientColor=#ffffff;" parent="1" vertex="1">
          <mxGeometry x="585" y="556" width="25" height="20" as="geometry" />
        </mxCell>
        <mxCell id="7zd6Dn-kyFeJ42l4oRzk-75" value="" style="ellipse;shape=cloud;whiteSpace=wrap;html=1;fillColor=#a0522d;strokeColor=#6D1F00;fontColor=#ffffff;gradientColor=#ffffff;" parent="1" vertex="1">
          <mxGeometry x="673" y="554" width="25" height="20" as="geometry" />
        </mxCell>
        <mxCell id="7zd6Dn-kyFeJ42l4oRzk-78" value="&lt;font color=&quot;#ff0000&quot; size=&quot;1&quot;&gt;&lt;b style=&quot;font-size: 18px&quot;&gt;X&lt;/b&gt;&lt;/font&gt;" style="text;html=1;strokeColor=none;fillColor=none;align=center;verticalAlign=middle;whiteSpace=wrap;rounded=0;fontSize=9;opacity=50;" parent="1" vertex="1">
          <mxGeometry x="567.5" y="551" width="60" height="30" as="geometry" />
        </mxCell>
        <mxCell id="7zd6Dn-kyFeJ42l4oRzk-79" value="&lt;font color=&quot;#ff0000&quot; size=&quot;1&quot;&gt;&lt;b style=&quot;font-size: 18px&quot;&gt;X&lt;/b&gt;&lt;/font&gt;" style="text;html=1;strokeColor=none;fillColor=none;align=center;verticalAlign=middle;whiteSpace=wrap;rounded=0;fontSize=9;opacity=50;" parent="1" vertex="1">
          <mxGeometry x="655.5" y="550" width="60" height="30" as="geometry" />
        </mxCell>
        <mxCell id="WqxpVgd7Kfnod_zS01RK-1" value="Fragen" parent="0" visible="0" />
        <mxCell id="WqxpVgd7Kfnod_zS01RK-2" value="&lt;font style=&quot;font-size: 18px&quot;&gt;für alle Methoden oder nur für GET?&lt;/font&gt;" style="shape=callout;whiteSpace=wrap;html=1;perimeter=calloutPerimeter;fontSize=36;opacity=50;" parent="WqxpVgd7Kfnod_zS01RK-1" vertex="1">
          <mxGeometry x="431" y="460" width="303" height="89" as="geometry" />
        </mxCell>
      </root>
    </mxGraphModel>
  </diagram>
  <diagram name="Session Handling - Bad case" id="j4H8tcw9XkCSZOqfJGh2">
    <mxGraphModel dx="1188" dy="808" grid="0" gridSize="10" guides="1" tooltips="1" connect="1" arrows="1" fold="1" page="1" pageScale="1" pageWidth="1169" pageHeight="827" math="0" shadow="0">
      <root>
        <mxCell id="lowj2evFAquJ6mq8-qOG-0" />
        <mxCell id="lowj2evFAquJ6mq8-qOG-1" parent="lowj2evFAquJ6mq8-qOG-0" />
        <mxCell id="lowj2evFAquJ6mq8-qOG-2" value="Portal-Gateway" style="rounded=0;whiteSpace=wrap;html=1;verticalAlign=bottom;fillColor=#f5f5f5;fontColor=#333333;strokeColor=#666666;" parent="lowj2evFAquJ6mq8-qOG-1" vertex="1">
          <mxGeometry x="160" y="550" width="840" height="210" as="geometry" />
        </mxCell>
        <mxCell id="lowj2evFAquJ6mq8-qOG-3" value="Session" style="rounded=1;whiteSpace=wrap;html=1;fillColor=#dae8fc;strokeColor=#6c8ebf;labelPosition=center;verticalLabelPosition=middle;align=left;verticalAlign=top;" parent="lowj2evFAquJ6mq8-qOG-1" vertex="1">
          <mxGeometry x="160" y="580" width="840" height="131" as="geometry" />
        </mxCell>
        <mxCell id="lowj2evFAquJ6mq8-qOG-4" value="Browser" style="rounded=0;whiteSpace=wrap;html=1;verticalAlign=top;fillColor=#f5f5f5;fontColor=#333333;strokeColor=#666666;" parent="lowj2evFAquJ6mq8-qOG-1" vertex="1">
          <mxGeometry x="160" y="180" width="840" height="90" as="geometry" />
        </mxCell>
        <mxCell id="lowj2evFAquJ6mq8-qOG-5" value="time" style="endArrow=classic;html=1;rounded=0;" parent="lowj2evFAquJ6mq8-qOG-1" edge="1">
          <mxGeometry width="50" height="50" relative="1" as="geometry">
            <mxPoint x="120" y="80" as="sourcePoint" />
            <mxPoint x="1040" y="80" as="targetPoint" />
          </mxGeometry>
        </mxCell>
        <mxCell id="lowj2evFAquJ6mq8-qOG-6" value="" style="endArrow=classic;html=1;rounded=0;exitX=0.5;exitY=1;exitDx=0;exitDy=0;entryX=0;entryY=0;entryDx=0;entryDy=0;fillColor=#dae8fc;strokeColor=#6c8ebf;strokeWidth=2;" parent="lowj2evFAquJ6mq8-qOG-1" source="RFiOVkkjF344OlJERQH_-0" target="lowj2evFAquJ6mq8-qOG-7" edge="1">
          <mxGeometry x="-0.8952" y="-4" width="50" height="50" relative="1" as="geometry">
            <mxPoint x="560" y="450" as="sourcePoint" />
            <mxPoint x="610" y="400" as="targetPoint" />
            <mxPoint as="offset" />
          </mxGeometry>
        </mxCell>
        <mxCell id="lowj2evFAquJ6mq8-qOG-7" value="regenerateId()" style="rounded=1;whiteSpace=wrap;html=1;" parent="lowj2evFAquJ6mq8-qOG-1" vertex="1">
          <mxGeometry x="320" y="589" width="200" height="18" as="geometry" />
        </mxCell>
        <mxCell id="lowj2evFAquJ6mq8-qOG-8" value="" style="endArrow=classic;html=1;rounded=0;exitX=1;exitY=0;exitDx=0;exitDy=0;entryX=0.523;entryY=0.996;entryDx=0;entryDy=0;entryPerimeter=0;fillColor=#dae8fc;strokeColor=#6c8ebf;strokeWidth=2;" parent="lowj2evFAquJ6mq8-qOG-1" source="lowj2evFAquJ6mq8-qOG-7" target="lowj2evFAquJ6mq8-qOG-4" edge="1">
          <mxGeometry width="50" height="50" relative="1" as="geometry">
            <mxPoint x="249.80000000000018" y="282.3399999999999" as="sourcePoint" />
            <mxPoint x="250.0000000000034" y="580" as="targetPoint" />
          </mxGeometry>
        </mxCell>
        <mxCell id="lowj2evFAquJ6mq8-qOG-9" value="" style="endArrow=none;html=1;rounded=0;entryX=0.427;entryY=1.003;entryDx=0;entryDy=0;exitX=0.5;exitY=0;exitDx=0;exitDy=0;dashed=1;endFill=0;entryPerimeter=0;" parent="lowj2evFAquJ6mq8-qOG-1" source="lowj2evFAquJ6mq8-qOG-10" target="lowj2evFAquJ6mq8-qOG-4" edge="1">
          <mxGeometry width="50" height="50" relative="1" as="geometry">
            <mxPoint x="520" y="710" as="sourcePoint" />
            <mxPoint x="540" y="690" as="targetPoint" />
          </mxGeometry>
        </mxCell>
        <mxCell id="lowj2evFAquJ6mq8-qOG-10" value="flush" style="text;html=1;strokeColor=none;fillColor=none;align=center;verticalAlign=middle;whiteSpace=wrap;rounded=0;" parent="lowj2evFAquJ6mq8-qOG-1" vertex="1">
          <mxGeometry x="490" y="780" width="60" height="30" as="geometry" />
        </mxCell>
        <mxCell id="lowj2evFAquJ6mq8-qOG-11" value="" style="endArrow=classic;html=1;rounded=0;exitX=0.5;exitY=1;exitDx=0;exitDy=0;entryX=0;entryY=0;entryDx=0;entryDy=0;fillColor=#fff2cc;strokeColor=#000000;strokeWidth=2;" parent="lowj2evFAquJ6mq8-qOG-1" source="RFiOVkkjF344OlJERQH_-1" target="lowj2evFAquJ6mq8-qOG-63" edge="1">
          <mxGeometry x="-0.8776" y="-5" width="50" height="50" relative="1" as="geometry">
            <mxPoint x="290.00000000000017" y="272.3399999999999" as="sourcePoint" />
            <mxPoint x="370.20000000000135" y="570" as="targetPoint" />
            <mxPoint as="offset" />
          </mxGeometry>
        </mxCell>
        <mxCell id="lowj2evFAquJ6mq8-qOG-12" value="" style="endArrow=classic;html=1;rounded=0;exitX=0.194;exitY=1.019;exitDx=0;exitDy=0;exitPerimeter=0;entryX=0.389;entryY=0;entryDx=0;entryDy=0;entryPerimeter=0;fillColor=#ffe6cc;strokeColor=#d79b00;strokeWidth=2;" parent="lowj2evFAquJ6mq8-qOG-1" target="lowj2evFAquJ6mq8-qOG-3" edge="1">
          <mxGeometry x="-0.8848" y="-5" width="50" height="50" relative="1" as="geometry">
            <mxPoint x="400.00000000000006" y="272.79" as="sourcePoint" />
            <mxPoint x="477.28000000000003" y="550.0000000000001" as="targetPoint" />
            <mxPoint as="offset" />
          </mxGeometry>
        </mxCell>
        <mxCell id="lowj2evFAquJ6mq8-qOG-13" value="" style="endArrow=classic;html=1;rounded=0;exitX=0.5;exitY=1;exitDx=0;exitDy=0;entryX=0;entryY=0.25;entryDx=0;entryDy=0;fillColor=#ffe6cc;strokeColor=#d79b00;strokeWidth=2;dashed=1;" parent="lowj2evFAquJ6mq8-qOG-1" source="SViwFq9FFy1pVzV-RfkI-0" target="lowj2evFAquJ6mq8-qOG-15" edge="1">
          <mxGeometry x="-0.873" y="-6" width="50" height="50" relative="1" as="geometry">
            <mxPoint x="481.36" y="270.00000000000006" as="sourcePoint" />
            <mxPoint x="558.64" y="547.21" as="targetPoint" />
            <mxPoint as="offset" />
          </mxGeometry>
        </mxCell>
        <mxCell id="lowj2evFAquJ6mq8-qOG-14" value="" style="endArrow=classic;html=1;rounded=0;exitX=0.5;exitY=1;exitDx=0;exitDy=0;entryX=0;entryY=0;entryDx=0;entryDy=0;fillColor=#ffe6cc;strokeColor=#d79b00;strokeWidth=2;dashed=1;" parent="lowj2evFAquJ6mq8-qOG-1" source="SViwFq9FFy1pVzV-RfkI-1" target="lowj2evFAquJ6mq8-qOG-18" edge="1">
          <mxGeometry x="-0.8781" y="-5" width="50" height="50" relative="1" as="geometry">
            <mxPoint x="570" y="271.79" as="sourcePoint" />
            <mxPoint x="647.28" y="549.0000000000001" as="targetPoint" />
            <mxPoint as="offset" />
          </mxGeometry>
        </mxCell>
        <mxCell id="lowj2evFAquJ6mq8-qOG-15" value="+1" style="rounded=1;whiteSpace=wrap;html=1;fontSize=9;" parent="lowj2evFAquJ6mq8-qOG-1" vertex="1">
          <mxGeometry x="565" y="558" width="15" height="12" as="geometry" />
        </mxCell>
        <mxCell id="lowj2evFAquJ6mq8-qOG-16" value="" style="endArrow=classic;html=1;rounded=0;entryX=0.5;entryY=1;entryDx=0;entryDy=0;fillColor=#ffe6cc;strokeColor=#d79b00;strokeWidth=2;dashed=1;startArrow=none;" parent="lowj2evFAquJ6mq8-qOG-1" target="SViwFq9FFy1pVzV-RfkI-2" edge="1">
          <mxGeometry width="50" height="50" relative="1" as="geometry">
            <mxPoint x="632" y="351" as="sourcePoint" />
            <mxPoint x="833.64" y="569.9999999999998" as="targetPoint" />
          </mxGeometry>
        </mxCell>
        <mxCell id="lowj2evFAquJ6mq8-qOG-17" value="" style="endArrow=classic;html=1;rounded=0;entryX=0;entryY=0.25;entryDx=0;entryDy=0;fillColor=#ffe6cc;strokeColor=#d79b00;strokeWidth=2;exitX=0.5;exitY=1;exitDx=0;exitDy=0;dashed=1;" parent="lowj2evFAquJ6mq8-qOG-1" source="SViwFq9FFy1pVzV-RfkI-2" target="lowj2evFAquJ6mq8-qOG-38" edge="1">
          <mxGeometry x="-0.873" y="-6" width="50" height="50" relative="1" as="geometry">
            <mxPoint x="650" y="280" as="sourcePoint" />
            <mxPoint x="803.64" y="618.9999999999998" as="targetPoint" />
            <mxPoint as="offset" />
          </mxGeometry>
        </mxCell>
        <mxCell id="lowj2evFAquJ6mq8-qOG-18" value="+1" style="rounded=1;whiteSpace=wrap;html=1;fontSize=9;" parent="lowj2evFAquJ6mq8-qOG-1" vertex="1">
          <mxGeometry x="650" y="558" width="15" height="12" as="geometry" />
        </mxCell>
        <mxCell id="lowj2evFAquJ6mq8-qOG-19" value="sessionId" style="shape=hexagon;perimeter=hexagonPerimeter2;whiteSpace=wrap;html=1;fixedSize=1;fillColor=#f8cecc;strokeColor=#b85450;" parent="lowj2evFAquJ6mq8-qOG-1" vertex="1">
          <mxGeometry x="210" y="235" width="390" height="20" as="geometry" />
        </mxCell>
        <mxCell id="lowj2evFAquJ6mq8-qOG-20" value="sessionId" style="shape=hexagon;perimeter=hexagonPerimeter2;whiteSpace=wrap;html=1;fixedSize=1;fillColor=#d5e8d4;strokeColor=#82b366;" parent="lowj2evFAquJ6mq8-qOG-1" vertex="1">
          <mxGeometry x="600" y="235" width="108" height="20" as="geometry" />
        </mxCell>
        <mxCell id="lowj2evFAquJ6mq8-qOG-21" value="" style="endArrow=classic;html=1;rounded=0;entryX=0.523;entryY=0.996;entryDx=0;entryDy=0;entryPerimeter=0;fillColor=#ffe6cc;strokeColor=#d79b00;strokeWidth=2;exitX=0.5;exitY=0;exitDx=0;exitDy=0;" parent="lowj2evFAquJ6mq8-qOG-1" source="wUXKzgaS6AxAKMjZvzRi-1" edge="1">
          <mxGeometry x="-0.7406" y="-1" width="50" height="50" relative="1" as="geometry">
            <mxPoint x="174" y="419" as="sourcePoint" />
            <mxPoint x="210.00000000000017" y="270.0000000000001" as="targetPoint" />
            <mxPoint as="offset" />
          </mxGeometry>
        </mxCell>
        <mxCell id="lowj2evFAquJ6mq8-qOG-23" value="" style="endArrow=classic;html=1;rounded=0;fillColor=#ffe6cc;strokeColor=#d79b00;strokeWidth=2;exitX=0.388;exitY=0.007;exitDx=0;exitDy=0;exitPerimeter=0;" parent="lowj2evFAquJ6mq8-qOG-1" source="lowj2evFAquJ6mq8-qOG-3" edge="1">
          <mxGeometry width="50" height="50" relative="1" as="geometry">
            <mxPoint x="479" y="549.27" as="sourcePoint" />
            <mxPoint x="510" y="509" as="targetPoint" />
          </mxGeometry>
        </mxCell>
        <mxCell id="lowj2evFAquJ6mq8-qOG-24" value="" style="shape=hexagon;perimeter=hexagonPerimeter2;whiteSpace=wrap;html=1;fixedSize=1;" parent="lowj2evFAquJ6mq8-qOG-1" vertex="1">
          <mxGeometry x="160" y="235" width="50" height="20" as="geometry" />
        </mxCell>
        <mxCell id="lowj2evFAquJ6mq8-qOG-25" value="" style="ellipse;shape=cloud;whiteSpace=wrap;html=1;fillColor=#f8cecc;strokeColor=#b85450;" parent="lowj2evFAquJ6mq8-qOG-1" vertex="1">
          <mxGeometry x="191" y="289" width="25" height="20" as="geometry" />
        </mxCell>
        <mxCell id="lowj2evFAquJ6mq8-qOG-26" value="0" style="ellipse;shape=cloud;whiteSpace=wrap;html=1;" parent="lowj2evFAquJ6mq8-qOG-1" vertex="1">
          <mxGeometry x="184" y="313" width="25" height="20" as="geometry" />
        </mxCell>
        <mxCell id="lowj2evFAquJ6mq8-qOG-27" value="" style="endArrow=classic;html=1;rounded=0;exitX=1;exitY=0;exitDx=0;exitDy=0;entryX=0.5;entryY=1;entryDx=0;entryDy=0;fillColor=#ffe6cc;strokeColor=#d79b00;strokeWidth=2;dashed=1;" parent="lowj2evFAquJ6mq8-qOG-1" source="lowj2evFAquJ6mq8-qOG-18" target="SViwFq9FFy1pVzV-RfkI-3" edge="1">
          <mxGeometry width="50" height="50" relative="1" as="geometry">
            <mxPoint x="665" y="558.36" as="sourcePoint" />
            <mxPoint x="733.04" y="270.0000000000001" as="targetPoint" />
          </mxGeometry>
        </mxCell>
        <mxCell id="lowj2evFAquJ6mq8-qOG-28" value="" style="ellipse;shape=cloud;whiteSpace=wrap;html=1;fillColor=#d5e8d4;strokeColor=#82b366;" parent="lowj2evFAquJ6mq8-qOG-1" vertex="1">
          <mxGeometry x="580" y="289" width="25" height="20" as="geometry" />
        </mxCell>
        <mxCell id="lowj2evFAquJ6mq8-qOG-29" value="sessionId" style="shape=hexagon;perimeter=hexagonPerimeter2;whiteSpace=wrap;html=1;fixedSize=1;fillColor=#f8cecc;strokeColor=#b85450;" parent="lowj2evFAquJ6mq8-qOG-1" vertex="1">
          <mxGeometry x="160" y="640" width="360" height="20" as="geometry" />
        </mxCell>
        <mxCell id="lowj2evFAquJ6mq8-qOG-30" value="sessionId" style="shape=hexagon;perimeter=hexagonPerimeter2;whiteSpace=wrap;html=1;fixedSize=1;fillColor=#d5e8d4;strokeColor=#82b366;" parent="lowj2evFAquJ6mq8-qOG-1" vertex="1">
          <mxGeometry x="520" y="640" width="99" height="20" as="geometry" />
        </mxCell>
        <mxCell id="lowj2evFAquJ6mq8-qOG-31" value="0" style="ellipse;shape=cloud;whiteSpace=wrap;html=1;" parent="lowj2evFAquJ6mq8-qOG-1" vertex="1">
          <mxGeometry x="547" y="523" width="25" height="20" as="geometry" />
        </mxCell>
        <mxCell id="lowj2evFAquJ6mq8-qOG-32" value="0" style="ellipse;shape=cloud;whiteSpace=wrap;html=1;" parent="lowj2evFAquJ6mq8-qOG-1" vertex="1">
          <mxGeometry x="633" y="523" width="25" height="20" as="geometry" />
        </mxCell>
        <mxCell id="lowj2evFAquJ6mq8-qOG-33" value="1" style="ellipse;shape=cloud;whiteSpace=wrap;html=1;" parent="lowj2evFAquJ6mq8-qOG-1" vertex="1">
          <mxGeometry x="625" y="289" width="25" height="20" as="geometry" />
        </mxCell>
        <mxCell id="lowj2evFAquJ6mq8-qOG-34" value="1" style="ellipse;shape=cloud;whiteSpace=wrap;html=1;" parent="lowj2evFAquJ6mq8-qOG-1" vertex="1">
          <mxGeometry x="710" y="289" width="25" height="20" as="geometry" />
        </mxCell>
        <mxCell id="lowj2evFAquJ6mq8-qOG-35" value="1" style="ellipse;shape=cloud;whiteSpace=wrap;html=1;" parent="lowj2evFAquJ6mq8-qOG-1" vertex="1">
          <mxGeometry x="719" y="525" width="25" height="20" as="geometry" />
        </mxCell>
        <mxCell id="lowj2evFAquJ6mq8-qOG-36" value="" style="endArrow=classic;html=1;rounded=0;entryX=0.799;entryY=0;entryDx=0;entryDy=0;fillColor=#ffe6cc;strokeColor=#d79b00;strokeWidth=2;exitX=0.5;exitY=1;exitDx=0;exitDy=0;entryPerimeter=0;" parent="lowj2evFAquJ6mq8-qOG-1" source="SViwFq9FFy1pVzV-RfkI-3" target="lowj2evFAquJ6mq8-qOG-3" edge="1">
          <mxGeometry x="-0.873" y="-6" width="50" height="50" relative="1" as="geometry">
            <mxPoint x="735" y="272.0200000000001" as="sourcePoint" />
            <mxPoint x="823.2000000000003" y="549.9999999999999" as="targetPoint" />
            <mxPoint as="offset" />
          </mxGeometry>
        </mxCell>
        <mxCell id="lowj2evFAquJ6mq8-qOG-37" value="" style="endArrow=classic;html=1;rounded=0;exitX=1;exitY=0;exitDx=0;exitDy=0;entryX=0.5;entryY=1;entryDx=0;entryDy=0;fillColor=#ffe6cc;strokeColor=#d79b00;strokeWidth=2;dashed=1;" parent="lowj2evFAquJ6mq8-qOG-1" source="lowj2evFAquJ6mq8-qOG-38" target="SViwFq9FFy1pVzV-RfkI-4" edge="1">
          <mxGeometry width="50" height="50" relative="1" as="geometry">
            <mxPoint x="739" y="550" as="sourcePoint" />
            <mxPoint x="818.3200000000002" y="230.6400000000001" as="targetPoint" />
          </mxGeometry>
        </mxCell>
        <mxCell id="lowj2evFAquJ6mq8-qOG-38" value="+1" style="rounded=1;whiteSpace=wrap;html=1;fontSize=9;" parent="lowj2evFAquJ6mq8-qOG-1" vertex="1">
          <mxGeometry x="739" y="558" width="15" height="12" as="geometry" />
        </mxCell>
        <mxCell id="lowj2evFAquJ6mq8-qOG-39" value="2" style="ellipse;shape=cloud;whiteSpace=wrap;html=1;" parent="lowj2evFAquJ6mq8-qOG-1" vertex="1">
          <mxGeometry x="800" y="289" width="25" height="20" as="geometry" />
        </mxCell>
        <mxCell id="lowj2evFAquJ6mq8-qOG-40" value="" style="endArrow=none;html=1;rounded=0;entryX=0.427;entryY=1.003;entryDx=0;entryDy=0;exitX=0;exitY=0.5;exitDx=0;exitDy=0;dashed=1;endFill=0;entryPerimeter=0;" parent="lowj2evFAquJ6mq8-qOG-1" source="lowj2evFAquJ6mq8-qOG-20" edge="1">
          <mxGeometry width="50" height="50" relative="1" as="geometry">
            <mxPoint x="601.3199999999999" y="649.7299999999998" as="sourcePoint" />
            <mxPoint x="600.0000000000002" y="149.99999999999997" as="targetPoint" />
          </mxGeometry>
        </mxCell>
        <mxCell id="lowj2evFAquJ6mq8-qOG-41" value="0" style="rounded=1;whiteSpace=wrap;html=1;fontSize=9;" parent="lowj2evFAquJ6mq8-qOG-1" vertex="1">
          <mxGeometry x="480" y="558" width="15" height="12" as="geometry" />
        </mxCell>
        <mxCell id="lowj2evFAquJ6mq8-qOG-42" value="0" style="rounded=1;whiteSpace=wrap;html=1;fontSize=9;" parent="lowj2evFAquJ6mq8-qOG-1" vertex="1">
          <mxGeometry x="403" y="560" width="15" height="12" as="geometry" />
        </mxCell>
        <mxCell id="lowj2evFAquJ6mq8-qOG-43" value="0" style="rounded=1;whiteSpace=wrap;html=1;fontSize=9;" parent="lowj2evFAquJ6mq8-qOG-1" vertex="1">
          <mxGeometry x="310" y="560" width="15" height="12" as="geometry" />
        </mxCell>
        <mxCell id="lowj2evFAquJ6mq8-qOG-44" value="" style="ellipse;shape=cloud;whiteSpace=wrap;html=1;fillColor=#f8cecc;strokeColor=#b85450;" parent="lowj2evFAquJ6mq8-qOG-1" vertex="1">
          <mxGeometry x="287" y="504" width="25" height="20" as="geometry" />
        </mxCell>
        <mxCell id="lowj2evFAquJ6mq8-qOG-45" value="" style="ellipse;shape=cloud;whiteSpace=wrap;html=1;fillColor=#f8cecc;strokeColor=#b85450;" parent="lowj2evFAquJ6mq8-qOG-1" vertex="1">
          <mxGeometry x="542" y="504" width="25" height="20" as="geometry" />
        </mxCell>
        <mxCell id="lowj2evFAquJ6mq8-qOG-46" value="" style="ellipse;shape=cloud;whiteSpace=wrap;html=1;fillColor=#d5e8d4;strokeColor=#82b366;" parent="lowj2evFAquJ6mq8-qOG-1" vertex="1">
          <mxGeometry x="714" y="505" width="25" height="20" as="geometry" />
        </mxCell>
        <mxCell id="lowj2evFAquJ6mq8-qOG-47" value="" style="ellipse;shape=cloud;whiteSpace=wrap;html=1;fillColor=#f8cecc;strokeColor=#b85450;" parent="lowj2evFAquJ6mq8-qOG-1" vertex="1">
          <mxGeometry x="377" y="504" width="25" height="20" as="geometry" />
        </mxCell>
        <mxCell id="lowj2evFAquJ6mq8-qOG-48" value="" style="ellipse;shape=cloud;whiteSpace=wrap;html=1;fillColor=#f8cecc;strokeColor=#b85450;" parent="lowj2evFAquJ6mq8-qOG-1" vertex="1">
          <mxGeometry x="454" y="504" width="25" height="20" as="geometry" />
        </mxCell>
        <mxCell id="lowj2evFAquJ6mq8-qOG-49" value="" style="ellipse;shape=cloud;whiteSpace=wrap;html=1;fillColor=#f8cecc;strokeColor=#b85450;" parent="lowj2evFAquJ6mq8-qOG-1" vertex="1">
          <mxGeometry x="625" y="504" width="25" height="20" as="geometry" />
        </mxCell>
        <mxCell id="lowj2evFAquJ6mq8-qOG-51" value="0" style="ellipse;shape=cloud;whiteSpace=wrap;html=1;" parent="lowj2evFAquJ6mq8-qOG-1" vertex="1">
          <mxGeometry x="293" y="525" width="25" height="20" as="geometry" />
        </mxCell>
        <mxCell id="lowj2evFAquJ6mq8-qOG-52" value="0" style="ellipse;shape=cloud;whiteSpace=wrap;html=1;" parent="lowj2evFAquJ6mq8-qOG-1" vertex="1">
          <mxGeometry x="383" y="525" width="25" height="20" as="geometry" />
        </mxCell>
        <mxCell id="lowj2evFAquJ6mq8-qOG-53" value="0" style="ellipse;shape=cloud;whiteSpace=wrap;html=1;" parent="lowj2evFAquJ6mq8-qOG-1" vertex="1">
          <mxGeometry x="461" y="525" width="25" height="20" as="geometry" />
        </mxCell>
        <mxCell id="lowj2evFAquJ6mq8-qOG-54" value="frontend2" style="endArrow=classic;html=1;rounded=0;fillColor=#dae8fc;strokeColor=#6c8ebf;strokeWidth=2;" parent="lowj2evFAquJ6mq8-qOG-1" edge="1">
          <mxGeometry x="-0.0185" width="50" height="50" relative="1" as="geometry">
            <mxPoint x="930" y="412.81" as="sourcePoint" />
            <mxPoint x="1038" y="412.81" as="targetPoint" />
            <mxPoint as="offset" />
          </mxGeometry>
        </mxCell>
        <mxCell id="lowj2evFAquJ6mq8-qOG-55" value="frontend1" style="endArrow=classic;html=1;rounded=0;fillColor=#ffe6cc;strokeColor=#d79b00;strokeWidth=2;" parent="lowj2evFAquJ6mq8-qOG-1" edge="1">
          <mxGeometry x="-0.0185" width="50" height="50" relative="1" as="geometry">
            <mxPoint x="930" y="391.8100000000001" as="sourcePoint" />
            <mxPoint x="1038" y="391.8100000000001" as="targetPoint" />
            <mxPoint as="offset" />
          </mxGeometry>
        </mxCell>
        <mxCell id="lowj2evFAquJ6mq8-qOG-56" value="" style="endArrow=none;html=1;rounded=0;exitX=1;exitY=0;exitDx=0;exitDy=0;entryX=0.581;entryY=0.996;entryDx=0;entryDy=0;fillColor=#ffe6cc;strokeColor=#d79b00;strokeWidth=2;entryPerimeter=0;dashed=1;" parent="lowj2evFAquJ6mq8-qOG-1" source="lowj2evFAquJ6mq8-qOG-15" edge="1">
          <mxGeometry width="50" height="50" relative="1" as="geometry">
            <mxPoint x="580" y="558" as="sourcePoint" />
            <mxPoint x="636.5250000000001" y="332.91999999999985" as="targetPoint" />
          </mxGeometry>
        </mxCell>
        <mxCell id="lowj2evFAquJ6mq8-qOG-57" value="" style="ellipse;shape=cloud;whiteSpace=wrap;html=1;fillColor=#6a00ff;strokeColor=#3700CC;fontColor=#ffffff;gradientColor=#ffffff;" parent="lowj2evFAquJ6mq8-qOG-1" vertex="1">
          <mxGeometry x="585" y="556" width="25" height="20" as="geometry" />
        </mxCell>
        <mxCell id="lowj2evFAquJ6mq8-qOG-58" value="" style="ellipse;shape=cloud;whiteSpace=wrap;html=1;fillColor=#a0522d;strokeColor=#6D1F00;fontColor=#ffffff;gradientColor=#ffffff;" parent="lowj2evFAquJ6mq8-qOG-1" vertex="1">
          <mxGeometry x="673" y="554" width="25" height="20" as="geometry" />
        </mxCell>
        <mxCell id="lowj2evFAquJ6mq8-qOG-59" value="&lt;font color=&quot;#ff0000&quot; size=&quot;1&quot;&gt;&lt;b style=&quot;font-size: 18px&quot;&gt;X&lt;/b&gt;&lt;/font&gt;" style="text;html=1;strokeColor=none;fillColor=none;align=center;verticalAlign=middle;whiteSpace=wrap;rounded=0;fontSize=9;opacity=50;" parent="lowj2evFAquJ6mq8-qOG-1" vertex="1">
          <mxGeometry x="567.5" y="551" width="60" height="30" as="geometry" />
        </mxCell>
        <mxCell id="lowj2evFAquJ6mq8-qOG-60" value="&lt;font color=&quot;#ff0000&quot; size=&quot;1&quot;&gt;&lt;b style=&quot;font-size: 18px&quot;&gt;X&lt;/b&gt;&lt;/font&gt;" style="text;html=1;strokeColor=none;fillColor=none;align=center;verticalAlign=middle;whiteSpace=wrap;rounded=0;fontSize=9;opacity=50;" parent="lowj2evFAquJ6mq8-qOG-1" vertex="1">
          <mxGeometry x="655.5" y="550" width="60" height="30" as="geometry" />
        </mxCell>
        <mxCell id="lowj2evFAquJ6mq8-qOG-63" value="regenerateId()" style="rounded=1;whiteSpace=wrap;html=1;" parent="lowj2evFAquJ6mq8-qOG-1" vertex="1">
          <mxGeometry x="420" y="616" width="200" height="18" as="geometry" />
        </mxCell>
        <mxCell id="lowj2evFAquJ6mq8-qOG-64" value="" style="endArrow=classic;html=1;rounded=0;exitX=1;exitY=0;exitDx=0;exitDy=0;entryX=0.654;entryY=1.003;entryDx=0;entryDy=0;entryPerimeter=0;fillColor=#dae8fc;strokeColor=#000000;strokeWidth=2;" parent="lowj2evFAquJ6mq8-qOG-1" source="lowj2evFAquJ6mq8-qOG-63" target="lowj2evFAquJ6mq8-qOG-4" edge="1">
          <mxGeometry width="50" height="50" relative="1" as="geometry">
            <mxPoint x="529.9999999999989" y="599" as="sourcePoint" />
            <mxPoint x="609.3200000000002" y="279.6400000000001" as="targetPoint" />
          </mxGeometry>
        </mxCell>
        <mxCell id="lowj2evFAquJ6mq8-qOG-65" value="" style="ellipse;shape=cloud;whiteSpace=wrap;html=1;fillColor=#e1d5e7;strokeColor=#9673a6;" parent="lowj2evFAquJ6mq8-qOG-1" vertex="1">
          <mxGeometry x="685" y="289" width="25" height="20" as="geometry" />
        </mxCell>
        <mxCell id="lowj2evFAquJ6mq8-qOG-66" value="frontend3" style="endArrow=classic;html=1;rounded=0;fillColor=#dae8fc;strokeColor=#000000;strokeWidth=2;" parent="lowj2evFAquJ6mq8-qOG-1" edge="1">
          <mxGeometry x="-0.0185" width="50" height="50" relative="1" as="geometry">
            <mxPoint x="930" y="435.99999999999994" as="sourcePoint" />
            <mxPoint x="1038" y="435.99999999999994" as="targetPoint" />
            <mxPoint as="offset" />
          </mxGeometry>
        </mxCell>
        <mxCell id="lowj2evFAquJ6mq8-qOG-67" value="sessionId" style="shape=hexagon;perimeter=hexagonPerimeter2;whiteSpace=wrap;html=1;fixedSize=1;fillColor=#e1d5e7;strokeColor=#9673a6;" parent="lowj2evFAquJ6mq8-qOG-1" vertex="1">
          <mxGeometry x="708" y="235" width="278" height="20" as="geometry" />
        </mxCell>
        <mxCell id="lowj2evFAquJ6mq8-qOG-68" value="" style="endArrow=classic;html=1;rounded=0;exitX=0.5;exitY=1;exitDx=0;exitDy=0;entryX=0.886;entryY=0.007;entryDx=0;entryDy=0;fillColor=#ffe6cc;strokeColor=#d79b00;strokeWidth=2;entryPerimeter=0;" parent="lowj2evFAquJ6mq8-qOG-1" source="SViwFq9FFy1pVzV-RfkI-4" target="lowj2evFAquJ6mq8-qOG-3" edge="1">
          <mxGeometry x="-0.8781" y="-5" width="50" height="50" relative="1" as="geometry">
            <mxPoint x="818" y="269.99999999999994" as="sourcePoint" />
            <mxPoint x="898" y="556.21" as="targetPoint" />
            <mxPoint as="offset" />
          </mxGeometry>
        </mxCell>
        <mxCell id="lowj2evFAquJ6mq8-qOG-70" value="" style="endArrow=none;html=1;rounded=0;entryX=0.427;entryY=1.003;entryDx=0;entryDy=0;exitX=0.5;exitY=0;exitDx=0;exitDy=0;dashed=1;endFill=0;entryPerimeter=0;" parent="lowj2evFAquJ6mq8-qOG-1" source="lowj2evFAquJ6mq8-qOG-71" edge="1">
          <mxGeometry width="50" height="50" relative="1" as="geometry">
            <mxPoint x="620" y="711.73" as="sourcePoint" />
            <mxPoint x="618.6800000000003" y="272" as="targetPoint" />
          </mxGeometry>
        </mxCell>
        <mxCell id="lowj2evFAquJ6mq8-qOG-71" value="flush" style="text;html=1;strokeColor=none;fillColor=none;align=center;verticalAlign=middle;whiteSpace=wrap;rounded=0;" parent="lowj2evFAquJ6mq8-qOG-1" vertex="1">
          <mxGeometry x="590" y="781.73" width="60" height="30" as="geometry" />
        </mxCell>
        <mxCell id="lowj2evFAquJ6mq8-qOG-72" value="sessionId" style="shape=hexagon;perimeter=hexagonPerimeter2;whiteSpace=wrap;html=1;fixedSize=1;fillColor=#e1d5e7;strokeColor=#9673a6;" parent="lowj2evFAquJ6mq8-qOG-1" vertex="1">
          <mxGeometry x="620" y="640" width="365" height="20" as="geometry" />
        </mxCell>
        <mxCell id="lowj2evFAquJ6mq8-qOG-73" value="" style="ellipse;shape=cloud;whiteSpace=wrap;html=1;fillColor=#e1d5e7;strokeColor=#9673a6;" parent="lowj2evFAquJ6mq8-qOG-1" vertex="1">
          <mxGeometry x="873" y="504" width="25" height="20" as="geometry" />
        </mxCell>
        <mxCell id="vErN31Tb6tj25wftm5g0-0" value="" style="ellipse;shape=cloud;whiteSpace=wrap;html=1;fillColor=#e1d5e7;strokeColor=#9673a6;" parent="lowj2evFAquJ6mq8-qOG-1" vertex="1">
          <mxGeometry x="798" y="504" width="25" height="20" as="geometry" />
        </mxCell>
        <mxCell id="yojgE3Mzj4-6FbjT6NM8-1" value="" style="endArrow=none;html=1;rounded=0;entryX=0.427;entryY=1.003;entryDx=0;entryDy=0;exitX=0;exitY=0.5;exitDx=0;exitDy=0;dashed=1;endFill=0;entryPerimeter=0;" parent="lowj2evFAquJ6mq8-qOG-1" edge="1">
          <mxGeometry width="50" height="50" relative="1" as="geometry">
            <mxPoint x="708" y="245" as="sourcePoint" />
            <mxPoint x="708.0000000000005" y="150" as="targetPoint" />
          </mxGeometry>
        </mxCell>
        <mxCell id="yojgE3Mzj4-6FbjT6NM8-2" value="" style="endArrow=classic;html=1;rounded=0;fillColor=#ffe6cc;strokeColor=#d79b00;strokeWidth=2;exitX=0.388;exitY=0.007;exitDx=0;exitDy=0;exitPerimeter=0;" parent="lowj2evFAquJ6mq8-qOG-1" edge="1">
          <mxGeometry width="50" height="50" relative="1" as="geometry">
            <mxPoint x="831" y="580.0000000000001" as="sourcePoint" />
            <mxPoint x="855.0799999999999" y="508.37" as="targetPoint" />
          </mxGeometry>
        </mxCell>
        <mxCell id="yojgE3Mzj4-6FbjT6NM8-3" value="" style="endArrow=classic;html=1;rounded=0;fillColor=#ffe6cc;strokeColor=#d79b00;strokeWidth=2;exitX=0.388;exitY=0.007;exitDx=0;exitDy=0;exitPerimeter=0;" parent="lowj2evFAquJ6mq8-qOG-1" edge="1">
          <mxGeometry width="50" height="50" relative="1" as="geometry">
            <mxPoint x="903.9999999999998" y="580.0000000000001" as="sourcePoint" />
            <mxPoint x="928.0799999999999" y="508.37" as="targetPoint" />
          </mxGeometry>
        </mxCell>
        <mxCell id="lowj2evFAquJ6mq8-qOG-69" value="0" style="rounded=1;whiteSpace=wrap;html=1;fontSize=9;" parent="lowj2evFAquJ6mq8-qOG-1" vertex="1">
          <mxGeometry x="898" y="558" width="15" height="12" as="geometry" />
        </mxCell>
        <mxCell id="yojgE3Mzj4-6FbjT6NM8-0" value="0" style="rounded=1;whiteSpace=wrap;html=1;fontSize=9;" parent="lowj2evFAquJ6mq8-qOG-1" vertex="1">
          <mxGeometry x="825" y="558" width="15" height="12" as="geometry" />
        </mxCell>
        <mxCell id="RFiOVkkjF344OlJERQH_-0" value="&lt;font style=&quot;font-size: 12px;&quot;&gt;1&lt;/font&gt;" style="ellipse;whiteSpace=wrap;html=1;aspect=fixed;fontSize=12;fontColor=#000000;strokeColor=#000000;fillColor=#FFFFFF;gradientColor=none;opacity=50;verticalAlign=middle;labelPosition=center;verticalLabelPosition=middle;align=center;" parent="lowj2evFAquJ6mq8-qOG-1" vertex="1">
          <mxGeometry x="233" y="261" width="12" height="12" as="geometry" />
        </mxCell>
        <mxCell id="RFiOVkkjF344OlJERQH_-1" value="&lt;font style=&quot;font-size: 12px;&quot;&gt;2&lt;/font&gt;" style="ellipse;whiteSpace=wrap;html=1;aspect=fixed;fontSize=12;fontColor=#000000;strokeColor=#000000;fillColor=#FFFFFF;gradientColor=none;opacity=50;verticalAlign=middle;labelPosition=center;verticalLabelPosition=middle;align=center;" parent="lowj2evFAquJ6mq8-qOG-1" vertex="1">
          <mxGeometry x="318" y="261" width="12" height="12" as="geometry" />
        </mxCell>
        <mxCell id="RFiOVkkjF344OlJERQH_-2" value="&lt;font style=&quot;font-size: 12px&quot;&gt;3&lt;/font&gt;" style="ellipse;whiteSpace=wrap;html=1;aspect=fixed;fontSize=12;fontColor=#000000;strokeColor=#000000;fillColor=#FFFFFF;gradientColor=none;opacity=50;verticalAlign=middle;labelPosition=center;verticalLabelPosition=middle;align=center;" parent="lowj2evFAquJ6mq8-qOG-1" vertex="1">
          <mxGeometry x="394" y="261" width="12" height="12" as="geometry" />
        </mxCell>
        <mxCell id="RFiOVkkjF344OlJERQH_-5" value="" style="ellipse;shape=cloud;whiteSpace=wrap;html=1;fillColor=#647687;strokeColor=#314354;fontColor=#ffffff;gradientColor=#ffffff;" parent="lowj2evFAquJ6mq8-qOG-1" vertex="1">
          <mxGeometry x="760" y="555" width="25" height="20" as="geometry" />
        </mxCell>
        <mxCell id="RFiOVkkjF344OlJERQH_-3" value="&lt;font color=&quot;#ff0000&quot; size=&quot;1&quot;&gt;&lt;b style=&quot;font-size: 18px&quot;&gt;X&lt;/b&gt;&lt;/font&gt;" style="text;html=1;strokeColor=none;fillColor=none;align=center;verticalAlign=middle;whiteSpace=wrap;rounded=0;fontSize=9;opacity=50;" parent="lowj2evFAquJ6mq8-qOG-1" vertex="1">
          <mxGeometry x="744" y="550" width="60" height="30" as="geometry" />
        </mxCell>
        <mxCell id="SViwFq9FFy1pVzV-RfkI-0" value="&lt;font style=&quot;font-size: 12px&quot;&gt;4&lt;/font&gt;" style="ellipse;whiteSpace=wrap;html=1;aspect=fixed;fontSize=12;fontColor=#000000;strokeColor=#000000;fillColor=#FFFFFF;gradientColor=none;opacity=50;verticalAlign=middle;labelPosition=center;verticalLabelPosition=middle;align=center;" parent="lowj2evFAquJ6mq8-qOG-1" vertex="1">
          <mxGeometry x="474" y="261" width="12" height="12" as="geometry" />
        </mxCell>
        <mxCell id="SViwFq9FFy1pVzV-RfkI-1" value="&lt;font style=&quot;font-size: 12px&quot;&gt;5&lt;/font&gt;" style="ellipse;whiteSpace=wrap;html=1;aspect=fixed;fontSize=12;fontColor=#000000;strokeColor=#000000;fillColor=#FFFFFF;gradientColor=none;opacity=50;verticalAlign=middle;labelPosition=center;verticalLabelPosition=middle;align=center;" parent="lowj2evFAquJ6mq8-qOG-1" vertex="1">
          <mxGeometry x="563.5" y="261" width="12" height="12" as="geometry" />
        </mxCell>
        <mxCell id="SViwFq9FFy1pVzV-RfkI-2" value="&lt;font style=&quot;font-size: 12px&quot;&gt;6&lt;/font&gt;" style="ellipse;whiteSpace=wrap;html=1;aspect=fixed;fontSize=12;fontColor=#000000;strokeColor=#000000;fillColor=#FFFFFF;gradientColor=none;opacity=50;verticalAlign=middle;labelPosition=center;verticalLabelPosition=middle;align=center;" parent="lowj2evFAquJ6mq8-qOG-1" vertex="1">
          <mxGeometry x="642" y="261" width="12" height="12" as="geometry" />
        </mxCell>
        <mxCell id="SViwFq9FFy1pVzV-RfkI-3" value="&lt;font style=&quot;font-size: 12px&quot;&gt;7&lt;/font&gt;" style="ellipse;whiteSpace=wrap;html=1;aspect=fixed;fontSize=12;fontColor=#000000;strokeColor=#000000;fillColor=#FFFFFF;gradientColor=none;opacity=50;verticalAlign=middle;labelPosition=center;verticalLabelPosition=middle;align=center;" parent="lowj2evFAquJ6mq8-qOG-1" vertex="1">
          <mxGeometry x="724" y="261" width="12" height="12" as="geometry" />
        </mxCell>
        <mxCell id="SViwFq9FFy1pVzV-RfkI-4" value="&lt;font style=&quot;font-size: 12px&quot;&gt;8&lt;/font&gt;" style="ellipse;whiteSpace=wrap;html=1;aspect=fixed;fontSize=12;fontColor=#000000;strokeColor=#000000;fillColor=#FFFFFF;gradientColor=none;opacity=50;verticalAlign=middle;labelPosition=center;verticalLabelPosition=middle;align=center;" parent="lowj2evFAquJ6mq8-qOG-1" vertex="1">
          <mxGeometry x="811" y="261" width="12" height="12" as="geometry" />
        </mxCell>
        <mxCell id="wUXKzgaS6AxAKMjZvzRi-1" value="&lt;font style=&quot;font-size: 12px&quot;&gt;0&lt;/font&gt;" style="ellipse;whiteSpace=wrap;html=1;aspect=fixed;fontSize=12;fontColor=#000000;strokeColor=#000000;fillColor=#FFFFFF;gradientColor=none;opacity=50;verticalAlign=middle;labelPosition=center;verticalLabelPosition=middle;align=center;" parent="lowj2evFAquJ6mq8-qOG-1" vertex="1">
          <mxGeometry x="167" y="419" width="12" height="12" as="geometry" />
        </mxCell>
        <mxCell id="lowj2evFAquJ6mq8-qOG-61" value="Fragen" parent="lowj2evFAquJ6mq8-qOG-0" visible="0" />
        <mxCell id="lowj2evFAquJ6mq8-qOG-62" value="&lt;font style=&quot;font-size: 18px&quot;&gt;für alle Methoden oder nur für GET?&lt;/font&gt;" style="shape=callout;whiteSpace=wrap;html=1;perimeter=calloutPerimeter;fontSize=36;opacity=50;" parent="lowj2evFAquJ6mq8-qOG-61" vertex="1">
          <mxGeometry x="431" y="460" width="303" height="89" as="geometry" />
        </mxCell>
      </root>
    </mxGraphModel>
  </diagram>
  <diagram id="WNHltI1MexpF7HWGQ1Nt" name="Middlewares">
    <mxGraphModel dx="1850" dy="1149" grid="1" gridSize="10" guides="1" tooltips="1" connect="1" arrows="1" fold="1" page="1" pageScale="1" pageWidth="1169" pageHeight="827" math="0" shadow="0">
      <root>
        <mxCell id="iMNLW8RXFIhFK0xTfYwr-0" />
        <mxCell id="iMNLW8RXFIhFK0xTfYwr-1" parent="iMNLW8RXFIhFK0xTfYwr-0" />
        <mxCell id="EVPoEGJ5uG0Z3Mp8-1b5-2" value="" style="rounded=0;whiteSpace=wrap;html=1;" parent="iMNLW8RXFIhFK0xTfYwr-1" vertex="1">
          <mxGeometry x="215" y="120" width="740" height="520" as="geometry" />
        </mxCell>
        <mxCell id="feOMi4XJtqE2pNdNk57R-2" value="ControlApiMiddleware" style="rounded=0;whiteSpace=wrap;html=1;verticalAlign=top;" parent="iMNLW8RXFIhFK0xTfYwr-1" vertex="1">
          <mxGeometry x="425" y="160" width="180" height="230" as="geometry" />
        </mxCell>
        <mxCell id="feOMi4XJtqE2pNdNk57R-0" value="ProxyMiddleware" style="rounded=0;whiteSpace=wrap;html=1;verticalAlign=top;" parent="iMNLW8RXFIhFK0xTfYwr-1" vertex="1">
          <mxGeometry x="695" y="160" width="180" height="230" as="geometry" />
        </mxCell>
        <mxCell id="feOMi4XJtqE2pNdNk57R-9" value="SessionBagMiddleware" style="rounded=0;whiteSpace=wrap;html=1;verticalAlign=top;" parent="iMNLW8RXFIhFK0xTfYwr-1" vertex="1">
          <mxGeometry x="235" y="160" width="180" height="230" as="geometry" />
        </mxCell>
        <mxCell id="feOMi4XJtqE2pNdNk57R-7" value="" style="endArrow=none;html=1;rounded=0;strokeWidth=4;endFill=0;startArrow=none;startFill=1;entryX=0;entryY=0.5;entryDx=0;entryDy=0;exitX=1;exitY=0.5;exitDx=0;exitDy=0;" parent="iMNLW8RXFIhFK0xTfYwr-1" source="feOMi4XJtqE2pNdNk57R-5" target="EVPoEGJ5uG0Z3Mp8-1b5-0" edge="1">
          <mxGeometry width="50" height="50" relative="1" as="geometry">
            <mxPoint x="125" y="329.5" as="sourcePoint" />
            <mxPoint x="995" y="330" as="targetPoint" />
          </mxGeometry>
        </mxCell>
        <mxCell id="feOMi4XJtqE2pNdNk57R-6" value="" style="endArrow=classic;html=1;rounded=0;strokeWidth=4;entryX=0;entryY=0.5;entryDx=0;entryDy=0;exitX=1;exitY=0.5;exitDx=0;exitDy=0;startArrow=none;" parent="iMNLW8RXFIhFK0xTfYwr-1" source="feOMi4XJtqE2pNdNk57R-4" target="EVPoEGJ5uG0Z3Mp8-1b5-1" edge="1">
          <mxGeometry width="50" height="50" relative="1" as="geometry">
            <mxPoint x="125" y="250" as="sourcePoint" />
            <mxPoint x="995" y="250" as="targetPoint" />
          </mxGeometry>
        </mxCell>
        <mxCell id="EVPoEGJ5uG0Z3Mp8-1b5-3" value="addModifier(&lt;span style=&quot;color: rgb(135, 16, 148); font-style: italic; font-family: &amp;quot;JetBrains Mono&amp;quot;, monospace;&quot;&gt;RESPONSE_HEADERS_MODIFIERS&lt;/span&gt;)" style="edgeStyle=orthogonalEdgeStyle;rounded=0;orthogonalLoop=1;jettySize=auto;html=1;exitX=0.25;exitY=1;exitDx=0;exitDy=0;startArrow=none;startFill=0;endArrow=classic;endFill=1;strokeWidth=1;entryX=0.711;entryY=-0.016;entryDx=0;entryDy=0;entryPerimeter=0;" parent="iMNLW8RXFIhFK0xTfYwr-1" source="feOMi4XJtqE2pNdNk57R-4" target="feOMi4XJtqE2pNdNk57R-12" edge="1">
          <mxGeometry x="0.6728" relative="1" as="geometry">
            <mxPoint as="offset" />
          </mxGeometry>
        </mxCell>
        <mxCell id="feOMi4XJtqE2pNdNk57R-12" value="RoutingContext" style="rounded=0;whiteSpace=wrap;html=1;verticalAlign=bottom;" parent="iMNLW8RXFIhFK0xTfYwr-1" vertex="1">
          <mxGeometry x="235" y="460" width="700" height="160" as="geometry" />
        </mxCell>
        <mxCell id="feOMi4XJtqE2pNdNk57R-13" value="incoming Request" style="text;html=1;strokeColor=none;fillColor=none;align=center;verticalAlign=middle;whiteSpace=wrap;rounded=0;fontStyle=1" parent="iMNLW8RXFIhFK0xTfYwr-1" vertex="1">
          <mxGeometry x="55" y="235" width="60" height="30" as="geometry" />
        </mxCell>
        <mxCell id="feOMi4XJtqE2pNdNk57R-14" value="outgoing Response" style="text;html=1;strokeColor=none;fillColor=none;align=center;verticalAlign=middle;whiteSpace=wrap;rounded=0;fontStyle=1" parent="iMNLW8RXFIhFK0xTfYwr-1" vertex="1">
          <mxGeometry x="55" y="315" width="60" height="30" as="geometry" />
        </mxCell>
        <mxCell id="feOMi4XJtqE2pNdNk57R-15" value="Vert.x&lt;br&gt;HttpProxy" style="rounded=0;whiteSpace=wrap;html=1;" parent="iMNLW8RXFIhFK0xTfYwr-1" vertex="1">
          <mxGeometry x="872" y="211" width="70" height="160" as="geometry" />
        </mxCell>
        <mxCell id="EVPoEGJ5uG0Z3Mp8-1b5-0" value="incoming Response" style="text;html=1;strokeColor=none;fillColor=none;align=center;verticalAlign=middle;whiteSpace=wrap;rounded=0;fontStyle=1" parent="iMNLW8RXFIhFK0xTfYwr-1" vertex="1">
          <mxGeometry x="1055" y="315" width="60" height="30" as="geometry" />
        </mxCell>
        <mxCell id="EVPoEGJ5uG0Z3Mp8-1b5-1" value="outgoing Request" style="text;html=1;strokeColor=none;fillColor=none;align=center;verticalAlign=middle;whiteSpace=wrap;rounded=0;fontStyle=1" parent="iMNLW8RXFIhFK0xTfYwr-1" vertex="1">
          <mxGeometry x="1055" y="235" width="60" height="30" as="geometry" />
        </mxCell>
        <mxCell id="feOMi4XJtqE2pNdNk57R-4" value="" style="rounded=1;whiteSpace=wrap;html=1;" parent="iMNLW8RXFIhFK0xTfYwr-1" vertex="1">
          <mxGeometry x="705" y="220" width="110" height="60" as="geometry" />
        </mxCell>
        <mxCell id="EVPoEGJ5uG0Z3Mp8-1b5-4" value="" style="endArrow=none;html=1;rounded=0;strokeWidth=4;entryX=0;entryY=0.5;entryDx=0;entryDy=0;exitX=1;exitY=0.5;exitDx=0;exitDy=0;" parent="iMNLW8RXFIhFK0xTfYwr-1" source="feOMi4XJtqE2pNdNk57R-13" target="feOMi4XJtqE2pNdNk57R-4" edge="1">
          <mxGeometry width="50" height="50" relative="1" as="geometry">
            <mxPoint x="115" y="250" as="sourcePoint" />
            <mxPoint x="1005" y="250" as="targetPoint" />
          </mxGeometry>
        </mxCell>
        <mxCell id="feOMi4XJtqE2pNdNk57R-5" value="" style="rounded=1;whiteSpace=wrap;html=1;dashed=1;dashPattern=1 1;" parent="iMNLW8RXFIhFK0xTfYwr-1" vertex="1">
          <mxGeometry x="755" y="300" width="110" height="60" as="geometry" />
        </mxCell>
        <mxCell id="EVPoEGJ5uG0Z3Mp8-1b5-5" value="" style="endArrow=none;html=1;rounded=0;strokeWidth=4;endFill=0;startArrow=classic;startFill=1;entryX=0;entryY=0.5;entryDx=0;entryDy=0;exitX=1;exitY=0.5;exitDx=0;exitDy=0;" parent="iMNLW8RXFIhFK0xTfYwr-1" source="feOMi4XJtqE2pNdNk57R-14" target="feOMi4XJtqE2pNdNk57R-5" edge="1">
          <mxGeometry width="50" height="50" relative="1" as="geometry">
            <mxPoint x="115" y="330" as="sourcePoint" />
            <mxPoint x="1005" y="330" as="targetPoint" />
          </mxGeometry>
        </mxCell>
        <mxCell id="EVPoEGJ5uG0Z3Mp8-1b5-6" value="" style="rounded=1;whiteSpace=wrap;html=1;" parent="iMNLW8RXFIhFK0xTfYwr-1" vertex="1">
          <mxGeometry x="245" y="220" width="110" height="60" as="geometry" />
        </mxCell>
        <mxCell id="EVPoEGJ5uG0Z3Mp8-1b5-7" value="" style="rounded=1;whiteSpace=wrap;html=1;dashed=1;dashPattern=1 1;" parent="iMNLW8RXFIhFK0xTfYwr-1" vertex="1">
          <mxGeometry x="295" y="300" width="110" height="60" as="geometry" />
        </mxCell>
        <mxCell id="EVPoEGJ5uG0Z3Mp8-1b5-8" value="" style="rounded=1;whiteSpace=wrap;html=1;" parent="iMNLW8RXFIhFK0xTfYwr-1" vertex="1">
          <mxGeometry x="435" y="220" width="110" height="60" as="geometry" />
        </mxCell>
        <mxCell id="EVPoEGJ5uG0Z3Mp8-1b5-9" value="" style="rounded=1;whiteSpace=wrap;html=1;dashed=1;dashPattern=1 1;" parent="iMNLW8RXFIhFK0xTfYwr-1" vertex="1">
          <mxGeometry x="485" y="300" width="110" height="60" as="geometry" />
        </mxCell>
      </root>
    </mxGraphModel>
  </diagram>
  <diagram id="Pvq1HQt1tIn6JTyvuTV1" name="Page-6">
    <mxGraphModel dx="1850" dy="1149" grid="1" gridSize="10" guides="1" tooltips="1" connect="1" arrows="1" fold="1" page="1" pageScale="1" pageWidth="1654" pageHeight="1169" math="0" shadow="0">
      <root>
        <mxCell id="0" />
        <mxCell id="1" parent="0" />
      </root>
    </mxGraphModel>
  </diagram>
</mxfile>
